SplineFontDB: 3.0
FontName: N-Accidentals
FullName: 
FamilyName: N
Weight: 
Copyright: 
UComments: "2011-5-24: Created." 
Version: 0
ItalicAngle: 0
UnderlinePosition: -100
UnderlineWidth: 50
Ascent: 800
Descent: 200
sfntRevision: 0x00000000
LayerCount: 3
Layer: 0 0 "Back"  1
Layer: 1 0 "Zeichenebene"  0
Layer: 2 0 "Struktur 1"  1
XUID: [1021 201 23757 16427]
FSType: 0
OS2Version: 0
OS2_WeightWidthSlopeOnly: 0
OS2_UseTypoMetrics: 1
CreationTime: 1306259327
ModificationTime: 1409118500
OS2TypoAscent: 0
OS2TypoAOffset: 1
OS2TypoDescent: 0
OS2TypoDOffset: 1
OS2TypoLinegap: 90
OS2WinAscent: 0
OS2WinAOffset: 1
OS2WinDescent: 0
OS2WinDOffset: 1
HheadAscent: 0
HheadAOffset: 1
HheadDescent: 0
HheadDOffset: 1
OS2Vendor: 'PfEd'
MarkAttachClasses: 1
DEI: 91125
Encoding: UnicodeBmp
UnicodeInterp: none
NameList: Adobe Glyph List
DisplaySize: -72
AntiAlias: 1
FitToEm: 1
WinInfo: 56 8 7
BeginPrivate: 0
EndPrivate
Grid
-36 51 m 17
 274 141 l 1033
-36 140.5 m 25
 274 230.5 l 1049
288 85 m 25
 598 180 l 1049
288 22.5 m 25
 598 117.5 l 1049
-36 117 m 29
 274 207 l 1053
-36 29 m 29
 274 119 l 1053
EndSplineSet
BeginChars: 65536 455

StartChar: zero
Encoding: 48 48 0
Width: 245
Flags: HMW
HStem: 97 9<65 80>
VStem: 0 52<239.572 474.973> 15 31<-134.452 56.9679 106.007 295.25> 168 77<-20.2335 90.0367>
LayerCount: 3
Fore
SplineSet
123 94 m 0xb0
 64 94 45 45 45 -34 c 2
 45 -81 l 2
 45 -143 57 -144 100 -104 c 0
 141 -65 165 -28 165 34 c 0
 165 64 153 94 123 94 c 0xb0
51 444 m 0xd0
 51 373 46 248 46 126 c 0
 46 115 49 106 57 106 c 0
 79 106 120 150 165 150 c 0
 214 150 240 115 240 73 c 0
 240 6 215 -46 162 -91 c 0
 49 -192 l 0
 40 -197 35 -204 25 -204 c 0
 15 -204 15 -192 15 -182 c 0xb0
 15 -71 14 -51 11 101 c 0
 7 213 0 376 0 447 c 0
 0 464 1 466 25 466 c 0
 47 466 51 465 51 444 c 0xd0
EndSplineSet
EndChar

StartChar: three
Encoding: 51 51 1
Width: 479
Flags: HMW
HStem: 97 9<65 80>
VStem: 0 52<239.572 474.973> 15 31<-134.452 56.9679 106.007 295.25> 168 77<-20.2335 90.0367>
LayerCount: 3
Fore
SplineSet
362 94 m 0xb0
 303 94 284 45 284 -34 c 2
 284 -81 l 2
 284 -143 296 -144 339 -104 c 0
 380 -65 404 -28 404 34 c 0
 404 64 392 94 362 94 c 0xb0
290 444 m 0xd0
 290 373 285 248 285 126 c 0
 285 115 288 106 296 106 c 0
 318 106 359 150 404 150 c 0
 453 150 479 115 479 73 c 0
 479 6 454 -46 401 -91 c 0
 288 -192 l 0
 279 -197 274 -204 264 -204 c 0
 254 -204 254 -192 254 -182 c 0xb0
 254 -71 253 -51 250 101 c 0
 246 213 239 376 239 447 c 0
 239 464 240 466 264 466 c 0
 286 466 290 465 290 444 c 0xd0
123 94 m 0xb0
 64 94 45 45 45 -34 c 2
 45 -81 l 2
 45 -143 57 -144 100 -104 c 0
 141 -65 165 -28 165 34 c 0
 165 64 153 94 123 94 c 0xb0
51 444 m 0xd0
 51 373 46 248 46 126 c 0
 46 115 49 106 57 106 c 0
 79 106 120 150 165 150 c 0
 214 150 240 115 240 73 c 0
 240 6 215 -46 162 -91 c 0
 49 -192 l 0
 40 -197 35 -204 25 -204 c 0
 15 -204 15 -192 15 -182 c 0xb0
 15 -71 14 -51 11 101 c 0
 7 213 0 376 0 447 c 0
 0 464 1 466 25 466 c 0
 47 466 51 465 51 444 c 0xd0
EndSplineSet
EndChar

StartChar: H
Encoding: 72 72 2
Width: 340
VWidth: 0
Flags: HMW
LayerCount: 3
Fore
SplineSet
340 446 m 0
 340 -448 l 0
 340 -462 334 -472 319 -472 c 0
 242 -472 l 0
 223 -472 218 -467 218 -457 c 0
 218 -441 226 -441 251 -441 c 0
 285 -441 l 0
 305 -441 309 -439 309 -418 c 0
 309 413 l 0
 309 437 307 442 287 442 c 0
 242 442 l 0
 223 442 218 444 218 456 c 0
 218 470 226 472 251 472 c 0
 316 472 l 0
 330 472 340 466 340 446 c 0
0 -446 m 0
 0 448 l 0
 0 462 6 472 21 472 c 0
 98 472 l 0
 117 472 122 467 122 457 c 0
 122 441 114 441 89 441 c 0
 55 441 l 0
 35 441 31 439 31 418 c 0
 31 -413 l 0
 31 -437 33 -442 53 -442 c 0
 98 -442 l 0
 117 -442 122 -444 122 -456 c 0
 122 -470 114 -472 89 -472 c 0
 24 -472 l 0
 10 -472 0 -466 0 -446 c 0
112 395 m 3
 132 395 134 394 134 372 c 3
 134 305 133 272 133 208 c 3
 133 174 140 171 168 182 c 2
 200 195 l 2
 242 212 248 209 248 163 c 3
 248 89 247 47 247 -27 c 27
 247 -163 251 -239 251 -375 c 3
 251 -391 250 -394 227 -394 c 3
 209 -394 206 -391 206 -376 c 3
 206 -316 207 -273 207 -206 c 3
 207 -170 198 -171 172 -182 c 2
 138 -196 l 2
 97 -212 92 -210 92 -164 c 3
 92 -103 93 28 93 28 c 11
 93 164 89 240 89 376 c 3
 89 393 92 395 112 395 c 3
160 -105 m 2
 186 -94 l 2
 210 -84 214 -79 214 -41 c 2
 214 74 l 2
 214 104 212 118 179 104 c 2
 159 96 l 2
 130 84 126 82 126 42 c 2
 126 -78 l 2
 126 -113 132 -116 160 -105 c 2
EndSplineSet
EndChar

StartChar: M
Encoding: 77 77 3
Width: 575
VWidth: 0
Flags: HMW
LayerCount: 3
Fore
SplineSet
575 475 m 0
 575 -408 l 0
 575 -422 569 -432 554 -432 c 0
 477 -432 l 0
 458 -432 453 -427 453 -417 c 0
 453 -401 461 -401 486 -401 c 0
 520 -401 l 0
 540 -401 544 -399 544 -378 c 0
 544 442 l 0
 544 466 542 471 522 471 c 0
 477 471 l 0
 458 471 453 473 453 485 c 0
 453 499 461 501 486 501 c 0
 551 501 l 0
 565 501 575 495 575 475 c 0
0 -406 m 0
 0 477 l 0
 0 491 6 501 21 501 c 0
 98 501 l 0
 117 501 122 496 122 486 c 0
 122 470 114 470 89 470 c 0
 55 470 l 0
 35 470 31 468 31 447 c 0
 31 -373 l 0
 31 -397 33 -402 53 -402 c 0
 98 -402 l 0
 117 -402 122 -404 122 -416 c 0
 122 -430 114 -432 89 -432 c 0
 24 -432 l 0
 10 -432 0 -426 0 -406 c 0
112 395 m 3
 132 395 134 394 134 372 c 3
 134 305 133 272 133 208 c 3
 133 174 140 171 168 182 c 2
 200 195 l 2
 242 212 248 209 248 163 c 3
 248 89 247 47 247 -27 c 27
 247 -163 251 -239 251 -375 c 3
 251 -391 250 -394 227 -394 c 3
 209 -394 206 -391 206 -376 c 3
 206 -316 207 -273 207 -206 c 3
 207 -170 198 -171 172 -182 c 2
 138 -196 l 2
 97 -212 92 -210 92 -164 c 3
 92 -103 93 28 93 28 c 11
 93 164 89 240 89 376 c 3
 89 393 92 395 112 395 c 3
160 -105 m 2
 186 -94 l 2
 210 -84 214 -79 214 -41 c 2
 214 74 l 2
 214 104 212 118 179 104 c 2
 159 96 l 2
 130 84 126 82 126 42 c 2
 126 -78 l 2
 126 -113 132 -116 160 -105 c 2
435 51 m 0
 435 80 424 104 392 104 c 0
 368 104 348 92 339 71 c 0
 328 44 327 2 327 -45 c 3
 327 -81 333 -93 343 -93 c 3
 368 -93 435 -27 435 51 c 0
424 153 m 0
 467 153 500 117 500 75 c 0
 500 13 475 -27 429 -66 c 0
 392 -98 372 -119 344 -146 c 0
 324 -165 300 -182 298 -133 c 2
 297 -104 l 2
 291 226 282 360 282 452 c 3
 282 472 288 473 302 473 c 2
 327 473 l 2
 341 473 346 470 346 452 c 3
 346 402 341 270 341 165 c 0
 341 117 354 124 385 141 c 0
 397 148 409 153 424 153 c 0
EndSplineSet
EndChar

StartChar: grave
Encoding: 96 96 4
Width: 426
VWidth: 0
Flags: HMW
LayerCount: 3
Fore
SplineSet
392 0 m 0
 392 115 318 165 318 181 c 0
 318 186 319 188 326 188 c 0
 344 188 426 108 426 0 c 0
 426 -108 344 -188 326 -188 c 0
 319 -188 318 -186 318 -181 c 0
 318 -165 392 -115 392 0 c 0
34 0 m 4
 34 -115 108 -165 108 -181 c 4
 108 -186 107 -188 100 -188 c 4
 82 -188 0 -108 0 0 c 4
 0 108 82 188 100 188 c 4
 107 188 108 186 108 181 c 4
 108 165 34 115 34 0 c 4
159 282 m 0
 173 282 177 279 177 264 c 3
 177 228 174 175 174 139 c 3
 174 114 182 112 203 118 c 2
 252 132 l 2
 278 139 284 135 284 110 c 3
 284 56 283 26 283 -28 c 11
 283 -121 286 -210 286 -266 c 3
 286 -278 284 -282 268 -282 c 3
 253 -282 249 -277 249 -267 c 3
 249 -228 252 -176 252 -138 c 3
 252 -112 242 -113 223 -118 c 2
 170 -132 l 2
 146 -137 142 -132 142 -107 c 3
 142 -70 143 -24 143 30 c 27
 143 122 140 230 140 265 c 3
 140 279 143 282 159 282 c 0
174 21 m 2
 174 -49 l 2
 174 -66 184 -67 197 -65 c 2
 229 -57 l 2
 248 -51 252 -44 252 -27 c 2
 252 46 l 2
 252 68 243 68 226 65 c 2
 196 57 l 2
 175 51 174 42 174 21 c 2
EndSplineSet
EndChar

StartChar: a
Encoding: 97 97 5
Width: 409
VWidth: -9
Flags: HMW
LayerCount: 3
Fore
SplineSet
375 50 m 4
 375 165 301 215 301 231 c 4
 301 236 302 238 309 238 c 4
 327 238 409 158 409 50 c 4
 409 -58 327 -138 309 -138 c 4
 302 -138 301 -136 301 -131 c 4
 301 -115 375 -65 375 50 c 4
34 50 m 4
 34 -65 108 -115 108 -131 c 4
 108 -136 107 -138 100 -138 c 4
 82 -138 0 -58 0 50 c 4
 0 158 82 238 100 238 c 4
 107 238 108 236 108 231 c 4
 108 215 34 165 34 50 c 4
256 37 m 0xd8
 256 57 246 76 225 76 c 0
 207 76 193 68 185 55 c 0
 174 38 173 11 173 -20 c 3
 173 -43 178 -47 185 -47 c 3
 203 -47 256 -4 256 37 c 0xd8
248 110 m 0
 281 110 304 86 304 50 c 0
 304 7 277 -20 245 -45 c 0
 218 -66 197 -83 177 -102 c 0
 163 -115 146 -116 145 -93 c 2
 144 -73 l 2xd8
 140 158 138 249 138 313 c 3
 138 327 144 331 154 331 c 2
 172 331 l 2
 182 331 187 326 187 313 c 3xe8
 187 278 183 194 183 120 c 0
 183 90 194 96 213 103 c 0
 230 109 237 110 248 110 c 0
EndSplineSet
EndChar

StartChar: b
Encoding: 98 98 6
Width: 445
VWidth: 0
Flags: HMW
LayerCount: 3
Fore
SplineSet
411 0 m 4
 411 115 337 165 337 181 c 4
 337 186 338 188 345 188 c 4
 363 188 445 108 445 0 c 4
 445 -108 363 -188 345 -188 c 4
 338 -188 337 -186 337 -181 c 4
 337 -165 411 -115 411 0 c 4
34 0 m 0
 34 -115 108 -165 108 -181 c 0
 108 -186 107 -188 100 -188 c 0
 82 -188 0 -108 0 0 c 0
 0 108 82 188 100 188 c 0
 107 188 108 186 108 181 c 0
 108 165 34 115 34 0 c 0
158 8 m 2
 158 43 125 11 125 39 c 2
 125 67 l 2
 125 92 158 78 158 114 c 3
 158 155 155 189 155 223 c 3
 155 235 157 238 173 238 c 3
 190 238 190 234 190 222 c 3
 190 191 189 159 189 125 c 3
 189 109 194 102 208 106 c 2
 236 113 l 2
 245 115 256 120 256 140 c 3
 256 176 255 213 255 240 c 3
 255 259 258 260 271 260 c 3
 289 260 290 257 290 242 c 3
 290 223 287 180 287 145 c 3
 287 116 320 152 320 114 c 2
 320 92 l 2
 320 66 287 81 287 47 c 2
 287 -9 l 2
 287 -43 320 -11 320 -39 c 2
 320 -67 l 2
 320 -92 287 -78 287 -114 c 3
 287 -155 290 -189 290 -223 c 3
 290 -235 288 -238 272 -238 c 3
 255 -238 255 -234 255 -222 c 3
 255 -191 256 -159 256 -125 c 3
 256 -109 251 -102 237 -106 c 2
 209 -113 l 2
 200 -115 189 -121 189 -140 c 3
 189 -176 190 -213 190 -240 c 3
 190 -259 187 -260 174 -260 c 3
 156 -260 155 -257 155 -242 c 3
 155 -223 158 -180 158 -145 c 3
 158 -115 125 -150 125 -116 c 2
 125 -92 l 2
 125 -67 158 -81 158 -47 c 2
 158 8 l 2
256 34 m 2
 256 50 251 58 237 54 c 2
 209 46 l 2
 199 43 189 38 189 19 c 2
 189 -34 l 2
 189 -51 195 -58 208 -54 c 2
 236 -46 l 2
 247 -43 256 -39 256 -19 c 2
 256 34 l 2
EndSplineSet
EndChar

StartChar: c
Encoding: 99 99 7
Width: 590
VWidth: -9
Flags: HMW
HStem: 76 34<187.847 251.023> 311 20G<149 177>
VStem: 138 49<101.394 331> 144 29<-46.997 54.1958> 256 48<-9.57345 74.6198>
LayerCount: 3
Fore
SplineSet
556 50 m 0
 556 165 482 215 482 231 c 0
 482 236 483 238 490 238 c 0
 508 238 590 158 590 50 c 0
 590 -58 508 -138 490 -138 c 0
 483 -138 482 -136 482 -131 c 0
 482 -115 556 -65 556 50 c 0
34 50 m 0
 34 -65 108 -115 108 -131 c 0
 108 -136 107 -138 100 -138 c 0
 82 -138 0 -58 0 50 c 0
 0 158 82 238 100 238 c 0
 107 238 108 236 108 231 c 0
 108 215 34 165 34 50 c 0
437 37 m 0xd8
 437 57 427 76 406 76 c 0
 388 76 374 68 366 55 c 0
 355 38 354 11 354 -20 c 3
 354 -43 359 -47 366 -47 c 3
 384 -47 437 -4 437 37 c 0xd8
429 110 m 0
 462 110 485 86 485 50 c 0
 485 7 458 -20 426 -45 c 0
 399 -66 378 -83 358 -102 c 0
 344 -115 327 -116 326 -93 c 2
 325 -73 l 2xd8
 321 158 319 249 319 313 c 3
 319 327 325 331 335 331 c 2
 353 331 l 2
 363 331 368 326 368 313 c 3xe8
 368 278 364 194 364 120 c 0
 364 90 375 96 394 103 c 0
 411 109 418 110 429 110 c 0
256 37 m 0xd8
 256 57 246 76 225 76 c 0
 207 76 193 68 185 55 c 0
 174 38 173 11 173 -20 c 3
 173 -43 178 -47 185 -47 c 3
 203 -47 256 -4 256 37 c 0xd8
248 110 m 0
 281 110 304 86 304 50 c 0
 304 7 277 -20 245 -45 c 0
 218 -66 197 -83 177 -102 c 0
 163 -115 146 -116 145 -93 c 2
 144 -73 l 2xd8
 140 158 138 249 138 313 c 3
 138 327 144 331 154 331 c 2
 172 331 l 2
 182 331 187 326 187 313 c 3xe8
 187 278 183 194 183 120 c 0
 183 90 194 96 213 103 c 0
 230 109 237 110 248 110 c 0
EndSplineSet
EndChar

StartChar: d
Encoding: 100 100 8
Width: 351
VWidth: 0
Flags: HMW
LayerCount: 3
Fore
SplineSet
321 0 m 0
 321 77 275 107 275 117 c 0
 275 121 277 125 283 125 c 0
 299 125 351 72 351 0 c 0
 351 -72 299 -125 283 -125 c 0
 277 -125 275 -121 275 -117 c 0
 275 -107 321 -77 321 0 c 0
31 0 m 0
 31 -77 76 -107 76 -117 c 0
 76 -121 75 -125 69 -125 c 0
 52 -125 0 -72 0 0 c 0
 0 72 52 125 69 125 c 0
 75 125 76 121 76 117 c 0
 76 107 31 77 31 0 c 0
121 -86 m 0
 127 -86 134 -88 139 -88 c 0
 147 -88 148 -82 150 -64 c 0
 152 -43 162 -25 176 -25 c 0
 190 -25 200 -44 202 -65 c 0
 204 -82 205 -88 212 -88 c 0
 218 -88 225 -86 231 -86 c 0
 239 -86 249 -89 257 -89 c 0
 263 -89 264 -86 264 -80 c 0
 264 -72 261 -63 261 -55 c 0
 261 -49 263 -42 263 -37 c 0
 263 -29 258 -28 240 -26 c 0
 219 -24 200 -14 200 0 c 0
 200 14 220 24 241 26 c 0
 258 28 263 29 263 37 c 0
 263 42 261 49 261 55 c 0
 261 63 264 72 264 80 c 0
 264 86 263 89 257 89 c 0
 249 89 239 86 231 86 c 0
 225 86 218 88 212 88 c 0
 205 88 204 82 202 64 c 0
 200 43 190 25 176 25 c 0
 162 25 152 44 150 65 c 0
 148 82 147 88 139 88 c 0
 134 88 127 86 121 86 c 0
 113 86 103 89 95 89 c 0
 89 89 87 86 87 80 c 0
 87 72 90 63 90 55 c 0
 90 49 89 42 89 37 c 0
 89 29 93 28 111 26 c 0
 132 24 151 14 151 0 c 0
 151 -14 132 -24 111 -26 c 0
 94 -28 89 -29 89 -37 c 0
 89 -42 90 -49 90 -55 c 0
 90 -63 87 -72 87 -80 c 0
 87 -86 89 -89 95 -89 c 0
 103 -89 113 -86 121 -86 c 0
EndSplineSet
EndChar

StartChar: uni0088
Encoding: 136 136 13
Width: 146
VWidth: 0
Flags: HMW
HStem: -192 93<9.5 91.3989> 98 96<92.3563 170>
VStem: 3 33<-98.9956 74.7993 160.004 389.996> 140 39<-389.996 -160.002 -76.5042 97.9949>
LayerCount: 3
Fore
SplineSet
17 282 m 0
 31 282 34 279 34 264 c 3
 34 228 31 174 31 138 c 3
 31 113 39 111 60 117 c 2
 112 132 l 2
 138 139 144 135 144 110 c 3
 144 56 143 26 143 -28 c 11
 143 -121 146 -210 146 -266 c 3
 146 -278 143 -282 130 -282 c 3
 115 -282 112 -277 112 -267 c 3
 112 -228 115 -175 115 -137 c 3
 115 -111 105 -112 86 -117 c 2
 30 -132 l 2
 6 -138 2 -132 2 -107 c 3
 2 -70 3 -23 3 30 c 27
 3 122 0 230 0 265 c 3
 0 279 4 282 17 282 c 0
31 20 m 2
 31 -50 l 2
 31 -67 41 -69 54 -66 c 2
 92 -56 l 2
 111 -51 115 -43 115 -26 c 2
 115 47 l 2
 115 69 106 71 89 66 c 2
 53 56 l 2
 32 50 31 41 31 20 c 2
EndSplineSet
EndChar

StartChar: uni0089
Encoding: 137 137 14
Width: 162
VWidth: -9
Flags: HMW
HStem: 76 34<46.3472 109.523> 311 20G<7.5 35.5>
VStem: -3.5 49<101.394 331> 2.5 29<-46.997 54.1958> 114.5 48<-9.57345 74.6198>
LayerCount: 3
Fore
SplineSet
114 37 m 0xd8
 114 57 104 78 84 78 c 0
 66 78 52 70 44 57 c 0
 32 40 28 9 28 -22 c 3
 28 -45 34 -52 40 -52 c 3
 58 -52 114 -4 114 37 c 0xd8
106 110 m 0
 140 110 162 86 162 50 c 0
 162 7 136 -20 104 -45 c 0
 76 -66 56 -83 36 -102 c 0
 22 -115 4 -116 4 -93 c 2
 2 -73 l 2xd8
 -2 158 0 249 0 313 c 3
 0 327 6 331 16 331 c 2
 28 331 l 2
 38 331 42 326 42 313 c 3xe8
 42 278 38 194 38 120 c 0
 38 90 52 96 72 103 c 0
 88 109 96 110 106 110 c 0
EndSplineSet
EndChar

StartChar: uni008A
Encoding: 138 138 15
Width: 195
VWidth: 0
Flags: HMW
LayerCount: 3
Fore
SplineSet
33 8 m 2
 33 43 0 11 0 39 c 2
 0 67 l 2
 0 92 33 78 33 114 c 3
 33 155 30 189 30 223 c 3
 30 235 32 238 46 238 c 3
 62 238 62 234 62 222 c 3
 62 191 61 158 61 124 c 3
 61 108 66 101 80 105 c 2
 114 114 l 2
 123 116 134 121 134 141 c 3
 134 177 133 213 133 240 c 3
 133 259 136 260 149 260 c 3
 163 260 165 257 165 242 c 3
 165 223 162 180 162 145 c 3
 162 116 195 152 195 114 c 2
 195 92 l 2
 195 66 162 81 162 47 c 2
 162 -9 l 2
 162 -43 195 -11 195 -39 c 2
 195 -67 l 2
 195 -92 162 -78 162 -114 c 3
 162 -155 165 -189 165 -223 c 3
 165 -235 162 -238 149 -238 c 3
 132 -238 133 -234 133 -222 c 3
 133 -191 134 -158 134 -124 c 3
 134 -108 129 -101 115 -105 c 2
 81 -114 l 2
 72 -116 61 -122 61 -141 c 3
 61 -177 62 -213 62 -240 c 3
 62 -259 59 -260 46 -260 c 3
 30 -260 30 -257 30 -242 c 3
 30 -223 33 -180 33 -145 c 3
 33 -115 0 -150 0 -116 c 2
 0 -92 l 2
 0 -67 33 -81 33 -47 c 2
 33 8 l 2
134 35 m 2
 134 51 129 59 115 55 c 2
 81 45 l 2
 71 42 61 37 61 18 c 2
 61 -35 l 2
 61 -52 67 -59 80 -55 c 2
 114 -45 l 2
 125 -42 134 -38 134 -18 c 2
 134 35 l 2
EndSplineSet
EndChar

StartChar: uni008B
Encoding: 139 139 16
Width: 340
VWidth: -9
Flags: HMW
HStem: 76 34<46.3472 109.523> 311 20G<7.5 35.5>
VStem: -3.5 49<101.394 331> 2.5 29<-46.997 54.1958> 114.5 48<-9.57345 74.6198>
LayerCount: 3
Fore
SplineSet
292 37 m 0xd8
 292 57 282 78 262 78 c 0
 244 78 230 70 222 57 c 0
 210 40 206 9 206 -22 c 3
 206 -45 212 -52 218 -52 c 3
 236 -52 292 -4 292 37 c 0xd8
284 110 m 0
 318 110 340 86 340 50 c 0
 340 7 314 -20 282 -45 c 0
 254 -66 234 -83 214 -102 c 0
 200 -115 182 -116 182 -93 c 2
 180 -73 l 2xd8
 176 158 178 249 178 313 c 3
 178 327 184 331 194 331 c 2
 206 331 l 2
 216 331 220 326 220 313 c 3xe8
 220 278 216 194 216 120 c 0
 216 90 230 96 250 103 c 0
 266 109 274 110 284 110 c 0
114 37 m 0xd8
 114 57 104 78 84 78 c 0
 66 78 52 70 44 57 c 0
 32 40 28 9 28 -22 c 3
 28 -45 34 -52 40 -52 c 3
 58 -52 114 -4 114 37 c 0xd8
106 110 m 0
 140 110 162 86 162 50 c 0
 162 7 136 -20 104 -45 c 0
 76 -66 56 -83 36 -102 c 0
 22 -115 4 -116 4 -93 c 2
 2 -73 l 2xd8
 -2 158 0 249 0 313 c 3
 0 327 6 331 16 331 c 2
 28 331 l 2
 38 331 42 326 42 313 c 3xe8
 42 278 38 194 38 120 c 0
 38 90 52 96 72 103 c 0
 88 109 96 110 106 110 c 0
EndSplineSet
EndChar

StartChar: uni008C
Encoding: 140 140 17
Width: 177
VWidth: 0
Flags: HMW
LayerCount: 3
Fore
SplineSet
34 -86 m 0
 40 -86 47 -88 52 -88 c 0
 60 -88 61 -82 63 -64 c 0
 65 -43 75 -22 89 -22 c 0
 103 -22 113 -44 115 -65 c 0
 117 -82 118 -88 125 -88 c 0
 131 -88 138 -86 144 -86 c 0
 152 -86 162 -89 170 -89 c 0
 176 -89 177 -86 177 -80 c 0
 177 -72 174 -63 174 -55 c 0
 174 -49 176 -42 176 -37 c 0
 176 -29 171 -28 153 -26 c 0
 132 -24 110 -14 110 0 c 0
 110 14 133 24 154 26 c 0
 171 28 176 29 176 37 c 0
 176 42 174 49 174 55 c 0
 174 63 177 72 177 80 c 0
 177 86 176 89 170 89 c 0
 162 89 152 86 144 86 c 0
 138 86 131 88 125 88 c 0
 118 88 117 82 115 64 c 0
 113 43 103 22 89 22 c 0
 75 22 65 44 63 65 c 0
 61 82 60 88 52 88 c 0
 47 88 40 86 34 86 c 0
 26 86 16 89 8 89 c 0
 2 89 0 86 0 80 c 0
 0 72 3 63 3 55 c 0
 3 49 2 42 2 37 c 0
 2 29 6 28 24 26 c 0
 45 24 67 14 67 0 c 0
 67 -14 45 -24 24 -26 c 0
 7 -28 2 -29 2 -37 c 0
 2 -42 3 -49 3 -55 c 0
 3 -63 0 -72 0 -80 c 0
 0 -86 2 -89 8 -89 c 0
 16 -89 26 -86 34 -86 c 0
EndSplineSet
EndChar

StartChar: uni008D
Encoding: 141 141 18
Width: 334
VWidth: 0
Flags: HMW
HStem: 76 34<46.3472 109.523> 311 20G<7.5 35.5>
VStem: -3.5 49<101.394 331> 2.5 29<-46.997 54.1958> 114.5 48<-9.57345 74.6198>
LayerCount: 3
Fore
SplineSet
286 37 m 0xd8
 286 57 276 78 256 78 c 0
 238 78 224 70 216 57 c 0
 204 40 200 9 200 -22 c 3
 200 -45 206 -52 212 -52 c 3
 230 -52 286 -4 286 37 c 0xd8
278 110 m 0
 312 110 334 86 334 50 c 0
 334 7 308 -20 276 -45 c 0
 248 -66 228 -83 208 -102 c 0
 194 -115 176 -116 176 -93 c 2
 174 -73 l 2xd8
 170 158 172 249 172 313 c 3
 172 327 178 331 188 331 c 2
 200 331 l 2
 210 331 214 326 214 313 c 3xe8
 214 278 210 194 210 120 c 0
 210 90 224 96 244 103 c 0
 260 109 268 110 278 110 c 0
17 282 m 0
 31 282 34 279 34 264 c 3
 34 228 31 174 31 138 c 3
 31 113 39 111 60 117 c 2
 112 132 l 2
 138 139 144 135 144 110 c 3
 144 56 143 26 143 -28 c 11
 143 -121 146 -210 146 -266 c 3
 146 -278 143 -282 130 -282 c 3
 115 -282 112 -277 112 -267 c 3
 112 -228 115 -175 115 -137 c 3
 115 -111 105 -112 86 -117 c 2
 30 -132 l 2
 6 -138 2 -132 2 -107 c 3
 2 -70 3 -23 3 30 c 27
 3 122 0 230 0 265 c 3
 0 279 4 282 17 282 c 0
31 20 m 2
 31 -50 l 2
 31 -67 41 -69 54 -66 c 2
 92 -56 l 2
 111 -51 115 -43 115 -26 c 2
 115 47 l 2
 115 69 106 71 89 66 c 2
 53 56 l 2
 32 50 31 41 31 20 c 2
EndSplineSet
EndChar

StartChar: uni008E
Encoding: 142 142 19
Width: 380
VWidth: 0
Flags: HMW
LayerCount: 3
Fore
SplineSet
218 8 m 2
 218 43 185 11 185 39 c 2
 185 67 l 2
 185 92 218 78 218 114 c 3
 218 155 215 189 215 223 c 3
 215 235 217 238 231 238 c 3
 247 238 247 234 247 222 c 3
 247 191 246 158 246 124 c 3
 246 108 251 101 265 105 c 2
 299 114 l 2
 308 116 319 121 319 141 c 3
 319 177 318 213 318 240 c 3
 318 259 321 260 334 260 c 3
 348 260 350 257 350 242 c 3
 350 223 347 180 347 145 c 3
 347 116 380 152 380 114 c 2
 380 92 l 2
 380 66 347 81 347 47 c 2
 347 -9 l 2
 347 -43 380 -11 380 -39 c 2
 380 -67 l 2
 380 -92 347 -78 347 -114 c 3
 347 -155 350 -189 350 -223 c 3
 350 -235 347 -238 334 -238 c 3
 317 -238 318 -234 318 -222 c 3
 318 -191 319 -158 319 -124 c 3
 319 -108 314 -101 300 -105 c 2
 266 -114 l 2
 257 -116 246 -122 246 -141 c 3
 246 -177 247 -213 247 -240 c 3
 247 -259 244 -260 231 -260 c 3
 215 -260 215 -257 215 -242 c 3
 215 -223 218 -180 218 -145 c 3
 218 -115 185 -150 185 -116 c 2
 185 -92 l 2
 185 -67 218 -81 218 -47 c 2
 218 8 l 2
319 35 m 2
 319 51 314 59 300 55 c 2
 266 45 l 2
 256 42 246 37 246 18 c 2
 246 -35 l 2
 246 -52 252 -59 265 -55 c 2
 299 -45 l 2
 310 -42 319 -38 319 -18 c 2
 319 35 l 2
17 282 m 0
 31 282 34 279 34 264 c 3
 34 228 31 174 31 138 c 3
 31 113 39 111 60 117 c 2
 112 132 l 2
 138 139 144 135 144 110 c 3
 144 56 143 26 143 -28 c 11
 143 -121 146 -210 146 -266 c 3
 146 -278 143 -282 130 -282 c 3
 115 -282 112 -277 112 -267 c 3
 112 -228 115 -175 115 -137 c 3
 115 -111 105 -112 86 -117 c 2
 30 -132 l 2
 6 -138 2 -132 2 -107 c 3
 2 -70 3 -23 3 30 c 27
 3 122 0 230 0 265 c 3
 0 279 4 282 17 282 c 0
31 20 m 2
 31 -50 l 2
 31 -67 41 -69 54 -66 c 2
 92 -56 l 2
 111 -51 115 -43 115 -26 c 2
 115 47 l 2
 115 69 106 71 89 66 c 2
 53 56 l 2
 32 50 31 41 31 20 c 2
EndSplineSet
EndChar

StartChar: Egrave
Encoding: 200 200 23
Width: 988
VWidth: 0
Flags: HMW
VStem: 46 33<-361 339> 155 33<-339 361>
LayerCount: 3
Fore
SplineSet
210 -145 m 25
 0 -195 l 25
 0 -107 l 25
 210 -57 l 25
 210 -145 l 25
210 107 m 29
 0 57 l 29
 0 145 l 29
 210 195 l 29
 210 107 l 29
143 367 m 1
 176 367 l 1
 176 -345 l 1
 143 -345 l 1
 143 367 l 1
34 345 m 1
 67 345 l 1
 67 -367 l 1
 34 -367 l 1
 34 345 l 1
EndSplineSet
EndChar

StartChar: Eacute
Encoding: 201 201 24
Width: 988
VWidth: 0
Flags: HMW
VStem: -5 33<-361 339> 104 33<-339 361>
LayerCount: 3
Fore
SplineSet
-16 137 m 2
 -16 237 -19 293 -19 333 c 3
 -19 351 -19 356 1 356 c 0
 22 356 19 348 19 329 c 3
 19 266 17 241 17 141 c 2
 17 -142 l 2
 17 -242 19 -266 19 -330 c 3
 19 -349 22 -356 1 -356 c 0
 -19 -356 -19 -352 -19 -333 c 3
 -19 -294 -16 -237 -16 -137 c 2
 -16 137 l 2
EndSplineSet
EndChar

StartChar: lcommaaccent
Encoding: 316 316 25
Width: 218
VWidth: 0
Flags: W
HStem: -109 75<5.89371 74.7207 143.596 211.109> -26 52<83.2161 134.784> 34 75<6.89062 74.4043 143.279 212.059>
VStem: 0 75<-102.109 -34.5957 34.2793 103.106> 83 52<-25.7839 25.7839> 143 75<-103.106 -34.2793 34.5957 102.109>
CounterMasks: 1 fc
LayerCount: 3
Fore
SplineSet
109 -26 m 3
 91 -26 75 -47 75 -84 c 0
 75 -94 72 -100 61 -101 c 0
 47 -103 23 -109 9 -109 c 0
 4 -109 0 -106 0 -100 c 0
 0 -86 5 -63 7 -48 c 0
 9 -36 15 -34 26 -34 c 0
 63 -34 83 -19 83 0 c 3
 83 18 62 34 25 34 c 0
 15 34 9 37 8 48 c 0
 6 62 0 87 0 100 c 0
 0 105 3 109 9 109 c 0
 23 109 47 104 61 102 c 0
 73 100 75 94 75 83 c 0
 75 46 90 26 109 26 c 3
 127 26 143 47 143 84 c 0
 143 94 146 100 157 101 c 0
 172 103 196 109 209 109 c 0
 215 109 218 106 218 100 c 0
 218 86 213 63 211 48 c 0
 209 36 203 34 192 34 c 0
 155 34 135 19 135 0 c 0
 135 -18 156 -34 193 -34 c 0
 203 -34 209 -37 210 -48 c 0
 212 -62 218 -87 218 -100 c 0
 218 -105 215 -109 209 -109 c 0
 195 -109 172 -104 157 -102 c 0
 145 -100 143 -94 143 -83 c 0
 143 -46 128 -26 109 -26 c 3
EndSplineSet
EndChar

StartChar: Ohungarumlaut
Encoding: 336 336 26
Width: 438
VWidth: 0
Flags: HW
HStem: -161 75<9.5 60.375> 87 74<107.906 158>
VStem: 3 29<-85.9963 59.6741 124.007 313.999> 132 35<-313.986 -126.007 -61.5988 86.9956>
LayerCount: 3
Fore
SplineSet
155 314 m 3
 168 314 172 312 172 301 c 3
 172 281 169 227 169 156 c 3
 169 133 173 124 184 124 c 0
 188 124 193 126 199 128 c 2
 276 157 l 2
 282 159 287 161 291 161 c 0
 299 161 303 156 303 143 c 3
 303 112 301 46 301 -16 c 3
 301 -109 304 -276 304 -298 c 3
 304 -312 300 -314 285 -314 c 3
 272 -314 269 -310 269 -303 c 3
 269 -276 272 -231 272 -163 c 3
 272 -135 270 -126 259 -126 c 0
 253 -126 246 -128 236 -131 c 2
 165 -157 l 2
 160 -159 155 -161 151 -161 c 0
 142 -161 139 -154 139 -139 c 3
 139 -76 140 -67 140 23 c 3
 140 147 137 280 137 303 c 3
 137 312 144 314 155 314 c 3
167 20 m 2
 167 -63 l 2
 167 -81 173 -86 181 -86 c 0
 188 -86 195 -83 202 -80 c 2
 249 -63 l 1
 273 -53 275 -44 275 -21 c 2
 275 66 l 2
 275 81 270 87 261 87 c 0
 257 87 252 85 246 83 c 2
 191 63 l 2
 170 55 167 49 167 20 c 2
404 0 m 0
 404 115 330 165 330 181 c 0
 330 186 331 188 338 188 c 0
 356 188 438 108 438 0 c 0
 438 -108 356 -188 338 -188 c 0
 331 -188 330 -186 330 -181 c 0
 330 -165 404 -115 404 0 c 0
34 0 m 0
 34 -115 108 -165 108 -181 c 0
 108 -186 107 -188 100 -188 c 0
 82 -188 0 -108 0 0 c 0
 0 108 82 188 100 188 c 0
 107 188 108 186 108 181 c 0
 108 165 34 115 34 0 c 0
EndSplineSet
EndChar

StartChar: OE
Encoding: 338 338 27
Width: 445
VWidth: 0
Flags: W
HStem: -152 57<113 153.996> 51 58<113 153.924> 95 58<287.007 328>
VStem: 0 34<-82.8099 82.8099> 154 27<-302.996 -153.211 -77.869 50.8631 126.999 280.997> 259 28<-280.997 -127.484 -50.6055 76.8906 153.608 302.985> 411 34<-82.8099 82.8099>
LayerCount: 3
Fore
SplineSet
181 -63 m 2x9e
 181 -75 189 -81 206 -77 c 2
 237 -69 l 2
 252 -66 259 -60 259 -44 c 2
 259 63 l 2
 259 78 252 81 238 77 c 2
 206 70 l 2
 187 65 181 61 181 44 c 2
 181 -63 l 2x9e
154 34 m 2
 154 51 148 55 133 51 c 0
 122 48 113 50 113 66 c 2
 113 90 l 2
 113 102 125 106 136 109 c 0xde
 150 113 154 119 154 134 c 0
 154 189 151 251 151 271 c 0
 151 278 156 281 168 281 c 0
 181 281 184 277 184 270 c 0
 184 251 181 185 181 143 c 0
 181 126 189 124 203 127 c 2
 235 135 l 2
 251 139 259 138 259 164 c 0
 259 214 257 271 257 293 c 0
 257 300 262 303 274 303 c 0
 286 303 290 298 290 291 c 0
 290 269 287 222 287 170 c 0
 287 154 296 150 306 153 c 0
 319 156 328 154 328 140 c 2
 328 117 l 2
 328 103 318 98 305 95 c 0xbe
 291 91 287 88 287 75 c 2
 287 -36 l 2
 287 -47 292 -55 307 -51 c 0
 318 -48 328 -49 328 -64 c 2
 328 -90 l 2
 328 -99 319 -106 308 -108 c 0
 291 -112 287 -124 287 -135 c 0
 287 -190 290 -251 290 -271 c 0
 290 -278 285 -281 273 -281 c 0
 260 -281 257 -277 257 -270 c 0
 257 -251 259 -185 259 -143 c 0
 259 -127 250 -124 235 -128 c 2
 201 -136 l 2
 188 -139 181 -145 181 -164 c 0
 181 -214 184 -271 184 -293 c 0
 184 -300 179 -303 167 -303 c 0
 155 -303 151 -298 151 -291 c 0
 151 -269 154 -220 154 -168 c 0
 154 -153 148 -149 138 -152 c 0
 123 -156 113 -154 113 -142 c 2
 113 -117 l 2
 113 -101 123 -98 136 -95 c 0
 150 -91 154 -88 154 -75 c 2
 154 34 l 2
411 0 m 0
 411 115 337 165 337 181 c 0
 337 186 338 188 345 188 c 0
 363 188 445 108 445 0 c 0
 445 -108 363 -188 345 -188 c 0
 338 -188 337 -186 337 -181 c 0
 337 -165 411 -115 411 0 c 0
34 0 m 0
 34 -115 108 -165 108 -181 c 0
 108 -186 107 -188 100 -188 c 0
 82 -188 0 -108 0 0 c 0
 0 108 82 188 100 188 c 0
 107 188 108 186 108 181 c 0
 108 165 34 115 34 0 c 0
EndSplineSet
EndChar

StartChar: Racute
Encoding: 340 340 28
Width: 413
VWidth: 0
Flags: HW
HStem: -109 75<5.89371 74.7207 143.596 211.109> -26 52<83.2161 134.784> 34 75<6.89062 74.4043 143.279 212.059>
VStem: 0 75<-102.109 -34.5957 34.2793 103.106> 83 52<-25.7839 25.7839> 143 75<-103.106 -34.2793 34.5957 102.109>
LayerCount: 3
Fore
SplineSet
210 -26 m 3
 192 -26 176 -47 176 -84 c 0
 176 -94 173 -100 162 -101 c 0
 148 -103 124 -109 110 -109 c 0
 105 -109 101 -106 101 -100 c 0
 101 -86 106 -63 108 -48 c 0
 110 -36 116 -34 127 -34 c 0
 164 -34 184 -19 184 0 c 3
 184 18 163 34 126 34 c 0
 116 34 110 37 109 48 c 0
 107 62 101 87 101 100 c 0
 101 105 104 109 110 109 c 0
 124 109 148 104 162 102 c 0
 174 100 176 94 176 83 c 0
 176 46 191 26 210 26 c 3
 228 26 244 47 244 84 c 0
 244 94 247 100 258 101 c 0
 273 103 297 109 310 109 c 0
 316 109 319 106 319 100 c 0
 319 86 314 63 312 48 c 0
 310 36 304 34 293 34 c 0
 256 34 236 19 236 0 c 0
 236 -18 257 -34 294 -34 c 0
 304 -34 310 -37 311 -48 c 0
 313 -62 319 -87 319 -100 c 0
 319 -105 316 -109 310 -109 c 0
 296 -109 273 -104 258 -102 c 0
 246 -100 244 -94 244 -83 c 0
 244 -46 229 -26 210 -26 c 3
383 0 m 0
 383 77 337 107 337 117 c 0
 337 121 339 125 345 125 c 0
 361 125 413 72 413 0 c 0
 413 -72 361 -125 345 -125 c 0
 339 -125 337 -121 337 -117 c 0
 337 -107 383 -77 383 0 c 0
31 0 m 0
 31 -77 76 -107 76 -117 c 0
 76 -121 75 -125 69 -125 c 0
 52 -125 0 -72 0 0 c 0
 0 72 52 125 69 125 c 0
 75 125 76 121 76 117 c 0
 76 107 31 77 31 0 c 0
EndSplineSet
EndChar

StartChar: k
Encoding: 107 107 30
Width: 505
VWidth: -9
Flags: HMW
HStem: 76 34<137.847 201.023> 311 20G<99 127>
VStem: 88 49<101.394 331> 94 29<-46.997 54.1958> 206 48<-9.57345 74.6198>
LayerCount: 3
Fore
SplineSet
505 393 m 4
 505 -165 l 4
 505 -179 499 -189 484 -189 c 4
 407 -189 l 4
 388 -189 383 -184 383 -174 c 4
 383 -158 391 -158 416 -158 c 4
 450 -158 l 4
 470 -158 474 -156 474 -135 c 4
 474 360 l 4
 474 384 472 389 452 389 c 4
 407 389 l 4
 388 389 383 391 383 403 c 4
 383 417 391 419 416 419 c 4
 481 419 l 4
 495 419 505 413 505 393 c 4
0 -163 m 0
 0 395 l 0
 0 409 6 419 21 419 c 0
 98 419 l 0
 117 419 122 414 122 404 c 0
 122 388 114 388 89 388 c 0
 55 388 l 0
 35 388 31 386 31 365 c 0
 31 -130 l 0
 31 -154 33 -159 53 -159 c 0
 98 -159 l 0
 117 -159 122 -161 122 -173 c 0
 122 -187 114 -189 89 -189 c 0
 24 -189 l 0
 10 -189 0 -183 0 -163 c 0
387 37 m 0xd8
 387 57 377 76 356 76 c 0
 338 76 324 68 316 55 c 0
 305 38 304 11 304 -20 c 3
 304 -43 309 -47 316 -47 c 3
 334 -47 387 -4 387 37 c 0xd8
379 110 m 0
 412 110 435 86 435 50 c 0
 435 7 408 -20 376 -45 c 0
 349 -66 328 -83 308 -102 c 0
 294 -115 277 -116 276 -93 c 2
 275 -73 l 2xd8
 271 158 269 249 269 313 c 3
 269 327 275 331 285 331 c 2
 303 331 l 2
 313 331 318 326 318 313 c 3xe8
 318 278 314 194 314 120 c 0
 314 90 325 96 344 103 c 0
 361 109 368 110 379 110 c 0
206 37 m 0xd8
 206 57 196 76 175 76 c 0
 157 76 143 68 135 55 c 0
 124 38 123 11 123 -20 c 3
 123 -43 128 -47 135 -47 c 3
 153 -47 206 -4 206 37 c 0xd8
198 110 m 0
 231 110 254 86 254 50 c 0
 254 7 227 -20 195 -45 c 0
 168 -66 147 -83 127 -102 c 0
 113 -115 96 -116 95 -93 c 2
 94 -73 l 2xd8
 90 158 88 249 88 313 c 3
 88 327 94 331 104 331 c 2
 122 331 l 2
 132 331 137 326 137 313 c 3xe8
 137 278 133 194 133 120 c 0
 133 90 144 96 163 103 c 0
 180 109 187 110 198 110 c 0
EndSplineSet
EndChar

StartChar: l
Encoding: 108 108 31
Width: 341
VWidth: 0
Flags: HMW
LayerCount: 3
Fore
SplineSet
341 141 m 0
 341 -143 l 0
 341 -157 335 -167 320 -167 c 0
 263 -167 l 0
 244 -167 239 -162 239 -152 c 0
 239 -136 247 -136 272 -136 c 0
 286 -136 l 0
 306.001 -136 310 -134 310 -113 c 0
 310 108 l 0
 310 132 308 137 288 137 c 0
 263 137 l 0
 244 137 239 139 239 151 c 0
 239 165 247 167 272 167 c 0
 317 167 l 0
 330.999 167 341 161 341 141 c 0
0 -141 m 0
 0 143 l 0
 0 157 6 167 21 167 c 0
 78 167 l 0
 97 167 102 162 102 152 c 0
 102 136 94 136 69 136 c 0
 55 136 l 0
 34.999 136 31 134 31 113 c 0
 31 -108 l 0
 31 -132 33 -137 53 -137 c 0
 78 -137 l 0
 97 -137 102 -139 102 -151 c 0
 102 -165 94 -167 69 -167 c 0
 24 -167 l 0
 10.001 -167 0 -161 0 -141 c 0
116 -86 m 0
 122 -86 129 -88 134 -88 c 0
 142 -88 143 -82 145 -64 c 0
 147 -43 157 -25 171 -25 c 0
 185 -25 195 -44 197 -65 c 0
 199 -82 200 -88 207 -88 c 0
 213 -88 220 -86 226 -86 c 0
 234 -86 244 -89 252 -89 c 0
 258 -89 259 -86 259 -80 c 0
 259 -72 256 -63 256 -55 c 0
 256 -49 258 -42 258 -37 c 0
 258 -29 253 -28 235 -26 c 0
 214 -24 195 -14 195 0 c 0
 195 14 215 24 236 26 c 0
 253 28 258 29 258 37 c 0
 258 42 256 49 256 55 c 0
 256 63 259 72 259 80 c 0
 259 86 258 89 252 89 c 0
 244 89 234 86 226 86 c 0
 220 86 213 88 207 88 c 0
 200 88 199 82 197 64 c 0
 195 43 185 25 171 25 c 0
 157 25 147 44 145 65 c 0
 143 82 142 88 134 88 c 0
 129 88 122 86 116 86 c 0
 108 86 98 89 90 89 c 0
 84 89 82 86 82 80 c 0
 82 72 85 63 85 55 c 0
 85 49 84 42 84 37 c 0
 84 29 88 28 106 26 c 0
 127 24 146 14 146 0 c 0
 146 -14 127 -24 106 -26 c 0
 89 -28 84 -29 84 -37 c 0
 84 -42 85 -49 85 -55 c 0
 85 -63 82 -72 82 -80 c 0
 82 -86 84 -89 90 -89 c 0
 98 -89 108 -86 116 -86 c 0
EndSplineSet
EndChar

StartChar: m
Encoding: 109 109 32
Width: 485
VWidth: 0
Flags: HMW
HStem: 76 34<129.847 193.023> 311 20G<91 119>
VStem: 80 49<101.394 331> 86 29<-46.997 54.1958> 198 48<-9.57345 74.6198>
LayerCount: 3
Fore
SplineSet
0 -235 m 0
 0 344 l 0
 0 358 6 368 21 368 c 0
 98 368 l 0
 117 368 122 363 122 353 c 0
 122 337 114 337 89 337 c 0
 55 337 l 0
 35 337 31 335 31 314 c 0
 31 -202 l 0
 31 -226 33 -231 53 -231 c 0
 98 -231 l 0
 117 -231 122 -233 122 -245 c 0
 122 -259 114 -261 89 -261 c 0
 24 -261 l 0
 10 -261 0 -255 0 -235 c 0
485 342 m 4
 485 -237 l 4
 485 -251 479 -261 464 -261 c 4
 387 -261 l 4
 368 -261 363 -256 363 -246 c 4
 363 -230 371 -230 396 -230 c 4
 430 -230 l 4
 450 -230 454 -228 454 -207 c 4
 454 309 l 4
 454 333 452 338 432 338 c 4
 387 338 l 4
 368 338 363 340 363 352 c 4
 363 366 371 368 396 368 c 4
 461 368 l 4
 475 368 485 362 485 342 c 4
367 37 m 0xd8
 367 57 357 76 336 76 c 0
 318 76 304 68 296 55 c 0
 285 38 284 11 284 -20 c 3
 284 -43 289 -47 296 -47 c 3
 314 -47 367 -4 367 37 c 0xd8
359 110 m 0
 392 110 415 86 415 50 c 0
 415 7 388 -20 356 -45 c 0
 329 -66 308 -83 288 -102 c 0
 274 -115 257 -116 256 -93 c 2
 255 -73 l 2xd8
 251 158 249 249 249 313 c 3
 249 327 255 331 265 331 c 2
 283 331 l 2
 293 331 298 326 298 313 c 3xe8
 298 278 294 194 294 120 c 0
 294 90 305 96 324 103 c 0
 341 109 348 110 359 110 c 0
99 282 m 0
 113 282 117 279 117 264 c 3
 117 228 114 175 114 139 c 3
 114 114 122 112 143 118 c 2
 192 132 l 2
 218 139 224 135 224 110 c 3
 224 56 223 26 223 -28 c 11
 223 -121 226 -210 226 -266 c 3
 226 -278 224 -282 208 -282 c 3
 193 -282 189 -277 189 -267 c 3
 189 -228 192 -176 192 -138 c 3
 192 -112 182 -113 163 -118 c 2
 110 -132 l 2
 86 -137 82 -132 82 -107 c 3
 82 -70 83 -24 83 30 c 27
 83 122 80 230 80 265 c 3
 80 279 83 282 99 282 c 0
114 21 m 2
 114 -49 l 2
 114 -66 124 -67 137 -65 c 2
 169 -57 l 2
 188 -51 192 -44 192 -27 c 2
 192 46 l 2
 192 68 183 68 166 65 c 2
 136 57 l 2
 115 51 114 42 114 21 c 2
EndSplineSet
EndChar

StartChar: n
Encoding: 110 110 33
Width: 533
VWidth: 0
Flags: HMW
LayerCount: 3
Fore
SplineSet
533 329 m 0
 533 -298 l 0
 533 -312 527 -322 512 -322 c 0
 435 -322 l 0
 416 -322 411 -317 411 -307 c 0
 411 -291 419 -291 444 -291 c 0
 478 -291 l 0
 498 -291 502 -289 502 -268 c 0
 502 296 l 0
 502 320 500 325 480 325 c 0
 435 325 l 0
 416 325 411 327 411 339 c 0
 411 353 419 355 444 355 c 0
 509 355 l 0
 523 355 533 349 533 329 c 0
0 -296 m 0
 0 331 l 0
 0 345 6 355 21 355 c 0
 98 355 l 0
 117 355 122 350 122 340 c 0
 122 324 114 324 89 324 c 0
 55 324 l 0
 35 324 31 322 31 301 c 0
 31 -263 l 0
 31 -287 33 -292 53 -292 c 0
 98 -292 l 0
 117 -292 122 -294 122 -306 c 0
 122 -320 114 -322 89 -322 c 0
 24 -322 l 0
 10 -322 0 -316 0 -296 c 0
287 8 m 2
 287 43 254 11 254 39 c 2
 254 67 l 2
 254 92 287 78 287 114 c 3
 287 155 284 189 284 223 c 3
 284 235 286 238 302 238 c 3
 319 238 319 234 319 222 c 3
 319 191 318 159 318 125 c 3
 318 109 323 102 337 106 c 2
 365 113 l 2
 374 115 385 120 385 140 c 3
 385 176 384 213 384 240 c 3
 384 259 387 260 400 260 c 3
 418 260 419 257 419 242 c 3
 419 223 416 180 416 145 c 3
 416 116 449 152 449 114 c 2
 449 92 l 2
 449 66 416 81 416 47 c 2
 416 -9 l 2
 416 -43 449 -11 449 -39 c 2
 449 -67 l 2
 449 -92 416 -78 416 -114 c 3
 416 -155 419 -189 419 -223 c 3
 419 -235 417 -238 401 -238 c 3
 384 -238 384 -234 384 -222 c 3
 384 -191 385 -159 385 -125 c 3
 385 -109 380 -102 366 -106 c 2
 338 -113 l 2
 329 -115 318 -121 318 -140 c 3
 318 -176 319 -213 319 -240 c 3
 319 -259 316 -260 303 -260 c 3
 285 -260 284 -257 284 -242 c 3
 284 -223 287 -180 287 -145 c 3
 287 -115 254 -150 254 -116 c 2
 254 -92 l 2
 254 -67 287 -81 287 -47 c 2
 287 8 l 2
385 34 m 2
 385 50 380 58 366 54 c 2
 338 46 l 2
 328 43 318 38 318 19 c 2
 318 -34 l 2
 318 -51 324 -58 337 -54 c 2
 365 -46 l 2
 376 -43 385 -39 385 -19 c 2
 385 34 l 2
99 282 m 0
 113 282 117 279 117 264 c 3
 117 228 114 175 114 139 c 3
 114 114 122 112 143 118 c 2
 192 132 l 2
 218 139 224 135 224 110 c 3
 224 56 223 26 223 -28 c 11
 223 -121 226 -210 226 -266 c 3
 226 -278 224 -282 208 -282 c 3
 193 -282 189 -277 189 -267 c 3
 189 -228 192 -176 192 -138 c 3
 192 -112 182 -113 163 -118 c 2
 110 -132 l 2
 86 -137 82 -132 82 -107 c 3
 82 -70 83 -24 83 30 c 27
 83 122 80 230 80 265 c 3
 80 279 83 282 99 282 c 0
114 21 m 2
 114 -49 l 2
 114 -66 124 -67 137 -65 c 2
 169 -57 l 2
 188 -51 192 -44 192 -27 c 2
 192 46 l 2
 192 68 183 68 166 65 c 2
 136 57 l 2
 115 51 114 42 114 21 c 2
EndSplineSet
EndChar

StartChar: cedilla
Encoding: 184 184 40
Width: 218
VWidth: -9
Flags: HMW
LayerCount: 3
Fore
SplineSet
153 51 m 0
 153 80 142 104 110 104 c 0
 86 104 66 92 57 71 c 0
 46 44 45 2 45 -45 c 3
 45 -81 51 -93 61 -93 c 3
 86 -93 153 -27 153 51 c 0
142 153 m 0
 185 153 218 117 218 75 c 0
 218 13 193 -27 147 -66 c 0
 110 -98 90 -119 62 -146 c 0
 42 -165 18 -182 16 -133 c 2
 15 -104 l 2
 9 226 0 360 0 452 c 3
 0 472 6 473 20 473 c 2
 45 473 l 2
 59 473 64 470 64 452 c 7
 64 402 59 270 59 165 c 0
 59 117 72 124 103 141 c 0
 115 148 127 153 142 153 c 0
EndSplineSet
EndChar

StartChar: uni00B9
Encoding: 185 185 41
Width: 218
VWidth: -9
Flags: HMW
LayerCount: 3
Fore
SplineSet
142 153 m 0
 185 153 218 117 218 75 c 0
 218 13 193 -27 147 -66 c 0
 110 -98 90 -119 62 -146 c 0
 42 -165 18 -182 16 -133 c 2
 15 -104 l 2
 9 226 0 360 0 452 c 3
 0 472 6 473 20 473 c 2
 45 473 l 2
 59 473 64 470 64 452 c 3
 64 402 59 270 59 165 c 0
 59 117 72 124 103 141 c 0
 115 148 127 153 142 153 c 0
EndSplineSet
EndChar

StartChar: ordmasculine
Encoding: 186 186 42
Width: 218
VWidth: -9
Flags: HMW
LayerCount: 3
Fore
SplineSet
65 51 m 0
 65 -27 132 -93 157 -93 c 3
 167 -93 173 -81 173 -45 c 3
 173 2 172 44 161 71 c 0
 152 92 132 104 108 104 c 0
 76 104 65 80 65 51 c 0
76 153 m 0
 91 153 103 148 115 141 c 0
 146 124 159 117 159 165 c 0
 159 270 154 402 154 452 c 3
 154 470 159 473 173 473 c 2
 198 473 l 2
 212 473 218 472 218 452 c 3
 218 360 209 226 203 -104 c 2
 202 -133 l 2
 200 -182 176 -165 156 -146 c 0
 128 -119 108 -98 71 -66 c 0
 25 -27 0 13 0 75 c 0
 0 117 33 153 76 153 c 0
EndSplineSet
EndChar

StartChar: guillemotright
Encoding: 187 187 43
Width: 218
VWidth: -9
Flags: HMW
LayerCount: 3
Fore
SplineSet
76 153 m 0
 91 153 103 148 115 141 c 0
 146 124 159 117 159 165 c 0
 159 270 154 402 154 452 c 3
 154 470 159 473 173 473 c 2
 198 473 l 2
 212 473 218 472 218 452 c 3
 218 360 209 226 203 -104 c 2
 202 -133 l 2
 200 -182 176 -165 156 -146 c 0
 128 -119 108 -98 71 -66 c 0
 25 -27 0 13 0 75 c 0
 0 117 33 153 76 153 c 0
EndSplineSet
EndChar

StartChar: onequarter
Encoding: 188 188 44
Width: 377
VWidth: -9
Flags: HMW
LayerCount: 3
Fore
SplineSet
76 153 m 0
 91 153 105 148 117 141 c 0
 148 124 162 117 162 165 c 0
 162 270 157 402 157 452 c 0
 157 470 162 473 176 473 c 2
 201 473 l 2
 215 473 220 470 220 452 c 0
 220 402 215 270 215 165 c 0
 215 117 229 124 260 141 c 0
 272 148 286 153 301 153 c 0
 344 153 377 117 377 75 c 0
 377 13 351.614 -26.5497 306 -66 c 0
 269 -98 249.201 -119.21 221 -146 c 0
 194.838 -170.854 182.197 -170.887 156 -146 c 0
 127.799 -119.21 108 -98 71 -66 c 0
 25.3856 -26.5497 0 13 0 75 c 0
 0 117 33 153 76 153 c 0
65 51 m 0
 65 -27 132 -93 157 -93 c 0
 167 -93 173 -81 173 -45 c 0
 173 2 172 44 161 71 c 0
 152 92 132 104 108 104 c 0
 76 104 65 80 65 51 c 0
312 51 m 0
 312 80 301 104 269 104 c 0
 245 104 225 92 216 71 c 0
 205 44 204 2 204 -45 c 0
 204 -81 210 -93 220 -93 c 0
 245 -93 312 -27 312 51 c 0
EndSplineSet
EndChar

StartChar: onehalf
Encoding: 189 189 45
Width: 339
VWidth: -9
Flags: HMW
LayerCount: 3
Fore
SplineSet
66 145 m 0
 80 145 93 141 105 136 c 0
 136 124 143 129 143 158 c 0
 143 263 138 402 138 452 c 0
 138 470 143 473 157 473 c 2
 182 473 l 2
 196 473 201 470 201 452 c 0
 201 402 196 263 196 158 c 0
 196 124 207 125 234 136 c 0
 246 141 259 145 273 145 c 0
 311 145 339 114 339 72 c 0
 339 10 316 -28 275 -67 c 0
 242 -99 220 -119 195 -146 c 0
 171 -171 168 -171 144 -146 c 0
 119 -119 97 -99 64 -67 c 0
 23 -28 0 9 0 71 c 0
 0 113 28 145 66 145 c 0
58 51 m 0
 58 -27 119 -86 138 -86 c 0
 148 -86 154 -71 154 -35 c 0
 154 12 153 44 142 71 c 0
 133 92 114 104 92 104 c 0
 67 104 58 80 58 51 c 0
281 51 m 0
 281 80 271 104 247 104 c 0
 225 104 206 92 197 71 c 0
 186 44 185 12 185 -35 c 0
 185 -71 191 -86 201 -86 c 0
 221 -86 281 -27 281 51 c 0
EndSplineSet
EndChar

StartChar: threequarters
Encoding: 190 190 46
Width: 339
VWidth: -9
Flags: HMW
LayerCount: 3
Fore
SplineSet
66 145 m 0
 80 145 93 141 105 136 c 0
 136 124 143 129 143 158 c 0
 143 263 138 402 138 452 c 0
 138 470 143 473 157 473 c 2
 182 473 l 2
 196 473 201 470 201 452 c 0
 201 402 196 263 196 158 c 0
 196 124 207 125 234 136 c 0
 246 141 259 145 273 145 c 0
 311 145 339 114 339 72 c 0
 339 10 316 -28 275 -67 c 0
 242 -99 220 -119 195 -146 c 0
 171 -171 168 -171 144 -146 c 0
 119 -119 97 -99 64 -67 c 0
 23 -28 0 9 0 71 c 0
 0 113 28 145 66 145 c 0
281 51 m 0
 281 80 271 104 247 104 c 0
 225 104 206 92 197 71 c 0
 186 44 185 12 185 -35 c 0
 185 -71 191 -86 201 -86 c 0
 221 -86 281 -27 281 51 c 0
EndSplineSet
EndChar

StartChar: Agrave
Encoding: 192 192 47
Width: 267
VWidth: -9
Flags: HMW
LayerCount: 3
Fore
SplineSet
191 153 m 0
 234 153 267 117 267 75 c 0
 267 13 242 -27 196 -66 c 0
 159 -98 139 -119 111 -146 c 0
 91 -165 67 -182 65 -133 c 2
 64 -104 l 1
 59 189 57 328 56 419 c 0
 56 449 45 455 21 443 c 0
 15 439 10 437 6 437 c 0
 4 437 0 439 0 444 c 0
 0 454 10 463 44 522 c 0
 72 571 74 591 84 591 c 0
 98 591 94 572 124 521 c 0
 156 468 166 456 166 444 c 0
 166 438 160 437 158 437 c 0
 152 437 145 440 138 444 c 0
 115 457 109 450 109 420 c 0
 109 358 108 252 108 165 c 0
 108 117 121 124 152 141 c 0
 164 148 176 153 191 153 c 0
202 51 m 0
 202 80 191 104 159 104 c 0
 135 104 115 92 106 71 c 0
 95 44 94 2 94 -45 c 0
 94 -81 100 -93 110 -93 c 0
 135 -93 202 -27 202 51 c 0
EndSplineSet
EndChar

StartChar: Aacute
Encoding: 193 193 48
Width: 268
VWidth: -9
Flags: HMW
LayerCount: 3
Fore
SplineSet
192 153 m 0
 235 153 268 117 268 75 c 0
 268 13 243 -27 197 -66 c 0
 172 -88 154 -105 137 -122 c 0
 126 -133 110 -143 103 -167 c 0
 93 -202 132 -183 148 -175 c 0
 153 -172 157 -171 160 -171 c 0
 162 -171 166 -173 166 -178 c 0
 166 -188 156 -197 122 -256 c 0
 94 -305 92 -325 82 -325 c 0
 68 -325 72 -306 42 -255 c 0
 10 -202 0 -190 0 -178 c 0
 0 -172 6 -171 8 -171 c 0
 13 -171 18 -173 23 -176 c 0
 43 -186 67 -200 67 -160 c 0
 67 -150 66 -140 66 -133 c 2
 65 -104 l 2
 59 226 50 360 50 452 c 0
 50 472 56 473 70 473 c 2
 95 473 l 2
 109 473 114 470 114 452 c 0
 114 402 109 270 109 165 c 0
 109 117 122 124 153 141 c 0
 165 148 177 153 192 153 c 0
203 51 m 0
 203 80 192 104 160 104 c 0
 136 104 116 92 107 71 c 0
 96 44 95 2 95 -45 c 0
 95 -81 101 -93 111 -93 c 0
 136 -93 203 -27 203 51 c 0
EndSplineSet
EndChar

StartChar: Acircumflex
Encoding: 194 194 49
Width: 318
VWidth: -9
Flags: HMW
LayerCount: 3
Fore
SplineSet
242 153 m 0
 285 153 318 117 318 75 c 0
 318 13 293 -27 247 -66 c 0
 210 -98 190 -119 162 -146 c 0
 142 -165 118 -182 116 -133 c 2
 115 -104 l 1
 112 66 108 184 105 271 c 0
 104 305 92 313 66 305 c 2
 38 296 l 2
 8 286 0 280 0 310 c 0
 0 317 4 326 22 332 c 2
 48 340 l 2
 92 355 101 360 100 422 c 0
 100 433 100 443 100 452 c 0
 100 472 106 473 120 473 c 2
 145 473 l 2
 159 473 164 470 164 452 c 0
 164 444 164 435 164 424 c 0
 163 387 176 382 196 389 c 2
 228 399 l 2
 251 406 266 414 266 389 c 0
 266 379 264 369 242 362 c 2
 198 348 l 2
 174 340 162 332 161 298 c 0
 160 254 159 207 159 165 c 0
 159 117 172 124 203 141 c 0
 215 148 227 153 242 153 c 0
253 51 m 0
 253 80 242 104 210 104 c 0
 186 104 166 92 157 71 c 0
 146 44 145 2 145 -45 c 0
 145 -81 151 -93 161 -93 c 0
 186 -93 253 -27 253 51 c 0
EndSplineSet
EndChar

StartChar: Atilde
Encoding: 195 195 50
Width: 222
VWidth: 0
Flags: HMW
LayerCount: 3
Fore
SplineSet
131 -105 m 2
 157 -94 l 2
 181 -84 185 -79 185 -41 c 2
 185 74 l 2
 185 104 183 118 150 104 c 2
 130 96 l 2
 101 84 97 82 97 42 c 2
 97 -78 l 2
 97 -113 103 -116 131 -105 c 2
166 364 m 0
 166 358 160 357 158 357 c 0
 153 357 147 359 141 363 c 0
 119 374 105 373 105 340 c 0
 105 293 104 261 104 208 c 0
 104 174 111 171 139 182 c 2
 171 195 l 2
 213 212 219 209 219 163 c 0
 219 89 218 47 218 -27 c 0
 218 -163 222 -239 222 -375 c 0
 222 -391 221 -394 198 -394 c 0
 180 -394 177 -391 177 -376 c 0
 177 -316 178 -273 178 -206 c 0
 178 -170 169 -171 143 -182 c 2
 109 -196 l 2
 68 -212 63 -210 63 -164 c 0
 63 -103 64 28 64 28 c 2
 64 154 60 229 60 348 c 0
 60 380 44 375 23 364 c 0
 16 360 10 357 6 357 c 0
 4 357 0 359 0 364 c 0
 0 374 10 383 44 442 c 0
 72 491 74 511 84 511 c 0
 98 511 94 492 124 441 c 0
 156 388 166 376 166 364 c 0
EndSplineSet
EndChar

StartChar: Adieresis
Encoding: 196 196 51
Width: 222
VWidth: 0
Flags: HMW
LayerCount: 3
Fore
SplineSet
91 105 m 2
 65 94 l 2
 41 84 37 79 37 41 c 2
 37 -74 l 2
 37 -104 39 -118 72 -104 c 2
 92 -96 l 2
 121 -84 125 -82 125 -42 c 2
 125 78 l 2
 125 113 119 116 91 105 c 2
56 -364 m 0
 56 -358 62 -357 64 -357 c 0
 69 -357 75 -359 81 -363 c 0
 103 -374 117 -373 117 -340 c 0
 117 -293 118 -261 118 -208 c 0
 118 -174 111 -171 83 -182 c 2
 51 -195 l 2
 9 -212 3 -209 3 -163 c 0
 3 -89 4 -47 4 27 c 0
 4 163 0 239 0 375 c 0
 0 391 1 394 24 394 c 0
 42 394 45 391 45 376 c 0
 45 316 44 273 44 206 c 0
 44 170 53 171 79 182 c 2
 113 196 l 2
 154 212 159 210 159 164 c 0
 159 103 158 -28 158 -28 c 2
 158 -154 162 -229 162 -348 c 0
 162 -380 178 -375 199 -364 c 0
 206 -360 212 -357 216 -357 c 0
 218 -357 222 -359 222 -364 c 0
 222 -374 212 -383 178 -442 c 0
 150 -491 148 -511 138 -511 c 0
 124 -511 128 -492 98 -441 c 0
 66 -388 56 -376 56 -364 c 0
EndSplineSet
EndChar

StartChar: Aring
Encoding: 197 197 52
Width: 270
VWidth: 0
Flags: HW
VStem: 112 34<-109.34 89.0581 176.665 249.813> 226 44<-393.991 -177.045> 234 34<-88.6519 108.798>
LayerCount: 3
Fore
SplineSet
180 -105 m 2xa0
 206 -94 l 2
 229 -84 234 -79 234 -41 c 2
 234 74 l 2
 234 104 232 118 198 104 c 2
 178 96 l 2
 150 84 146 82 146 42 c 2
 146 -78 l 2
 146 -113 152 -116 180 -105 c 2xa0
132 395 m 0
 152 395 153 394 153 372 c 2
 153 353 l 2
 153 323 170 323 191 330 c 2
 216 338 l 2
 238 345 254 353 254 328 c 0
 254 318 251 308 230 301 c 2
 190 288 l 2
 153 276 152 253 152 208 c 0
 152 174 160 171 188 182 c 2
 220 195 l 2
 262 212 268 209 268 163 c 0xa0
 268 89 266 47 266 -27 c 0
 266 -163 270 -239 270 -375 c 0
 270 -391 270 -394 246 -394 c 0
 228 -394 226 -391 226 -376 c 0
 226 -316 226 -273 226 -206 c 0xc0
 226 -170 218 -171 192 -182 c 2
 158 -196 l 2
 116 -212 112 -210 112 -164 c 0
 112 28 l 2
 112 103 111 160 110 218 c 0
 110 253 94 256 64 247 c 2
 38 239 l 2
 8 229 0 223 0 253 c 0
 0 260 4 269 22 275 c 2
 62 288 l 2
 98 300 109 305 109 345 c 2
 109 376 l 2
 109 393 112 395 132 395 c 0
EndSplineSet
EndChar

StartChar: Ccedilla
Encoding: 199 199 53
Width: 1000
VWidth: 0
Flags: HW
LayerCount: 3
Fore
SplineSet
-61.5 296 m 2
 -91.5781 286.245 -99.5 280.23 -99.5 310 c 0
 -99.5 317 -95.541 326.118 -77.5 332 c 2
 128 399 l 2
 150.555 406.28 166 414 166 389 c 0
 166 379 164 369 142 362 c 2
 -61.5 296 l 2
200 489 m 4
 200 483 194 482 192 482 c 4
 174 482 152 510 116 510 c 4
 82 510 54 482 40 482 c 4
 38 482 34 484 34 489 c 4
 34 499 44 508 78 567 c 4
 106 616 108 636 118 636 c 4
 132 636 128 617 158 566 c 4
 190 513 200 501 200 489 c 4
EndSplineSet
EndChar

StartChar: at
Encoding: 64 64 55
Width: 510
VWidth: 0
Flags: HMW
LayerCount: 3
Fore
SplineSet
472 0 m 0
 472 190 372 284 372 303 c 0
 372 310 372 313 380 313 c 0
 401 313 510 160 510 0 c 0
 510 -160 401 -313 380 -313 c 0
 372 -313 372 -310 372 -303 c 0
 372 -284 472 -190 472 0 c 0
38 0 m 0
 38 -190 138 -284 138 -303 c 0
 138 -310 138 -313 130 -313 c 0
 109 -313 0 -160 0 0 c 0
 0 160 109 313 130 313 c 0
 138 313 138 310 138 303 c 0
 138 284 38 190 38 0 c 0
197 395 m 3
 217 395 219 394 219 372 c 3
 219 305 218 272 218 208 c 3
 218 174 225 171 253 182 c 2
 285 195 l 2
 327 212 333 209 333 163 c 3
 333 89 332 47 332 -27 c 27
 332 -163 336 -239 336 -375 c 3
 336 -391 335 -394 312 -394 c 3
 294 -394 291 -391 291 -376 c 3
 291 -316 292 -273 292 -206 c 3
 292 -170 283 -171 257 -182 c 2
 223 -196 l 2
 182 -212 177 -210 177 -164 c 3
 177 -103 178 28 178 28 c 11
 178 164 174 240 174 376 c 3
 174 393 177 395 197 395 c 3
245 -105 m 2
 271 -94 l 2
 295 -84 299 -79 299 -41 c 2
 299 74 l 2
 299 104 297 118 264 104 c 2
 244 96 l 2
 215 84 211 82 211 42 c 2
 211 -78 l 2
 211 -113 217 -116 245 -105 c 2
EndSplineSet
EndChar

StartChar: asciicircum
Encoding: 94 94 56
Width: 369
VWidth: 0
Flags: HMW
LayerCount: 3
Fore
SplineSet
207 8 m 2
 207 43 174 11 174 39 c 2
 174 67 l 2
 174 92 207 78 207 114 c 3
 207 155 204 189 204 223 c 3
 204 235 206 238 222 238 c 3
 239 238 239 234 239 222 c 3
 239 191 238 159 238 125 c 3
 238 109 243 102 257 106 c 2
 285 113 l 2
 294 115 305 120 305 140 c 3
 305 176 304 213 304 240 c 3
 304 259 307 260 320 260 c 3
 338 260 339 257 339 242 c 3
 339 223 336 180 336 145 c 3
 336 116 369 152 369 114 c 2
 369 92 l 2
 369 66 336 81 336 47 c 2
 336 -9 l 2
 336 -43 369 -11 369 -39 c 2
 369 -67 l 2
 369 -92 336 -78 336 -114 c 3
 336 -155 339 -189 339 -223 c 3
 339 -235 337 -238 321 -238 c 3
 304 -238 304 -234 304 -222 c 3
 304 -191 305 -159 305 -125 c 3
 305 -109 300 -102 286 -106 c 2
 258 -113 l 2
 249 -115 238 -121 238 -140 c 3
 238 -176 239 -213 239 -240 c 3
 239 -259 236 -260 223 -260 c 3
 205 -260 204 -257 204 -242 c 3
 204 -223 207 -180 207 -145 c 3
 207 -115 174 -150 174 -116 c 2
 174 -92 l 2
 174 -67 207 -81 207 -47 c 2
 207 8 l 2
305 34 m 2
 305 50 300 58 286 54 c 2
 258 46 l 2
 248 43 238 38 238 19 c 2
 238 -34 l 2
 238 -51 244 -58 257 -54 c 2
 285 -46 l 2
 296 -43 305 -39 305 -19 c 2
 305 34 l 2
19 282 m 0
 33 282 37 279 37 264 c 3
 37 228 34 175 34 139 c 3
 34 114 42 112 63 118 c 2
 112 132 l 2
 138 139 144 135 144 110 c 3
 144 56 143 26 143 -28 c 11
 143 -121 146 -210 146 -266 c 3
 146 -278 144 -282 128 -282 c 3
 113 -282 109 -277 109 -267 c 3
 109 -228 112 -176 112 -138 c 3
 112 -112 102 -113 83 -118 c 2
 30 -132 l 2
 6 -137 2 -132 2 -107 c 3
 2 -70 3 -24 3 30 c 27
 3 122 0 230 0 265 c 3
 0 279 3 282 19 282 c 0
34 21 m 2
 34 -49 l 2
 34 -66 44 -67 57 -65 c 2
 89 -57 l 2
 108 -51 112 -44 112 -27 c 2
 112 46 l 2
 112 68 103 68 86 65 c 2
 56 57 l 2
 35 51 34 42 34 21 c 2
EndSplineSet
EndChar

StartChar: backslash
Encoding: 92 92 57
Width: 177
VWidth: 0
Flags: HMW
LayerCount: 3
Fore
SplineSet
34 -86 m 0
 40 -86 47 -88 52 -88 c 0
 60 -88 61 -82 63 -64 c 0
 65 -43 75 -25 89 -25 c 0
 103 -25 113 -44 115 -65 c 0
 117 -82 118 -88 125 -88 c 0
 131 -88 138 -86 144 -86 c 0
 152 -86 162 -89 170 -89 c 0
 176 -89 177 -86 177 -80 c 0
 177 -72 174 -63 174 -55 c 0
 174 -49 176 -42 176 -37 c 0
 176 -29 171 -28 153 -26 c 0
 132 -24 113 -14 113 0 c 0
 113 14 133 24 154 26 c 0
 171 28 176 29 176 37 c 0
 176 42 174 49 174 55 c 0
 174 63 177 72 177 80 c 0
 177 86 176 89 170 89 c 0
 162 89 152 86 144 86 c 0
 138 86 131 88 125 88 c 0
 118 88 117 82 115 64 c 0
 113 43 103 25 89 25 c 0
 75 25 65 44 63 65 c 0
 61 82 60 88 52 88 c 0
 47 88 40 86 34 86 c 0
 26 86 16 89 8 89 c 0
 2 89 0 86 0 80 c 0
 0 72 3 63 3 55 c 0
 3 49 2 42 2 37 c 0
 2 29 6 28 24 26 c 0
 45 24 64 14 64 0 c 0
 64 -14 45 -24 24 -26 c 0
 7 -28 2 -29 2 -37 c 0
 2 -42 3 -49 3 -55 c 0
 3 -63 0 -72 0 -80 c 0
 0 -86 2 -89 8 -89 c 0
 16 -89 26 -86 34 -86 c 0
EndSplineSet
EndChar

StartChar: bracketright
Encoding: 93 93 58
Width: 335
VWidth: 0
Flags: MW
HStem: 76 34<49.8472 113.023> 311 20G<11 39>
VStem: 0 49<101.394 331> 6 29<-46.997 54.1958> 118 48<-9.57345 74.6198>
LayerCount: 3
Fore
SplineSet
287 37 m 0xd8
 287 57 277 76 256 76 c 0
 238 76 224 68 216 55 c 0
 205 38 204 11 204 -20 c 3
 204 -43 209 -47 216 -47 c 3
 234 -47 287 -4 287 37 c 0xd8
279 110 m 0
 312 110 335 86 335 50 c 0
 335 7 308 -20 276 -45 c 0
 249 -66 228 -83 208 -102 c 0
 194 -115 177 -116 176 -93 c 2
 175 -73 l 2xd8
 171 158 169 249 169 313 c 3
 169 327 175 331 185 331 c 2
 203 331 l 2
 213 331 218 326 218 313 c 3xe8
 218 278 214 194 214 120 c 0
 214 90 225 96 244 103 c 0
 261 109 268 110 279 110 c 0
19 282 m 0
 33 282 37 279 37 264 c 3
 37 228 34 175 34 139 c 3
 34 114 42 112 63 118 c 2
 112 132 l 2
 138 139 144 135 144 110 c 3
 144 56 143 26 143 -28 c 11
 143 -121 146 -210 146 -266 c 3
 146 -278 144 -282 128 -282 c 3
 113 -282 109 -277 109 -267 c 3
 109 -228 112 -176 112 -138 c 3
 112 -112 102 -113 83 -118 c 2
 30 -132 l 2
 6 -137 2 -132 2 -107 c 3
 2 -70 3 -24 3 30 c 27
 3 122 0 230 0 265 c 3
 0 279 3 282 19 282 c 0
34 21 m 2
 34 -49 l 2
 34 -66 44 -67 57 -65 c 2
 89 -57 l 2
 108 -51 112 -44 112 -27 c 2
 112 46 l 2
 112 68 103 68 86 65 c 2
 56 57 l 2
 35 51 34 42 34 21 c 2
EndSplineSet
EndChar

StartChar: kgreenlandic
Encoding: 312 312 59
Width: 167
VWidth: 0
Flags: W
HStem: -161 75<9.5 60.375> 87 74<107.906 158>
VStem: 3 29<-85.9963 59.6741 124.007 313.999> 132 35<-313.986 -126.007 -61.5988 86.9956>
LayerCount: 3
Fore
SplineSet
18 314 m 3
 31 314 35 312 35 301 c 3
 35 281 32 227 32 156 c 3
 32 133 36 124 47 124 c 0
 51 124 56 126 62 128 c 2
 139 157 l 2
 145 159 150 161 154 161 c 0
 162 161 166 156 166 143 c 3
 166 112 164 46 164 -16 c 3
 164 -109 167 -276 167 -298 c 3
 167 -312 163 -314 148 -314 c 3
 135 -314 132 -310 132 -303 c 3
 132 -276 135 -231 135 -163 c 3
 135 -135 133 -126 122 -126 c 0
 116 -126 109 -128 99 -131 c 2
 28 -157 l 2
 23 -159 18 -161 14 -161 c 0
 5 -161 2 -154 2 -139 c 3
 2 -76 3 -67 3 23 c 3
 3 147 0 280 0 303 c 3
 0 312 7 314 18 314 c 3
30 20 m 2
 30 -63 l 2
 30 -81 36 -86 44 -86 c 0
 51 -86 58 -83 65 -80 c 2
 112 -63 l 1
 136 -53 138 -44 138 -21 c 2
 138 66 l 2
 138 81 133 87 124 87 c 0
 120 87 115 85 109 83 c 2
 54 63 l 2
 33 55 30 49 30 20 c 2
EndSplineSet
EndChar

StartChar: Y
Encoding: 89 89 60
Width: 166
VWidth: -9
Flags: MW
HStem: 76 34<49.8472 113.023> 311 20G<11 39>
VStem: 0 49<101.394 331> 6 29<-46.997 54.1958> 118 48<-9.57345 74.6198>
LayerCount: 3
Fore
SplineSet
118 37 m 0xd8
 118 57 108 76 87 76 c 0
 69 76 55 68 47 55 c 0
 36 38 35 11 35 -20 c 3
 35 -43 40 -47 47 -47 c 3
 65 -47 118 -4 118 37 c 0xd8
110 110 m 0
 143 110 166 86 166 50 c 0
 166 7 139 -20 107 -45 c 0
 80 -66 59 -83 39 -102 c 0
 25 -115 8 -116 7 -93 c 2
 6 -73 l 2xd8
 2 158 0 249 0 313 c 3
 0 327 6 331 16 331 c 2
 34 331 l 2
 44 331 49 326 49 313 c 3xe8
 49 278 45 194 45 120 c 0
 45 90 56 96 75 103 c 0
 92 109 99 110 110 110 c 0
EndSplineSet
EndChar

StartChar: Z
Encoding: 90 90 61
Width: 195
VWidth: 0
Flags: HMW
LayerCount: 3
Fore
SplineSet
33 8 m 2
 33 43 0 11 0 39 c 2
 0 67 l 2
 0 92 33 78 33 114 c 3
 33 155 30 189 30 223 c 3
 30 235 32 238 48 238 c 3
 65 238 65 234 65 222 c 3
 65 191 64 159 64 125 c 3
 64 109 69 102 83 106 c 2
 111 113 l 2
 120 115 131 120 131 140 c 3
 131 176 130 213 130 240 c 3
 130 259 133 260 146 260 c 3
 164 260 165 257 165 242 c 3
 165 223 162 180 162 145 c 3
 162 116 195 152 195 114 c 2
 195 92 l 2
 195 66 162 81 162 47 c 2
 162 -9 l 2
 162 -43 195 -11 195 -39 c 2
 195 -67 l 2
 195 -92 162 -78 162 -114 c 3
 162 -155 165 -189 165 -223 c 3
 165 -235 163 -238 147 -238 c 3
 130 -238 130 -234 130 -222 c 3
 130 -191 131 -159 131 -125 c 3
 131 -109 126 -102 112 -106 c 2
 84 -113 l 2
 75 -115 64 -121 64 -140 c 3
 64 -176 65 -213 65 -240 c 3
 65 -259 62 -260 49 -260 c 3
 31 -260 30 -257 30 -242 c 3
 30 -223 33 -180 33 -145 c 3
 33 -115 0 -150 0 -116 c 2
 0 -92 l 2
 0 -67 33 -81 33 -47 c 2
 33 8 l 2
131 34 m 2
 131 50 126 58 112 54 c 2
 84 46 l 2
 74 43 64 38 64 19 c 2
 64 -34 l 2
 64 -51 70 -58 83 -54 c 2
 111 -46 l 2
 122 -43 131 -39 131 -19 c 2
 131 34 l 2
EndSplineSet
EndChar

StartChar: parenleft
Encoding: 40 40 62
Width: 245
Flags: MW
HStem: 97 9<65 80>
VStem: 0 52<239.572 474.973> 15 31<-134.452 56.9679 106.007 295.25> 168 77<-20.2335 90.0367>
LayerCount: 3
Fore
SplineSet
125 97 m 0xb0
 65 97 46 46 46 -35 c 2
 46 -83 l 2
 46 -149 60 -148 104 -107 c 0
 146 -67 168 -28 168 35 c 0
 168 66 156 97 125 97 c 0xb0
52 453 m 0xd0
 52 381 47 252 47 127 c 0
 47 116 50 106 58 106 c 0
 80 106 122 153 168 153 c 0
 218 153 245 117 245 74 c 0
 245 6 219 -47 165 -93 c 0
 50 -196 l 0
 41 -201 36 -208 26 -208 c 0
 16 -208 15 -196 15 -186 c 0xb0
 15 -73 14 -52 11 103 c 0
 7 217 0 384 0 456 c 0
 0 473 2 475 26 475 c 0
 48 475 52 474 52 453 c 0xd0
EndSplineSet
EndChar

StartChar: parenright
Encoding: 41 41 63
Width: 212
VWidth: 0
Flags: MW
HStem: -213 96<13 80.7812> 116 97<131.727 200>
VStem: 4 30<-116.965 73.7477 168.245 400.748> 171 41<-419.994 -223.197> 178 30<-403.295 -167.517 -73.3999 115.905>
LayerCount: 3
Fore
SplineSet
21 420 m 3xf0
 38 420 41 417 41 402 c 3
 41 376 37 304 37 209 c 3
 37 182 41 166 58 166 c 0
 64 166 72 168 82 172 c 2
 175 208 l 2
 183 211 190 213 195 213 c 0
 205 213 210 207 210 190 c 3
 210 149 208 60 208 -23 c 3xe8
 208 -147 212 -369 212 -399 c 3
 212 -418 210 -420 190 -420 c 3
 175 -420 171 -414 171 -405 c 3
 171 -369 175 -309 175 -219 c 3
 175 -183 173 -166 156 -166 c 0
 148 -166 137 -170 121 -176 c 2
 37 -208 l 2
 30 -211 24 -213 19 -213 c 0
 7 -213 2 -204 2 -184 c 3
 2 -100 4 -88 4 32 c 3
 4 197 0 375 0 406 c 3
 0 419 5 420 14 420 c 0
 16 420 18 420 21 420 c 3xf0
34 28 m 2
 34 -83 l 2
 34 -105 36 -117 50 -117 c 0
 56 -117 63 -115 73 -111 c 2
 139 -86 l 2
 171 -73 178 -64 178 -28 c 2
 178 88 l 2
 178 108 173 116 161 116 c 0
 154 116 146 114 135 110 c 2
 72 85 l 2
 40 73 34 67 34 28 c 2
EndSplineSet
EndChar

StartChar: exclam
Encoding: 33 33 64
Width: 201
VWidth: 0
Flags: W
HStem: -202 91<12.5 81.0312> 110 92<121.741 190>
VStem: 4 29<-110.992 70.6843 160.111 380.797> 161 40<-398.994 -212.01> 168 30<-383.389 -159.18 -70.3313 109.995>
LayerCount: 3
Fore
SplineSet
20 399 m 3xf0
 36 399 40 396 40 382 c 3
 40 357 36 289 36 199 c 3
 36 173 40 158 56 158 c 0
 62 158 68 160 78 163 c 2
 166 198 l 2
 174 200 180 202 185 202 c 0
 195 202 200 197 200 180 c 3
 200 142 198 57 198 -22 c 3xe8
 198 -140 201 -351 201 -379 c 3
 201 -397 200 -399 180 -399 c 3
 166 -399 161 -393 161 -385 c 3
 161 -351 165 -294 165 -208 c 3
 165 -174 163 -158 147 -158 c 0
 140 -158 130 -162 115 -167 c 2
 35 -198 l 2
 28 -200 23 -202 18 -202 c 0
 7 -202 2 -194 2 -175 c 3
 2 -95 4 -84 4 30 c 3
 4 187 0 356 0 386 c 3
 0 398 5 399 13 399 c 0
 15 399 17 399 20 399 c 3xf0
33 27 m 2
 33 -79 l 2
 33 -100 34 -111 48 -111 c 0
 53 -111 60 -109 69 -105 c 2
 132 -82 l 2
 162 -69 168 -61 168 -27 c 2
 168 84 l 2
 168 103 164 110 153 110 c 0
 146 110 139 108 128 104 c 2
 68.4004 80.75 l 2
 38 69.3496 33 64 33 27 c 2
EndSplineSet
EndChar

StartChar: quotedbl
Encoding: 34 34 65
Width: 237
VWidth: 0
Flags: HW
HStem: -192 73<0.0399628 41.9182> -140 73<195.214 237> 67 73<0 41.7831> 119 73<195.082 236.951>
VStem: 42 30<-381.983 -192.346 -99.5132 67.4337 158.866 356.996> 164 31<-356.996 -158.866 -67.0015 99.0018 192.346 381.98>
LayerCount: 3
Fore
SplineSet
72 -83 m 2x0c
 72 -94 74 -105 95 -99 c 2
 143 -87 l 2
 162 -81 164 -70 164 -57 c 2
 164 83 l 2
 164 94 162 105 142 99 c 2
 94 87 l 2
 74 81 72 70 72 57 c 2
 72 -83 l 2x0c
42 51 m 2
 42 65 39 72 19 67 c 0xac
 5 63 0 72 0 81 c 2
 0 119 l 2x1c
 0 130 4 136 19 140 c 0x2c
 37 145 42 153 42 166 c 0
 42 236 38 320 38 344 c 0
 38 353 42 357 57 357 c 0
 73 357 76 352 76 343 c 0
 76 320 72 235 72 182 c 0
 72 162 81 156 93 159 c 2
 135 171 l 2
 152 175 164 178 164 207 c 0
 164 270 161 343 161 370 c 0
 161 379 166 382 181 382 c 0
 197 382 199 376 199 368 c 0
 199 340 195 274 195 207 c 0
 195 192 202 188 215 192 c 0
 231 196 237 190 237 180 c 2
 237 143 l 2
 237 130 233 124 217 119 c 0
 200 115 195 111 195 94 c 2
 195 -51 l 2
 195 -65 198 -72 217 -67 c 0x5c
 231 -63 237 -72 237 -81 c 2
 237 -119 l 2x8c
 237 -130 232 -136 218 -140 c 0x4c
 200 -145 195 -153 195 -166 c 0
 195 -236 199 -320 199 -344 c 0
 199 -353 195 -357 180 -357 c 0
 164 -357 161 -352 161 -343 c 0
 161 -320 164 -235 164 -182 c 0
 164 -162 156 -156 144 -159 c 2
 101 -171 l 2
 85 -175 72 -178 72 -207 c 0
 72 -270 76 -343 76 -370 c 0
 76 -379 71 -382 56 -382 c 0
 40 -382 38 -376 38 -368 c 0
 38 -340 42 -274 42 -207 c 0
 42 -192 35 -188 22 -192 c 0
 6 -196 0 -190 0 -180 c 2
 0 -143 l 2
 0 -130 3 -124 19 -119 c 0x8c
 37 -115 42 -111 42 -94 c 2
 42 51 l 2
EndSplineSet
EndChar

StartChar: uni0019
Encoding: 25 25 66
Width: 212
VWidth: 0
Flags: W
HStem: -213 96<13 80.7812> 116 97<131.727 200>
VStem: 4 30<-116.965 73.7477 168.245 400.748> 171 41<-419.994 -223.197> 178 30<-403.295 -167.517 -73.3999 115.905>
LayerCount: 3
Fore
SplineSet
21 420 m 3xf0
 38 420 41 417 41 402 c 3
 41 376 37 304 37 209 c 3
 37 182 41 166 58 166 c 0
 64 166 72 168 82 172 c 2
 175 208 l 2
 183 211 190 213 195 213 c 0
 205 213 210 207 210 190 c 3
 210 149 208 60 208 -23 c 3xe8
 208 -147 212 -369 212 -399 c 3
 212 -418 210 -420 190 -420 c 3
 175 -420 171 -414 171 -405 c 3
 171 -369 175 -309 175 -219 c 3
 175 -183 173 -166 156 -166 c 0
 148 -166 137 -170 121 -176 c 2
 37 -208 l 2
 30 -211 24 -213 19 -213 c 0
 7 -213 2 -204 2 -184 c 3
 2 -100 4 -88 4 32 c 3
 4 197 0 375 0 406 c 3
 0 419 5 420 14 420 c 0
 16 420 18 420 21 420 c 3xf0
34 28 m 2
 34 -83 l 2
 34 -105 36 -117 50 -117 c 0
 56 -117 63 -115 73 -111 c 2
 139 -86 l 2
 171 -73 178 -64 178 -28 c 2
 178 88 l 2
 178 108 173 116 161 116 c 0
 154 116 146 114 135 110 c 2
 72 85 l 2
 40 73 34 67 34 28 c 2
EndSplineSet
EndChar

StartChar: Wcircumflex
Encoding: 372 372 67
Width: 532
VWidth: 0
Flags: HW
CounterMasks: 1 fc
LayerCount: 3
Fore
SplineSet
500 0 m 0
 500 82 472 126 446 167 c 0
 441 174 439 180 439 185 c 0
 439 191 443 195 449 195 c 0
 454 195 460 192 466 185 c 0
 500 145 532 86 532 0 c 0
 532 -87 500 -145 466 -185 c 0
 460 -192 454 -195 449 -195 c 0
 443 -195 439 -191 439 -185 c 0
 439 -180 441 -174 446 -167 c 0
 472 -126 500 -83 500 0 c 0
32 0 m 0
 32 -82 60 -126 86 -167 c 0
 91 -174 93 -180 93 -185 c 0
 93 -191 89 -195 83 -195 c 0
 78 -195 72 -192 66 -185 c 0
 32 -145 0 -86 0 0 c 0
 0 87 32 145 66 185 c 0
 72 192 78 195 83 195 c 0
 89 195 93 191 93 185 c 0
 93 180 91 174 86 167 c 0
 60 126 32 83 32 0 c 0
266 -28 m 0
 243 -27 223 -61 223 -107 c 0
 223 -120 222 -125 209 -127 c 0
 200 -128 190 -129 177 -131 c 0
 159 -134 152 -135 139 -136 c 0
 132 -136 130 -134 130 -127 c 0
 131 -114 133 -107 135 -89 c 0
 137 -76 139 -66 140 -57 c 0
 141 -44 146 -43 160 -43 c 0
 206 -43 238 -23 238 0 c 0
 238 24 205 43 159 43 c 0
 146 43 141 44 139 57 c 0
 138 66 137 76 135 89 c 0
 132 107 131 114 130 127 c 0
 130 134 132 136 139 136 c 0
 152 135 159 133 177 131 c 0
 190 129 200 127 209 126 c 0
 222 125 223 120 223 106 c 0
 223 60 243 28 266 28 c 0
 289 27 309 61 309 107 c 0
 309 120 310 125 323 127 c 0
 332 128 342 129 355 131 c 0
 373 134 380 135 393 136 c 0
 400 136 402 134 402 127 c 0
 401 114 399 107 397 89 c 0
 395 76 393 66 392 57 c 0
 391 44 386 43 372 43 c 0
 326 43 294 24 294 0 c 3
 294 -23 327 -43 373 -43 c 0
 386 -43 391 -44 393 -57 c 0
 394 -66 395 -76 397 -89 c 0
 400 -107 401 -114 402 -127 c 0
 402 -134 400 -136 393 -136 c 0
 380 -135 373 -133 355 -131 c 0
 342 -129 332 -127 323 -126 c 0
 310 -125 309 -120 309 -106 c 0
 309 -60 289 -28 266 -28 c 0
EndSplineSet
EndChar

StartChar: uni01DA
Encoding: 474 474 68
Width: 386
Flags: HW
VStem: 168 50<147.008 431.932> 177 32<-93.9956 91.7842>
LayerCount: 3
Fore
SplineSet
167 82 m 0
 146 127 88 131 78 69 c 0
 67 0 93 -43 131 -76 c 0
 146 -89 154 -94 163 -94 c 0
 172 -94 177 -88 177 -67 c 2
 177 18 l 2
 177 44 174 68 167 82 c 0
275 428 m 0
 275 422 269 421 267 421 c 0
 260.645 421 253.795 424.487 246 429.006 c 0
 228.697 439.036 218.855 431 218.75 411 c 0
 218.418 347.551 218 243.457 218 168 c 0x80
 218 158 220 147 230 147 c 0
 249 147 270 162 300 162 c 0
 348 162 386 134 386 66 c 0
 386 -15 305.967 -70.9619 239 -129 c 2
 209 -155 l 2
 196 -167 188 -165 177 -155 c 2x40
 147 -129 l 2
 80.033 -70.9619 0 -15 0 66 c 0
 0 134 38 162 86 162 c 0
 116 162 137 147 156 147 c 0
 166 147 168 158 168 168 c 0x80
 168 242.798 167.588 346.164 167.258 409.333 c 0
 167.101 439.333 153.775 439.703 136.333 429.915 c 0
 127.525 424.972 120.27 421 115 421 c 0
 113 421 109 423 109 428 c 0
 109 438 119.108 446.938 153 506 c 0
 181.089 554.949 183 575 193 575 c 0
 207 575 203 556 233 505 c 0
 265 452 275 440 275 428 c 0
EndSplineSet
EndChar

StartChar: uni01DB
Encoding: 475 475 69
Width: 386
Flags: HW
VStem: 168 50<147.008 431.932> 177 32<-93.9956 91.7842>
LayerCount: 3
Fore
SplineSet
275 428 m 0
 275 422 269 421 267 421 c 0
 260.645 421 253.795 424.487 246 429.006 c 0
 228.697 439.036 218.855 431 218.75 411 c 0
 218.418 347.551 218 243.457 218 168 c 0x80
 218 158 220 147 230 147 c 0
 249 147 270 162 300 162 c 0
 348 162 386 134 386 66 c 0
 386 -15 305.967 -70.9619 239 -129 c 2
 209 -155 l 2
 196 -167 188 -165 177 -155 c 2x40
 147 -129 l 2
 80.033 -70.9619 0 -15 0 66 c 0
 0 134 38 162 86 162 c 0
 116 162 137 147 156 147 c 0
 166 147 168 158 168 168 c 0x80
 168 242.798 167.588 346.164 167.258 409.333 c 0
 167.101 439.333 153.775 439.703 136.333 429.915 c 0
 127.525 424.972 120.27 421 115 421 c 0
 113 421 109 423 109 428 c 0
 109 438 119.108 446.938 153 506 c 0
 181.089 554.949 183 575 193 575 c 0
 207 575 203 556 233 505 c 0
 265 452 275 440 275 428 c 0
EndSplineSet
EndChar

StartChar: uni01DC
Encoding: 476 476 70
Width: 386
Flags: W
VStem: 112 64<-195.318 -166> 168 50<147.008 484.992> 176 34<-192.637 -140.078 -93.9956 93.5546> 210 68<-208.5 -168.5>
LayerCount: 3
Fore
SplineSet
209 -67 m 2x00
 209 -88 214 -94 223 -94 c 0
 232 -94 240 -89 255 -76 c 0
 293 -43 319 0 308 69 c 0
 298 131 240 127 219 82 c 0
 212 68 209 44 209 18 c 2
 209 -67 l 2x00
167 82 m 0
 146 127 88 131 78 69 c 0
 67 0 93 -43 131 -76 c 0
 146 -89 154 -94 163 -94 c 0
 172 -94 177 -88 177 -67 c 2
 177 18 l 2
 177 44 174 68 167 82 c 0
222 465 m 0
 222 400 218 280 218 168 c 0x40
 218 158 220 147 230 147 c 0
 249 147 270 162 300 162 c 0
 348 162 386 134 386 66 c 0
 386 -15 306 -71 239 -129 c 0
 219 -146 210 -156 210 -172 c 0x20
 210 -221 250 -179 272 -179 c 0
 274 -179 278 -181 278 -186 c 0
 278 -196 268 -205 234 -264 c 0
 206 -313 204 -333 194 -333 c 0
 180 -333 182 -314 154 -263 c 0
 124 -209 112 -198 112 -186 c 0
 112 -180 118 -179 120 -179 c 0
 144 -179 176 -220 176 -172 c 0x90
 176 -152 167 -146 147 -129 c 0
 80 -71 0 -15 0 66 c 0
 0 134 38 162 86 162 c 0
 116 162 137 147 156 147 c 0
 166 147 168 158 168 168 c 0x40
 168 280 164 400 164 465 c 0
 164 484 166 485 193 485 c 0
 221 485 222 484 222 465 c 0
EndSplineSet
EndChar

StartChar: uni01DD
Encoding: 477 477 71
Width: 386
Flags: HW
VStem: 112 64<-195.318 -166> 168 50<147.008 484.992> 176 34<-192.637 -140.078 -93.9956 93.5546> 210 68<-208.5 -168.5>
LayerCount: 3
Fore
SplineSet
209 -67 m 2x00
 209 -88 214 -94 223 -94 c 0
 232 -94 240 -89 255 -76 c 0
 293 -43 319 0 308 69 c 0
 298 131 240 127 219 82 c 0
 212 68 209 44 209 18 c 2
 209 -67 l 2x00
222 465 m 0
 222 400 218 280 218 168 c 0x40
 218 158 220 147 230 147 c 0
 249 147 270 162 300 162 c 0
 348 162 386 134 386 66 c 0
 386 -15 306 -71 239 -129 c 0
 219 -146 210 -156 210 -172 c 0x20
 210 -221 250 -179 272 -179 c 0
 274 -179 278 -181 278 -186 c 0
 278 -196 268 -205 234 -264 c 0
 206 -313 204 -333 194 -333 c 0
 180 -333 182 -314 154 -263 c 0
 124 -209 112 -198 112 -186 c 0
 112 -180 118 -179 120 -179 c 0
 144 -179 176 -220 176 -172 c 0x90
 176 -152 167 -146 147 -129 c 0
 80 -71 0 -15 0 66 c 0
 0 134 38 162 86 162 c 0
 116 162 137 147 156 147 c 0
 166 147 168 158 168 168 c 0x40
 168 280 164 400 164 465 c 0
 164 484 166 485 193 485 c 0
 221 485 222 484 222 465 c 0
EndSplineSet
EndChar

StartChar: uni01DE
Encoding: 478 478 72
Width: 386
Flags: HW
VStem: 112 64<-195.318 -166> 168 50<147.008 484.992> 176 34<-192.637 -140.078 -93.9956 93.5546> 210 68<-208.5 -168.5>
LayerCount: 3
Fore
SplineSet
167 82 m 0
 146 127 88 131 78 69 c 0
 67 0 93 -43 131 -76 c 0
 146 -89 154 -94 163 -94 c 0
 172 -94 177 -88 177 -67 c 2
 177 18 l 2
 177 44 174 68 167 82 c 0
222 465 m 0
 222 400 218 280 218 168 c 0x40
 218 158 220 147 230 147 c 0
 249 147 270 162 300 162 c 0
 348 162 386 134 386 66 c 0
 386 -15 306 -71 239 -129 c 0
 219 -146 210 -156 210 -172 c 0x20
 210 -221 250 -179 272 -179 c 0
 274 -179 278 -181 278 -186 c 0
 278 -196 268 -205 234 -264 c 0
 206 -313 204 -333 194 -333 c 0
 180 -333 182 -314 154 -263 c 0
 124 -209 112 -198 112 -186 c 0
 112 -180 118 -179 120 -179 c 0
 144 -179 176 -220 176 -172 c 0x90
 176 -152 167 -146 147 -129 c 0
 80 -71 0 -15 0 66 c 0
 0 134 38 162 86 162 c 0
 116 162 137 147 156 147 c 0
 166 147 168 158 168 168 c 0x40
 168 280 164 400 164 465 c 0
 164 484 166 485 193 485 c 0
 221 485 222 484 222 465 c 0
EndSplineSet
EndChar

StartChar: uni01DF
Encoding: 479 479 73
Width: 386
Flags: HW
VStem: 112 64<-195.318 -166> 168 50<147.008 484.992> 176 34<-192.637 -140.078 -93.9956 93.5546> 210 68<-208.5 -168.5>
LayerCount: 3
Fore
SplineSet
222 465 m 0
 222 400 218 280 218 168 c 0x40
 218 158 220 147 230 147 c 0
 249 147 270 162 300 162 c 0
 348 162 386 134 386 66 c 0
 386 -15 306 -71 239 -129 c 0
 219 -146 210 -156 210 -172 c 0x20
 210 -221 250 -179 272 -179 c 0
 274 -179 278 -181 278 -186 c 0
 278 -196 268 -205 234 -264 c 0
 206 -313 204 -333 194 -333 c 0
 180 -333 182 -314 154 -263 c 0
 124 -209 112 -198 112 -186 c 0
 112 -180 118 -179 120 -179 c 0
 144 -179 176 -220 176 -172 c 0x90
 176 -152 167 -146 147 -129 c 0
 80 -71 0 -15 0 66 c 0
 0 134 38 162 86 162 c 0
 116 162 137 147 156 147 c 0
 166 147 168 158 168 168 c 0x40
 168 280 164 400 164 465 c 0
 164 484 166 485 193 485 c 0
 221 485 222 484 222 465 c 0
EndSplineSet
EndChar

StartChar: uni0210
Encoding: 528 528 74
Width: 325
VWidth: 0
Flags: HW
HStem: -71 67<0.210938 46.3141>
VStem: 47 31<-367.974 -70.6372 17.136 341.996> 147 31<-354.974 -44.4339 43.7985 354.996> 247 31<-341.996 -17.5819 70.646 367.974>
LayerCount: 3
Fore
SplineSet
178 -150 m 2
 178 -218 182 -313 182 -342 c 0
 182 -351 177 -355 161 -355 c 0
 144 -355 143 -349 143 -340 c 0
 143 -311 147 -226 147 -156 c 2
 147 -72 l 2
 147 -50 141 -45 119 -51 c 2
 102 -55 l 2
 85 -60 78 -66 78 -86 c 2
 78 -163 l 2
 78 -231 82 -326 82 -355 c 0
 82 -364 77 -368 61 -368 c 0
 44 -368 43 -362 43 -353 c 0
 43 -324 47 -239 47 -169 c 2
 47 -92 l 2
 47 -72 42 -72 24 -76 c 0
 4 -81 0 -79 0 -59 c 2
 0 -28 l 2
 0 -7 3 -4 21 1 c 0
 41 7 47 11 47 34 c 2
 47 125 l 2
 47 198 43 303 43 329 c 0
 43 338 46 342 62 342 c 0
 79 342 82 336 82 327 c 0
 82 302 78 197 78 141 c 2
 78 39 l 2
 78 19 86 18 103 23 c 2
 116 26 l 2
 142 33 147 38 147 67 c 2
 147 146 l 2
 147 219 143 316 143 342 c 0
 143 351 146 355 162 355 c 0
 179 355 182 349 182 340 c 0
 182 315 178 210 178 154 c 2
 178 72 l 2
 178 49 181 44 205 50 c 2
 218 54 l 2
 241 60 247 62 247 93 c 2
 247 163 l 2
 247 231 243 326 243 355 c 0
 243 364 248 368 264 368 c 0
 281 368 282 362 282 353 c 0
 282 324 278 239 278 169 c 2
 278 100 l 2
 278 75 283 72 301 76 c 0
 320 80 325 74 325 58 c 2
 325 31 l 2
 325 7 322 4 301 -2 c 0
 281 -8 278 -14 278 -35 c 2
 278 -125 l 2
 278 -198 282 -303 282 -329 c 0
 282 -338 279 -342 263 -342 c 0
 246 -342 243 -336 243 -327 c 0
 243 -302 247 -197 247 -141 c 2
 247 -43 l 2
 247 -22 241 -18 220 -24 c 2
 203 -28 l 2
 181 -34 178 -41 178 -68 c 2
 178 -150 l 2
EndSplineSet
EndChar

StartChar: uni0211
Encoding: 529 529 75
Width: 325
VWidth: 0
Flags: HW
HStem: -119 77<278.686 324.789> 42 77<0.210938 46.3141>
VStem: 47 31<-367.974 -193.646 -95.4181 42.3628 140.136 341.996> 147 31<-354.996 -166.799 -68.5661 68.5661 166.799 354.996> 247 31<-341.996 -140.136 -42.3628 95.4181 193.646 367.974>
LayerCount: 3
Fore
SplineSet
247 75 m 2
 247 96 241 100 220 94 c 2
 203 90 l 2
 181 84 178 77 178 50 c 2
 178 -46 l 2
 178 -68 184 -73 206 -67 c 2
 223 -63 l 2
 240 -58 247 -52 247 -32 c 2
 247 75 l 2
47 26 m 2
 47 46 42 46 24 42 c 0
 4 37 0 39 0 59 c 2
 0 90 l 2
 0 111 3 114 21 119 c 0
 41 125 47 129 47 152 c 0
 47 217.649 43 302.7 43 329 c 0
 43 338 46 342 62 342 c 0
 79 342 82 336 82 327 c 0
 82 299.126 78 208.309 78 157 c 0
 78 137 86 136 103 141 c 2
 116 144 l 2
 142 151 147 156 147 185 c 0
 147 240.057 143 315.585 143 342 c 0
 143 351 146 355 162 355 c 0
 179 355 182 349 182 340 c 0
 182 310.847 178 233.398 178 190 c 0
 178 167 181 162 205 168 c 2
 218 172 l 2
 241 178 247 180 247 211 c 0
 247 250.171 243 324.548 243 355 c 0
 243 364 248 368 264 368 c 0
 281 368 282 362 282 353 c 0
 282 322.844 278 253.488 278 218 c 0
 278 193 283 190 301 194 c 0
 320 198 325 192 325 176 c 2
 325 149 l 2
 325 125 322 122 301 116 c 0
 281 110 278 104 278 83 c 2
 278 -26 l 2
 278 -46 283 -46 301 -42 c 0
 321 -37 325 -39 325 -59 c 2
 325 -90 l 2
 325 -111 322 -114 304 -119 c 0
 284 -125 278 -129 278 -152 c 0
 278 -217.649 282 -302.7 282 -329 c 0
 282 -338 279 -342 263 -342 c 0
 246 -342 243 -336 243 -327 c 0
 243 -299.126 247 -208.31 247 -157 c 0
 247 -137 239 -136 222 -141 c 2
 209 -144 l 2
 183 -151 178 -156 178 -185 c 0
 178 -240.057 182 -315.585 182 -342 c 0
 182 -351 179 -355 163 -355 c 0
 146 -355 143 -349 143 -340 c 0
 143 -310.847 147 -233.397 147 -190 c 0
 147 -167 144 -162 120 -168 c 2
 107 -172 l 2
 84 -178 78 -180 78 -211 c 0
 78 -250.171 82 -324.548 82 -355 c 0
 82 -364 77 -368 61 -368 c 0
 44 -368 43 -362 43 -353 c 0
 43 -322.844 47 -253.488 47 -218 c 0
 47 -193 42 -190 24 -194 c 0
 5 -198 0 -192 0 -176 c 2
 0 -149 l 2
 0 -125 3 -122 24 -116 c 0
 44 -110 47 -104 47 -83 c 2
 47 26 l 2
147 46 m 2
 147 68 141 73 119 67 c 2
 102 63 l 2
 85 58 78 52 78 32 c 2
 78 -75 l 2
 78 -96 84 -100 105 -94 c 2
 122 -90 l 2
 144 -84 147 -77 147 -50 c 2
 147 46 l 2
EndSplineSet
EndChar

StartChar: uni0212
Encoding: 530 530 76
Width: 325
VWidth: 0
Flags: HW
HStem: -71 67<0.210938 46.3141>
VStem: 47 31<-367.974 -70.6372 17.136 341.996> 147 31<-354.974 -44.4339 43.7985 354.996> 247 31<-341.996 -17.5819 70.646 367.974>
LayerCount: 3
Fore
SplineSet
178 -95 m 2
 178 -117 184 -122 206 -116 c 2
 223 -112 l 2
 240 -107 247 -101 247 -81 c 2
 247 -40 l 2
 247 -19 241 -15 220 -21 c 2
 203 -25 l 2
 181 -31 178 -38 178 -65 c 2
 178 -95 l 2
78 -124 m 2
 78 -145 84 -149 105 -143 c 2
 122 -139 l 2
 144 -133 147 -126 147 -99 c 2
 147 -69 l 2
 147 -47 141 -42 119 -48 c 2
 102 -52 l 2
 85 -57 78 -63 78 -83 c 2
 78 -124 l 2
147 95 m 2
 147 117 141 122 119 116 c 2
 102 112 l 2
 85 107 78 101 78 81 c 2
 78 36 l 2
 78 16 86 15 103 20 c 2
 116 23 l 2
 142 30 147 35 147 64 c 2
 147 95 l 2
247 124 m 2
 247 145 241 149 220 143 c 2
 203 139 l 2
 181 133 178 126 178 99 c 2
 178 69 l 2
 178 46 181 41 205 47 c 2
 218 51 l 2
 241 57 247 59 247 90 c 2
 247 124 l 2
47 -89 m 2
 47 -69 42 -69 24 -73 c 0
 4 -78 0 -76 0 -56 c 2
 0 -31 l 2
 0 -10 3 -7 21 -2 c 0
 41 4 47 8 47 31 c 2
 47 75 l 2
 47 95 42 95 24 91 c 0
 4 86 0 88 0 108 c 2
 0 133 l 2
 0 154 3 157 21 162 c 0
 41 168 47 179 47 195 c 27
 47 247 43 303 43 329 c 0
 43 338 46 342 62 342 c 0
 79 342 82 336 82 327 c 0
 82 302 78 250 78 200 c 27
 78 189 86 179 103 184 c 2
 116 187 l 2
 142 194 147 209 147 229 c 27
 147 273 143 316 143 342 c 0
 143 351 146 355 162 355 c 0
 179 355 182 349 182 340 c 0
 182 315 178 277 178 237 c 27
 178 222 181 205 205 211 c 2
 218 215 l 2
 241 221 247 236 247 256 c 27
 247 294 243 326 243 355 c 0
 243 364 248 368 264 368 c 0
 281 368 282 362 282 353 c 0
 282 324 278 297 278 262 c 27
 278 248 283 233 301 237 c 0
 320 241 325 235 325 219 c 2
 325 198 l 2
 325 174 322 171 301 165 c 0
 281 159 278 153 278 132 c 10
 278 97 l 2
 278 72 283 69 301 73 c 0
 320 77 325 71 325 55 c 2
 325 34 l 2
 325 10 322 7 301 1 c 0
 281 -5 278 -11 278 -32 c 2
 278 -75 l 2
 278 -95 283 -95 301 -91 c 0
 321 -86 325 -88 325 -108 c 2
 325 -133 l 2
 325 -154 322 -157 304 -162 c 0
 284 -168 278 -179 278 -195 c 27
 278 -247 282 -303 282 -329 c 0
 282 -338 279 -342 263 -342 c 0
 246 -342 243 -336 243 -327 c 0
 243 -302 247 -250 247 -200 c 27
 247 -189 239 -179 222 -184 c 2
 209 -187 l 2
 183 -194 178 -209 178 -229 c 27
 178 -273 182 -316 182 -342 c 0
 182 -351 179 -355 163 -355 c 0
 146 -355 143 -349 143 -340 c 0
 143 -315 147 -277 147 -237 c 27
 147 -222 144 -205 120 -211 c 2
 107 -215 l 2
 84 -221 78 -236 78 -256 c 27
 78 -294 82 -326 82 -355 c 0
 82 -364 77 -368 61 -368 c 0
 44 -368 43 -362 43 -353 c 0
 43 -324 47 -297 47 -262 c 27
 47 -248 42 -233 24 -237 c 0
 5 -241 0 -235 0 -219 c 2
 0 -198 l 2
 0 -174 3 -171 24 -165 c 0
 44 -159 47 -153 47 -132 c 10
 47 -89 l 2
EndSplineSet
EndChar

StartChar: Scommaaccent
Encoding: 536 536 77
Width: 346
VWidth: 0
Flags: HW
HStem: -71 67<0.210938 46.3141>
VStem: 47 31<-367.974 -70.6372 17.136 341.996> 147 31<-354.974 -44.4339 43.7985 354.996> 247 31<-341.996 -17.5819 70.646 367.974>
LayerCount: 3
Fore
SplineSet
247 146 m 2
 247 192 245 370 244 422 c 0
 244 442 231 445 215 437 c 0
 203 430 193 424 186 424 c 0
 184 424 180 426 180 430 c 0
 180 440 190 449 224 508 c 0
 252 557 254 578 264 578 c 0
 278 578 274 558 304 508 c 0
 336 454 346 442 346 430 c 0
 346 424 340 424 338 424 c 0
 329 424 320 430 308 437 c 0
 293 446 282 444 281 419 c 0
 278 368 278 199 278 152 c 2
 278 100 l 2
 278 75 283 72 301 76 c 0
 320 80 325 74 325 58 c 2
 325 31 l 2
 325 7 322 4 301 -2 c 0
 281 -8 278 -14 278 -35 c 2
 278 -125 l 2
 278 -198 282 -303 282 -329 c 0
 282 -338 279 -342 263 -342 c 0
 246 -342 243 -336 243 -327 c 0
 243 -302 247 -197 247 -141 c 2
 247 -43 l 2
 247 -22 241 -18 220 -24 c 2
 203 -28 l 2
 181 -34 178 -41 178 -68 c 2
 178 -150 l 2
 178 -218 182 -313 182 -342 c 0
 182 -351 177 -355 161 -355 c 0
 144 -355 143 -349 143 -340 c 0
 143 -311 147 -226 147 -156 c 2
 147 -72 l 2
 147 -50 141 -45 119 -51 c 2
 102 -55 l 2
 85 -60 78 -66 78 -86 c 2
 78 -163 l 2
 78 -231 82 -326 82 -355 c 0
 82 -364 77 -368 61 -368 c 0
 44 -368 43 -362 43 -353 c 0
 43 -324 47 -239 47 -169 c 2
 47 -92 l 2
 47 -72 42 -72 24 -76 c 0
 4 -81 0 -79 0 -59 c 2
 0 -28 l 2
 0 -7 3 -4 21 1 c 0
 41 7 47 11 47 34 c 2
 47 125 l 2
 47 198 43 303 43 329 c 0
 43 338 46 342 62 342 c 0
 79 342 82 336 82 327 c 0
 82 302 78 197 78 141 c 2
 78 39 l 2
 78 19 86 18 103 23 c 2
 116 26 l 2
 142 33 147 38 147 67 c 2
 147 146 l 2
 147 219 143 316 143 342 c 0
 143 351 146 355 162 355 c 0
 179 355 182 349 182 340 c 0
 182 315 178 210 178 154 c 2
 178 72 l 2
 178 49 181 44 205 50 c 2
 218 54 l 2
 241 60 247 62 247 93 c 2
 247 146 l 2
EndSplineSet
EndChar

StartChar: uni021A
Encoding: 538 538 78
Width: 346
VWidth: 0
Flags: HW
HStem: -119 77<278.686 324.789> 42 77<0.210938 46.3141>
VStem: 47 31<-367.974 -193.646 -95.4181 42.3628 140.136 341.996> 147 31<-354.996 -166.799 -68.5661 68.5661 166.799 354.996> 247 31<-341.996 -140.136 -42.3628 95.4181 193.646 367.974>
LayerCount: 3
Fore
SplineSet
247 211 m 0
 247 257 245 371 244 422 c 0
 244 442 231 445 215 437 c 0
 203 430 193 424 186 424 c 0
 184 424 180 426 180 430 c 0
 180 440 190 449 224 508 c 0
 252 557 254 578 264 578 c 0
 278 578 274 558 304 508 c 0
 336 454 346 442 346 430 c 0
 346 424 340 424 338 424 c 0
 329 424 320 430 308 437 c 0
 293 446 283 444 281 419 c 0
 278 372 278 265 278 218 c 0
 278 193 283 190 301 194 c 0
 320 198 325 192 325 176 c 2
 325 149 l 2
 325 125 322 122 301 116 c 0
 281 110 278 104 278 83 c 2
 278 -26 l 2
 278 -46 283 -46 301 -42 c 0
 321 -37 325 -39 325 -59 c 2
 325 -90 l 2
 325 -111 322 -114 304 -119 c 0
 284 -125 278 -129 278 -152 c 0
 278 -218 282 -303 282 -329 c 0
 282 -338 279 -342 263 -342 c 0
 246 -342 243 -336 243 -327 c 0
 243 -299 247 -208 247 -157 c 0
 247 -137 239 -136 222 -141 c 2
 209 -144 l 2
 183 -151 178 -156 178 -185 c 0
 178 -240 182 -316 182 -342 c 0
 182 -351 179 -355 163 -355 c 0
 146 -355 143 -349 143 -340 c 0
 143 -311 147 -233 147 -190 c 0
 147 -167 144 -162 120 -168 c 2
 107 -172 l 2
 84 -178 78 -180 78 -211 c 0
 78 -250 82 -325 82 -355 c 0
 82 -364 77 -368 61 -368 c 0
 44 -368 43 -362 43 -353 c 0
 43 -323 47 -253 47 -218 c 0
 47 -193 42 -190 24 -194 c 0
 5 -198 0 -192 0 -176 c 2
 0 -149 l 2
 0 -125 3 -122 24 -116 c 0
 44 -110 47 -104 47 -83 c 2
 47 26 l 2
 47 46 42 46 24 42 c 0
 4 37 0 39 0 59 c 2
 0 90 l 2
 0 111 3 114 21 119 c 0
 41 125 47 129 47 152 c 0
 47 218 43 303 43 329 c 0
 43 338 46 342 62 342 c 0
 79 342 82 336 82 327 c 0
 82 299 78 208 78 157 c 0
 78 137 86 136 103 141 c 2
 116 144 l 2
 142 151 147 156 147 185 c 0
 147 240 143 316 143 342 c 0
 143 351 146 355 162 355 c 0
 179 355 182 349 182 340 c 0
 182 311 178 233 178 190 c 0
 178 167 181 162 205 168 c 2
 218 172 l 2
 241 178 247 180 247 211 c 0
247 75 m 2
 247 96 241 100 220 94 c 2
 203 90 l 2
 181 84 178 77 178 50 c 2
 178 -46 l 2
 178 -68 184 -73 206 -67 c 2
 223 -63 l 2
 240 -58 247 -52 247 -32 c 2
 247 75 l 2
147 46 m 2
 147 68 141 73 119 67 c 2
 102 63 l 2
 85 58 78 52 78 32 c 2
 78 -75 l 2
 78 -96 84 -100 105 -94 c 2
 122 -90 l 2
 144 -84 147 -77 147 -50 c 2
 147 46 l 2
EndSplineSet
EndChar

StartChar: uni021C
Encoding: 540 540 79
Width: 346
VWidth: 0
Flags: HW
HStem: -71 67<0.210938 46.3141>
VStem: 47 31<-367.974 -70.6372 17.136 341.996> 147 31<-354.974 -44.4339 43.7985 354.996> 247 31<-341.996 -17.5819 70.646 367.974>
LayerCount: 3
Fore
SplineSet
278 264 m 0
 278 249 283 233 301 237 c 0
 320 241 325 235 325 219 c 2
 325 198 l 2
 325 174 322 171 301 165 c 0
 281 159 278 153 278 132 c 10
 278 97 l 2
 278 72 283 69 301 73 c 0
 320 77 325 71 325 55 c 2
 325 34 l 2
 325 10 322 7 301 1 c 0
 281 -5 278 -11 278 -32 c 2
 278 -75 l 2
 278 -95 283 -95 301 -91 c 0
 321 -86 325 -88 325 -108 c 2
 325 -133 l 2
 325 -154 322 -157 304 -162 c 0
 284 -168 278 -179 278 -195 c 27
 278 -247 282 -303 282 -329 c 0
 282 -338 279 -342 263 -342 c 0
 246 -342 243 -336 243 -327 c 0
 243 -302 247 -250 247 -200 c 27
 247 -188 239 -179 222 -184 c 2
 209 -187 l 2
 183 -194 178 -209 178 -229 c 27
 178 -273 182 -316 182 -342 c 0
 182 -351 179 -355 163 -355 c 0
 146 -355 143 -349 143 -340 c 0
 143 -315 147 -277 147 -237 c 27
 147 -222 144 -205 120 -211 c 2
 107 -215 l 2
 84 -221 78 -236 78 -256 c 27
 78 -295 82 -326 82 -355 c 0
 82 -364 77 -368 61 -368 c 0
 44 -368 43 -362 43 -353 c 0
 43 -324 47 -298 47 -262 c 27
 47 -249 42 -233 24 -237 c 0
 5 -241 0 -235 0 -219 c 2
 0 -198 l 2
 0 -174 3 -171 24 -165 c 0
 44 -159 47 -153 47 -132 c 10
 47 -89 l 2
 47 -69 42 -69 24 -73 c 0
 4 -78 0 -76 0 -56 c 2
 0 -31 l 2
 0 -10 3 -7 21 -2 c 0
 41 4 47 8 47 31 c 2
 47 75 l 2
 47 95 42 95 24 91 c 0
 4 86 0 88 0 108 c 2
 0 133 l 2
 0 154 3 157 21 162 c 0
 41 168 47 179 47 195 c 27
 47 247 43 303 43 329 c 0
 43 338 46 342 62 342 c 0
 79 342 82 336 82 327 c 0
 82 302 78 250 78 200 c 27
 78 188 86 179 103 184 c 2
 116 187 l 2
 142 194 147 209 147 229 c 27
 147 273 143 316 143 342 c 0
 143 351 146 355 162 355 c 0
 179 355 182 349 182 340 c 0
 182 315 178 277 178 237 c 27
 178 222 181 205 205 211 c 2
 218 215 l 2
 241 221 247 237 247 256 c 16
 247 302 246 370 244 422 c 0
 243 442 231 445 215 437 c 0
 203 430 193 424 186 424 c 0
 184 424 180 426 180 430 c 0
 180 440 190 449 224 508 c 0
 252 557 254 578 264 578 c 0
 278 578 274 558 304 508 c 0
 336 454 346 442 346 430 c 0
 346 424 340 424 338 424 c 0
 329 424 320 430 308 437 c 0
 293 446 282 444 281 419 c 0
 280 372 278 312 278 264 c 0
178 -95 m 2
 178 -117 184 -122 206 -116 c 2
 223 -112 l 2
 240 -107 247 -101 247 -81 c 2
 247 -40 l 2
 247 -19 241 -15 220 -21 c 2
 203 -25 l 2
 181 -31 178 -38 178 -65 c 2
 178 -95 l 2
78 -124 m 2
 78 -145 84 -149 105 -143 c 2
 122 -139 l 2
 144 -133 147 -126 147 -99 c 2
 147 -69 l 2
 147 -47 141 -42 119 -48 c 2
 102 -52 l 2
 85 -57 78 -63 78 -83 c 2
 78 -124 l 2
147 95 m 2
 147 117 141 122 119 116 c 2
 102 112 l 2
 85 107 78 101 78 81 c 2
 78 36 l 2
 78 16 86 15 103 20 c 2
 116 23 l 2
 142 30 147 35 147 64 c 2
 147 95 l 2
247 124 m 2
 247 145 241 149 220 143 c 2
 203 139 l 2
 181 133 178 126 178 99 c 2
 178 69 l 2
 178 46 181 41 205 47 c 2
 218 51 l 2
 241 57 247 59 247 90 c 2
 247 124 l 2
EndSplineSet
EndChar

StartChar: uni021D
Encoding: 541 541 80
Width: 346
VWidth: 0
Flags: HW
HStem: 4 67<299.686 345.789>
VStem: 268 31<70.6372 367.974 -341.996 -17.136> 168 31<44.4339 354.974 -354.996 -43.7985> 68 31<17.5819 341.996 -367.974 -70.646>
LayerCount: 3
Fore
SplineSet
68 -264 m 0
 68 -249 63 -233 45 -237 c 0
 26 -241 21 -235 21 -219 c 2
 21 -198 l 2
 21 -174 24 -171 45 -165 c 0
 65 -159 68 -153 68 -132 c 10
 68 -97 l 2
 68 -72 63 -69 45 -73 c 0
 26 -77 21 -71 21 -55 c 2
 21 -34 l 2
 21 -10 24 -7 45 -1 c 0
 65 5 68 11 68 32 c 2
 68 75 l 2
 68 95 63 95 45 91 c 0
 25 86 21 88 21 108 c 2
 21 133 l 2
 21 154 24 157 42 162 c 0
 62 168 68 179 68 195 c 27
 68 247 64 303 64 329 c 0
 64 338 67 342 83 342 c 0
 100 342 103 336 103 327 c 0
 103 302 99 250 99 200 c 27
 99 188 107 179 124 184 c 2
 137 187 l 2
 163 194 168 209 168 229 c 27
 168 273 164 316 164 342 c 0
 164 351 167 355 183 355 c 0
 200 355 203 349 203 340 c 0
 203 315 199 277 199 237 c 27
 199 222 202 205 226 211 c 2
 239 215 l 2
 262 221 268 236 268 256 c 27
 268 295 264 326 264 355 c 0
 264 364 269 368 285 368 c 0
 302 368 303 362 303 353 c 0
 303 324 299 298 299 262 c 27
 299 249 304 233 322 237 c 0
 341 241 346 235 346 219 c 2
 346 198 l 2
 346 174 343 171 322 165 c 0
 302 159 299 153 299 132 c 10
 299 89 l 2
 299 69 304 69 322 73 c 0
 342 78 346 76 346 56 c 2
 346 31 l 2
 346 10 343 7 325 2 c 0
 305 -4 299 -8 299 -31 c 2
 299 -75 l 2
 299 -95 304 -95 322 -91 c 0
 342 -86 346 -88 346 -108 c 2
 346 -133 l 2
 346 -154 343 -157 325 -162 c 0
 305 -168 299 -179 299 -195 c 27
 299 -247 303 -303 303 -329 c 0
 303 -338 300 -342 284 -342 c 0
 267 -342 264 -336 264 -327 c 0
 264 -302 268 -250 268 -200 c 27
 268 -188 260 -179 243 -184 c 2
 230 -187 l 2
 204 -194 199 -209 199 -229 c 27
 199 -273 203 -316 203 -342 c 0
 203 -351 200 -355 184 -355 c 0
 167 -355 164 -349 164 -340 c 0
 164 -315 168 -277 168 -237 c 27
 168 -222 165 -205 141 -211 c 2
 128 -215 l 2
 105 -221 99 -237 99 -256 c 16
 99 -302 100 -370 102 -422 c 0
 103 -442 115 -445 131 -437 c 0
 143 -430 153 -424 160 -424 c 0
 162 -424 166 -426 166 -430 c 0
 166 -440 156 -449 122 -508 c 0
 94 -557 92 -578 82 -578 c 0
 68 -578 72 -558 42 -508 c 0
 10 -454 0 -442 0 -430 c 0
 0 -424 6 -424 8 -424 c 0
 17 -424 26 -430 38 -437 c 0
 53 -446 64 -444 65 -419 c 0
 66 -372 68 -312 68 -264 c 0
168 95 m 2
 168 117 162 122 140 116 c 2
 123 112 l 2
 106 107 99 101 99 81 c 2
 99 40 l 2
 99 19 105 15 126 21 c 2
 143 25 l 2
 165 31 168 38 168 65 c 2
 168 95 l 2
268 124 m 2
 268 145 262 149 241 143 c 2
 224 139 l 2
 202 133 199 126 199 99 c 2
 199 69 l 2
 199 47 205 42 227 48 c 2
 244 52 l 2
 261 57 268 63 268 83 c 2
 268 124 l 2
199 -95 m 2
 199 -117 205 -122 227 -116 c 2
 244 -112 l 2
 261 -107 268 -101 268 -81 c 2
 268 -36 l 2
 268 -16 260 -15 243 -20 c 2
 230 -23 l 2
 204 -30 199 -35 199 -64 c 2
 199 -95 l 2
99 -124 m 2
 99 -145 105 -149 126 -143 c 2
 143 -139 l 2
 165 -133 168 -126 168 -99 c 2
 168 -69 l 2
 168 -46 165 -41 141 -47 c 2
 128 -51 l 2
 105 -57 99 -59 99 -90 c 2
 99 -124 l 2
EndSplineSet
EndChar

StartChar: uni0248
Encoding: 584 584 81
Width: 137
VWidth: 0
Flags: HMW
VStem: 0 28<-66 49 110 265> 110 28<-265 -111 -50 66>
LayerCount: 3
Fore
SplineSet
3 -1 m 3
 3 124 0 233 0 255 c 3
 0 264 2 265 14 265 c 3
 27 265 28 263 28 252 c 3
 28 234 26 204 26 138 c 3
 26 107 32 106 58 114 c 2
 113 131 l 2
 127 135 136 138 136 120 c 3
 136 91 135 58 135 -1 c 3
 135 -126 138 -234 138 -256 c 3
 138 -265 136 -265 124 -265 c 3
 111 -265 110 -264 110 -253 c 3
 110 -235 112 -205 112 -139 c 3
 112 -108 106 -107 80 -115 c 2
 24 -132 l 2
 10 -136 1 -139 1 -121 c 3
 1 -92 3 -59 3 -1 c 3
114 47 m 2
 114 73 104 68 84 62 c 2
 51 52 l 2
 28 44 24 43 24 11 c 2
 24 -48 l 2
 24 -74 34 -69 54 -63 c 2
 87 -53 l 2
 110 -45 114 -44 114 -12 c 2
 114 47 l 2
EndSplineSet
EndChar

StartChar: uni024C
Encoding: 588 588 82
Width: 190
VWidth: 0
Flags: W
HStem: -95 65<5.32293 64.7707 125.449 185.693> 30 65<4.89994 64.3869 125.088 185.303>
VStem: 0 65<-90.6934 -30.0194 30.088 90.3033> 76 39<-19.9457 19.8082> 125 65<-90.2808 -30.088 30.0194 90.6875>
LayerCount: 3
Fore
SplineSet
95 -20 m 0
 79 -19 65 -43 65 -75 c 0
 65 -84 64 -88 55 -89 c 0
 49 -90 42 -91 33 -92 c 0
 20 -94 15 -94 6 -95 c 0
 1 -95 0 -94 0 -89 c 0
 1 -80 3 -75 4 -62 c 0
 5 -53 6 -46 7 -40 c 0
 8 -31 11 -30 21 -30 c 0
 53 -30 76 -16 76 0 c 0
 76 17 52 30 20 30 c 0
 11 30 7 31 6 40 c 0
 5 46 5 53 4 62 c 0
 2 75 1 80 0 89 c 0
 0 94 1 95 6 95 c 0
 15 94 20 93 33 92 c 0
 42 91 49 89 55 88 c 0
 64 87 65 84 65 74 c 0
 65 42 79 20 95 20 c 0
 111 19 125 43 125 75 c 0
 125 84 126 88 135 89 c 0
 141 90 149 91 158 92 c 0
 171 94 175 94 184 95 c 0
 189 95 190 94 190 89 c 0
 189 80 188 75 187 62 c 0
 186 53 184 46 183 40 c 0
 182 31 179 30 169 30 c 0
 137 30 115 17 115 0 c 3
 115 -16 138 -30 170 -30 c 0
 179 -30 183 -31 184 -40 c 0
 185 -46 186 -53 187 -62 c 0
 189 -75 189 -80 190 -89 c 0
 190 -94 189 -95 184 -95 c 0
 175 -94 171 -93 158 -92 c 0
 149 -91 141 -89 135 -88 c 0
 126 -87 125 -84 125 -74 c 0
 125 -42 111 -20 95 -20 c 0
EndSplineSet
EndChar

StartChar: lcaron
Encoding: 318 318 83
Width: 420
VWidth: 0
Flags: HW
HStem: -152 57<2.99993e-007 40.9956> 51 58<0 40.9239> 95 58<174.007 215>
VStem: 41 27<-302.996 -153.211 -77.869 50.8631 126.999 280.997> 146 28<-280.997 -127.484 -50.6055 76.8906 153.608 302.985>
LayerCount: 3
Fore
SplineSet
273 -63 m 2x98
 273 -75 281 -81 298 -77 c 2
 329 -69 l 2
 344 -66 351 -60 351 -44 c 2
 351 63 l 2
 351 78 344 81 330 77 c 2
 298 70 l 2
 279 65 273 61 273 44 c 2
 273 -63 l 2x98
246 34 m 2
 246 51 240 55 225 51 c 0
 214 48 205 50 205 66 c 2
 205 90 l 2
 205 102 217 106 228 109 c 0xd8
 242 113 246 119 246 134 c 0
 246 189 243 251 243 271 c 0
 243 278 248 281 260 281 c 0
 273 281 276 277 276 270 c 0
 276 251 273 185 273 143 c 0
 273 126 281 124 295 127 c 2
 327 135 l 2
 343 139 351 138 351 164 c 0
 351 214 349 271 349 293 c 0
 349 300 354 303 366 303 c 0
 378 303 382 298 382 291 c 0
 382 269 379 222 379 170 c 0
 379 154 388 150 398 153 c 0
 411 156 420 154 420 140 c 2
 420 117 l 2
 420 103 410 98 397 95 c 0xb8
 383 91 379 88 379 75 c 2
 379 -36 l 2
 379 -47 384 -55 399 -51 c 0
 410 -48 420 -49 420 -64 c 2
 420 -90 l 2
 420 -99 411 -106 400 -108 c 0
 383 -112 379 -124 379 -135 c 0
 379 -190 382 -251 382 -271 c 0
 382 -278 377 -281 365 -281 c 0
 352 -281 349 -277 349 -270 c 0
 349 -251 351 -185 351 -143 c 0
 351 -127 342 -124 327 -128 c 2
 293 -136 l 2
 280 -139 273 -145 273 -164 c 0
 273 -214 276 -271 276 -293 c 0
 276 -300 271 -303 259 -303 c 0
 247 -303 243 -298 243 -291 c 0
 243 -269 246 -220 246 -168 c 0
 246 -153 240 -149 230 -152 c 0
 215 -156 205 -154 205 -142 c 2
 205 -117 l 2
 205 -101 215 -98 228 -95 c 0
 242 -91 246 -88 246 -75 c 2
 246 34 l 2
18 314 m 3
 31 314 35 312 35 301 c 3
 35 281 32 227 32 156 c 3
 32 133 36 124 47 124 c 0
 51 124 56 126 62 128 c 2
 139 157 l 2
 145 159 150 161 154 161 c 0
 162 161 166 156 166 143 c 3
 166 112 164 46 164 -16 c 3
 164 -109 167 -276 167 -298 c 3
 167 -312 163 -314 148 -314 c 3
 135 -314 132 -310 132 -303 c 3
 132 -276 135 -231 135 -163 c 3
 135 -135 133 -126 122 -126 c 0
 116 -126 109 -128 99 -131 c 2
 28 -157 l 2
 23 -159 18 -161 14 -161 c 0
 5 -161 2 -154 2 -139 c 3
 2 -76 3 -67 3 23 c 3
 3 147 0 280 0 303 c 3
 0 312 7 314 18 314 c 3
30 20 m 2
 30 -63 l 2
 30 -81 36 -86 44 -86 c 0
 51 -86 58 -83 65 -80 c 2
 112 -63 l 1
 136 -53 138 -44 138 -21 c 2
 138 66 l 2
 138 81 133 87 124 87 c 0
 120 87 115 85 109 83 c 2
 54 63 l 2
 33 55 30 49 30 20 c 2
EndSplineSet
EndChar

StartChar: Ldot
Encoding: 319 319 84
Width: 208
VWidth: 0
Flags: MW
HStem: -103 70<2.06066 69.7715 136.232 206.969> -25 50<79.375 129.201> 33 70<2.0504 69.4551 136.232 205.939>
VStem: 0 70<-101.998 -33.061 33.4937 101.022> 79 51<-24.6985 24.6985> 136 72<-101.022 -33.4937 33.061 101.937>
LayerCount: 3
Fore
SplineSet
103 -25 m 3
 122 -25 136 -48 136 -85 c 0
 136 -96 139 -100 154 -101 c 0
 169 -101 182 -103 197 -103 c 3
 204 -103 208 -100 208 -94 c 3
 208 -79 207 -66 207 -51 c 0
 206 -36 200 -33 189 -33 c 0
 152 -33 130 -19 130 0 c 3
 130 19 152 33 189 33 c 0
 200 33 205 36 206 51 c 0
 206 66 208 79 208 94 c 3
 208 100 204 103 197 103 c 3
 182 103 169 102 154 102 c 0
 139 101 136 97 136 86 c 0
 136 49 122 25 103 25 c 3
 84 25 70 48 70 85 c 0
 70 96 69 100 54 101 c 0
 39 101 26 103 11 103 c 3
 5 103 0 100 0 94 c 3
 0 79 2 66 2 51 c 0
 3 36 7 33 18 33 c 0
 55 33 79 19 79 0 c 3
 79 -19 56 -33 19 -33 c 0
 8 -33 3 -36 2 -51 c 0
 2 -66 0 -79 0 -94 c 3
 0 -101 4 -103 11 -103 c 3
 26 -103 39 -102 54 -102 c 0
 69 -101 70 -97 70 -86 c 0
 70 -49 84 -25 103 -25 c 3
EndSplineSet
EndChar

StartChar: D
Encoding: 68 68 86
Width: 458
VWidth: 0
Flags: HMW
LayerCount: 3
Fore
SplineSet
424 0 m 0
 424 115 350 165 350 181 c 0
 350 186 351 188 358 188 c 0
 376 188 458 108 458 0 c 0
 458 -108 376 -188 358 -188 c 0
 351 -188 350 -186 350 -181 c 0
 350 -165 424 -115 424 0 c 0
34 0 m 0
 34 -115 108 -165 108 -181 c 0
 108 -186 107 -188 100 -188 c 0
 82 -188 0 -108 0 0 c 0
 0 108 82 188 100 188 c 0
 107 188 108 186 108 181 c 0
 108 165 34 115 34 0 c 0
229 -28 m 7
 252 -28 269 -60 273 -103 c 4
 274 -116 276 -123 290 -123 c 7
 296 -123 304 -120 313 -120 c 31
 326 -120 332 -126 346 -126 c 15
 351 -126 355 -122 355 -117 c 23
 355 -103 349 -97 349 -84 c 31
 349 -75 352 -67 352 -61 c 7
 352 -47 345 -45 332 -44 c 4
 289 -40 257 -23 257 0 c 7
 257 23 289 40 332 44 c 4
 345 45 352 47 352 61 c 7
 352 67 349 75 349 84 c 31
 349 97 355 103 355 117 c 15
 355 122 351 126 346 126 c 23
 332 126 326 120 313 120 c 31
 304 120 296 123 290 123 c 7
 276 123 274 116 273 103 c 4
 269 60 252 28 229 28 c 7
 206 28 189 60 185 103 c 4
 184 116 182 123 168 123 c 7
 162 123 154 120 145 120 c 31
 132 120 126 126 112 126 c 15
 107 126 103 122 103 117 c 23
 103 103 109 97 109 84 c 31
 109 75 106 67 106 61 c 7
 106 47 113 45 126 44 c 4
 169 40 201 23 201 0 c 7
 201 -23 169 -40 126 -44 c 4
 113 -45 106 -47 106 -61 c 7
 106 -67 109 -75 109 -84 c 31
 109 -97 103 -103 103 -117 c 15
 103 -122 107 -126 112 -126 c 23
 126 -126 132 -120 145 -120 c 31
 154 -120 162 -123 168 -123 c 7
 182 -123 184 -116 185 -103 c 4
 189 -60 206 -28 229 -28 c 7
EndSplineSet
EndChar

StartChar: bracketleft
Encoding: 91 91 89
Width: 347
VWidth: -9
Flags: MW
HStem: 76 34<49.8472 113.023> 311 20G<11 39>
VStem: 0 49<101.394 331> 6 29<-46.997 54.1958> 118 48<-9.57345 74.6198>
LayerCount: 3
Fore
SplineSet
299 37 m 0xd8
 299 57 289 76 268 76 c 0
 250 76 236 68 228 55 c 0
 217 38 216 11 216 -20 c 3
 216 -43 221 -47 228 -47 c 3
 246 -47 299 -4 299 37 c 0xd8
291 110 m 0
 324 110 347 86 347 50 c 0
 347 7 320 -20 288 -45 c 0
 261 -66 240 -83 220 -102 c 0
 206 -115 189 -116 188 -93 c 2
 187 -73 l 2xd8
 183 158 181 249 181 313 c 3
 181 327 187 331 197 331 c 2
 215 331 l 2
 225 331 230 326 230 313 c 3xe8
 230 278 226 194 226 120 c 0
 226 90 237 96 256 103 c 0
 273 109 280 110 291 110 c 0
118 37 m 0xd8
 118 57 108 76 87 76 c 0
 69 76 55 68 47 55 c 0
 36 38 35 11 35 -20 c 3
 35 -43 40 -47 47 -47 c 3
 65 -47 118 -4 118 37 c 0xd8
110 110 m 0
 143 110 166 86 166 50 c 0
 166 7 139 -20 107 -45 c 0
 80 -66 59 -83 39 -102 c 0
 25 -115 8 -116 7 -93 c 2
 6 -73 l 2xd8
 2 158 0 249 0 313 c 3
 0 327 6 331 16 331 c 2
 34 331 l 2
 44 331 49 326 49 313 c 3xe8
 49 278 45 194 45 120 c 0
 45 90 56 96 75 103 c 0
 92 109 99 110 110 110 c 0
EndSplineSet
EndChar

StartChar: uni0018
Encoding: 24 24 90
Width: 1000
VWidth: 0
HStem: 94.5 2<134 186.5>
VStem: 81 50<172.338 406.979> 97 21.5<-109.432 43.4043 97.984 255.687> 224.5 64<-13.8571 89.4618>
LayerCount: 3
Fore
SplineSet
186.5 94.5 m 3xb0
 167.031 94.5 149.868 81.673 137.667 62.667 c 0
 120.333 35.6667 118.5 -16.4878 118.5 -57.5 c 3
 118.5 -131.562 128.5 -126 169.5 -78 c 0
 202.477 -39.3931 224.5 -12.0024 224.5 40 c 3
 224.5 65.9111 212.411 94.5 186.5 94.5 c 3xb0
106 407 m 3
 125.133 407 131.513 406.494 131 386.5 c 0xd0
 129.5 328 124.5 221.83 124.5 116.5 c 27
 124.5 107.865 124.844 96.5 134 96.5 c 3
 153.007 96.5 188 139 224.5 139 c 3
 265.5 139 288.5 108.854 288.5 73 c 3
 288.5 15.5 267 -27.5 222 -66 c 0
 161.482 -117.777 164.155 -119.343 125.5 -151.5 c 24
 118.787 -157.084 114.731 -162.5 106 -162.5 c 27
 98.1514 -162.5 97 -152.349 97 -144.5 c 27xb0
 97 -50.2998 96 -32 92.6439 97 c 0
 90.2863 187.616 82.5 329 81 384 c 0xd0
 80.4531 404.053 81.5332 407 106 407 c 3
EndSplineSet
EndChar

StartChar: numbersign
Encoding: 35 35 91
Width: 418
Flags: W
HStem: 95 10<58 75> 115 10<256 273>
VStem: 0 49<206.304 434.974> 14 29<-109.275 62.875 105.007 294.933> 151 90<-22.3535 90.177> 198 49<223.136 454.974> 212 29<-89.275 -32.5834 139.587 367.487> 349 69<4.09027 110.078>
LayerCount: 3
Fore
SplineSet
49 415 m 4xe1
 49 350 45 236 45 124 c 4
 45 114 48 105 55 105 c 4
 75 105 110 145 151 145 c 4xe9
 159 145 166 144 172 142 c 4
 199 135 207 135 206 172 c 4
 202 269 198 383 198 438 c 4
 198 453 200 455 221 455 c 4
 241 455 247 454 247 435 c 4xc5
 247 370 243 256 243 144 c 4
 243 134 246 125 253 125 c 4
 273 125 308 165 349 165 c 4
 394 165 418 133 418 94 c 4
 418 33 395 -15 346 -56 c 4
 243 -149 l 5
 235 -154 230 -160 221 -160 c 4
 212 -160 212 -149 212 -140 c 4
 212 -105 212 -79 212 -56 c 4
 211 -6 200 -20 178 -47 c 4
 169 -57 159 -67 148 -76 c 5
 45 -169 l 5
 37 -174 32 -180 23 -180 c 4
 14 -180 14 -169 14 -160 c 4xd3
 14 -58 13 -39 10 100 c 5
 6 203 0 353 0 418 c 4
 0 433 2 435 23 435 c 4
 43 435 49 434 49 415 c 4xe1
112 95 m 4
 58 95 43 49 43 -24 c 6
 43 -67 l 6xd9
 43 -122 53 -124 93 -87 c 4
 130 -51 151 -18 151 39 c 4
 151 67 140 95 112 95 c 4
310 115 m 4
 256 115 241 69 241 -4 c 6xc9
 241 -47 l 6xc3
 241 -102 251 -104 291 -67 c 4
 328 -31 349 2 349 59 c 4
 349 87 338 115 310 115 c 4
EndSplineSet
EndChar

StartChar: A
Encoding: 65 65 93
Width: 498
VWidth: -9
Flags: W
HStem: 104 49<252.114 314.442>
VStem: 0 38<-24.225 210.225> 168 64<229.474 473> 183 30<-92.9197 74.1237> 321 65<-10.5891 98.5352> 460 38<-24.225 210.225>
LayerCount: 3
Fore
SplineSet
460 93 m 4xcc
 460 283 360 377 360 396 c 4
 360 403 360 406 368 406 c 4
 389 406 498 253 498 93 c 4
 498 -67 389 -220 368 -220 c 4
 360 -220 360 -217 360 -210 c 4
 360 -191 460 -97 460 93 c 4xcc
38 93 m 4
 38 -97 138 -191 138 -210 c 4
 138 -217 138 -220 130 -220 c 4
 109 -220 0 -67 0 93 c 4
 0 253 109 406 130 406 c 4
 138 406 138 403 138 396 c 4
 138 377 38 283 38 93 c 4
321 51 m 0
 321 80 310 104 278 104 c 0
 254 104 234 92 225 71 c 0
 214 44 213 2 213 -45 c 3xdc
 213 -81 219 -93 229 -93 c 3
 254 -93 321 -27 321 51 c 0
310 153 m 0
 353 153 386 117 386 75 c 0
 386 13 361 -27 315 -66 c 0
 278 -98 258 -119 230 -146 c 0
 210 -165 186 -182 184 -133 c 2
 183 -104 l 2xdc
 177 226 168 360 168 452 c 3xec
 168 472 174 473 188 473 c 2
 213 473 l 2xdc
 227 473 232 470 232 452 c 3xec
 232 402 227 270 227 165 c 0
 227 117 240 124 271 141 c 0
 283 148 295 153 310 153 c 0
EndSplineSet
EndChar

StartChar: B
Encoding: 66 66 94
Width: 530
VWidth: 0
Flags: HMW
VStem: 34 34<-366.996 -191.21 -85.0122 61.1039 166.607 344.991> 142 34<-344.991 -166.607 -61.6853 85.2936 189.525 366.996>
LayerCount: 3
Fore
SplineSet
194 33 m 2
 194 90.5 160 30.5 160 86 c 2
 160 124 l 2
 160 163 194 135 194 182 c 3
 194 237 191 273 191 328 c 3
 191 343 194 345 210 345 c 3
 226 345 229 342 229 328 c 3
 229 278 228 246 228 196 c 3
 228 165 236 164 252 167 c 2
 276 172 l 2
 294 176 302 182 302 215 c 3
 302 266 301 298 301 349 c 3
 301 362 303 367 319 367 c 3
 338 367 339 363 339 348 c 3
 339 297 336 265 336 214 c 3
 336 163.249 370 216.75 370 166 c 2
 370 136 l 2
 370 92 336 123 336 76 c 2
 336 -33 l 2
 336 -92 370 -31.333 370 -86 c 2
 370 -124 l 2
 370 -163 336 -135 336 -182 c 3
 336 -237 339 -273 339 -328 c 3
 339 -343 336 -345 320 -345 c 3
 303 -345 301 -342 301 -328 c 3
 301 -278 302 -246 302 -196 c 3
 302 -165 294 -164 278 -167 c 2
 254 -172 l 2
 235 -176 228 -182 228 -215 c 3
 228 -266 229 -298 229 -349 c 3
 229 -362 228 -367 211 -367 c 3
 192 -367 191 -363 191 -348 c 3
 191 -297 194 -265 194 -214 c 3
 194 -165.999 160 -221.667 160 -166 c 2
 160 -136 l 2
 160 -89 194 -120 194 -76 c 2
 194 33 l 2
492 0 m 0
 492 190 392 284 392 303 c 0
 392 310 392 313 400 313 c 0
 421 313 530 160 530 0 c 0
 530 -160 421 -313 400 -313 c 0
 392 -313 392 -310 392 -303 c 0
 392 -284 492 -190 492 0 c 0
38 0 m 0
 38 -190 138 -284 138 -303 c 0
 138 -310 138 -313 130 -313 c 0
 109 -313 0 -160 0 0 c 0
 0 160 109 313 130 313 c 0
 138 313 138 310 138 303 c 0
 138 284 38 190 38 0 c 0
303 59 m 2
 303 81 298 90 274 84 c 2
 249 78 l 2
 232 74 227 65 227 48 c 2
 227 -59 l 2
 227 -81 232 -90 256 -84 c 2
 281 -78 l 2
 298 -74 303 -65 303 -48 c 2
 303 59 l 2
EndSplineSet
EndChar

StartChar: asterisk
Encoding: 42 42 95
Width: 249
VWidth: 0
Flags: W
HStem: -201.903 76.3369<0.111572 43.8051> -147.169 76.7354<205.437 248.996> 70.4336 76.7354<0.00405132 43.5632> 125.566 76.3369<205.195 248.888>
VStem: 44 31<-401.991 -202.107 -105.304 70.8953 167.699 375.996> 174 31<-375.996 -167.699 -70.8952 105.304 202.107 401.991>
LayerCount: 3
Fore
SplineSet
75 -87 m 2x0c
 75 -98.5 78.3086 -110.243 99.5 -104.627 c 2
 150.5 -91.1084 l 2
 170.995 -85.6758 174 -74 174 -60 c 2
 174 87 l 2
 174 98.5 170.691 110.243 149.5 104.627 c 2
 98.5 91.1084 l 2
 78.0049 85.6758 75 74 75 60 c 2
 75 -87 l 2x0c
44 54 m 2
 44 68.5 40.5527 75.749 20.5 70.4336 c 0
 5.51074 66.4609 0 75.5 0 85 c 2
 0 125 l 2
 0 136.5 4.38184 143.161 19.5 147.169 c 0xac
 38.4443 152.19 44 160.539 44 175 c 0
 44 248.142 40 336.333 40 362.5 c 0
 40 371.75 44 376 59.5 376 c 0
 76.333 376 79 370.978 79 361.5 c 0
 79 336.333 75 247.002 75 191.5 c 0
 75 170.352 85.3076 164.611 97.5 167.844 c 2
 142.5 179.771 l 2
 159.899 184.383 174 186.935 174 217.5 c 0
 174 284.598 170 360.667 170 389.5 c 0
 170 398.864 174.21 402 190.5 402 c 0
 207.03 402 209 396.289 209 387 c 0
 209 358.333 205 288 205 218 c 0
 205 202.333 212.365 198.289 226 201.903 c 0
 243.04 206.42 249 199.667 249 189.5 c 2
 249 151 l 2
 249 137.333 245.629 130.106 228.5 125.566 c 0
 210.135 120.698 205 116.333 205 98.5 c 2
 205 -54 l 2
 205 -68.5 208.447 -75.748 228.5 -70.4336 c 0
 243.489 -66.4609 249 -75.5 249 -85 c 2
 249 -125 l 2
 249 -136.5 244.618 -143.161 229.5 -147.169 c 0x5c
 210.556 -152.191 205 -160.539 205 -175 c 0
 205 -248.142 209 -336.333 209 -362.5 c 0
 209 -371.75 205 -376 189.5 -376 c 0
 172.667 -376 170 -370.978 170 -361.5 c 0
 170 -336.333 174 -247.002 174 -191.5 c 0
 174 -170.352 163.692 -164.612 151.5 -167.844 c 2
 106.5 -179.771 l 2
 89.1016 -184.383 75 -186.935 75 -217.5 c 0
 75 -284.598 79 -360.667 79 -389.5 c 0
 79 -398.864 74.79 -402 58.5 -402 c 0
 41.9697 -402 40 -396.289 40 -387 c 0
 40 -358.333 44 -288 44 -218 c 0
 44 -202.333 36.6348 -198.289 23 -201.903 c 0
 5.95996 -206.42 0 -199.667 0 -189.5 c 2
 0 -151 l 2
 0 -137.333 3.37109 -130.106 20.5 -125.566 c 0x8c
 38.8652 -120.698 44 -116.333 44 -98.5 c 2
 44 54 l 2
EndSplineSet
EndChar

StartChar: X
Encoding: 88 88 96
Width: 146
VWidth: 0
Flags: W
HStem: -192 93<9.5 91.3989> 98 96<92.3563 170>
VStem: 3 33<-98.9956 74.7993 160.004 389.996> 140 39<-389.996 -160.002 -76.5042 97.9949>
LayerCount: 3
Fore
SplineSet
19 282 m 0
 33 282 37 279 37 264 c 3
 37 228 34 175 34 139 c 3
 34 114 42 112 63 118 c 2
 112 132 l 2
 138 139 144 135 144 110 c 3
 144 56 143 26 143 -28 c 11
 143 -121 146 -210 146 -266 c 3
 146 -278 144 -282 128 -282 c 3
 113 -282 109 -277 109 -267 c 3
 109 -228 112 -176 112 -138 c 3
 112 -112 102 -113 83 -118 c 2
 30 -132 l 2
 6 -137 2 -132 2 -107 c 3
 2 -70 3 -24 3 30 c 27
 3 122 0 230 0 265 c 3
 0 279 3 282 19 282 c 0
34 21 m 2
 34 -49 l 2
 34 -66 44 -67 57 -65 c 2
 89 -57 l 2
 108 -51 112 -44 112 -27 c 2
 112 46 l 2
 112 68 103 68 86 65 c 2
 56 57 l 2
 35 51 34 42 34 21 c 2
EndSplineSet
EndChar

StartChar: C
Encoding: 67 67 97
Width: 710
VWidth: -9
Flags: HW
LayerCount: 3
Fore
SplineSet
672 93 m 4xe6
 672 283 572 377 572 396 c 4
 572 403 572 406 580 406 c 4
 601 406 710 253 710 93 c 4
 710 -67 601 -220 580 -220 c 4
 572 -220 572 -217 572 -210 c 4
 572 -191 672 -97 672 93 c 4xe6
38 93 m 0
 38 -97 138 -191 138 -210 c 0
 138 -217 138 -220 130 -220 c 0
 109 -220 0 -67 0 93 c 0
 0 253 109 406 130 406 c 0
 138 406 138 403 138 396 c 0
 138 377 38 283 38 93 c 0
546 51 m 0
 546 80 535 104 503 104 c 0
 479 104 459 92 450 71 c 0
 439 44 438 2 438 -45 c 3
 438 -81 444 -93 454 -93 c 3
 479 -93 546 -27 546 51 c 0
535 153 m 0
 578 153 611 117 611 75 c 0
 611 13 586 -27 540 -66 c 0
 503 -98 483 -119 455 -146 c 0
 435 -165 411 -182 409 -133 c 2
 408 -104 l 2
 402 226 393 360 393 452 c 3
 393 472 399 473 413 473 c 2
 438 473 l 2
 452 473 457 470 457 452 c 3
 457 402 452 270 452 165 c 0
 452 117 465 124 496 141 c 0
 508 148 520 153 535 153 c 0
321 51 m 0
 321 80 310 104 278 104 c 0
 254 104 234 92 225 71 c 0
 214 44 213 2 213 -45 c 3
 213 -81 219 -93 229 -93 c 3
 254 -93 321 -27 321 51 c 0
310 153 m 0
 353 153 386 117 386 75 c 0
 386 13 361 -27 315 -66 c 0
 278 -98 258 -119 230 -146 c 0
 210 -165 186 -182 184 -133 c 2
 183 -104 l 2
 177 226 168 360 168 452 c 3
 168 472 174 473 188 473 c 2
 213 473 l 2
 227 473 232 470 232 452 c 3
 232 402 227 270 227 165 c 0
 227 117 240 124 271 141 c 0
 283 148 295 153 310 153 c 0
EndSplineSet
EndChar

StartChar: E
Encoding: 69 69 98
Width: 691
VWidth: 0
Flags: HW
LayerCount: 3
Fore
SplineSet
653 15 m 0
 653 205 553 299 553 318 c 0
 553 325 553 328 561 328 c 0
 582 328 691 175 691 15 c 0
 691 -145 582 -298 561 -298 c 0
 553 -298 553 -295 553 -288 c 0
 553 -269 653 -175 653 15 c 0
38 15 m 0
 38 -175 138 -269 138 -288 c 0
 138 -295 138 -298 130 -298 c 0
 109 -298 0 -145 0 15 c 0
 0 175 109 328 130 328 c 0
 138 328 138 325 138 318 c 0
 138 299 38 205 38 15 c 0
197 395 m 3
 217 395 219 394 219 372 c 3
 219 305 218 272 218 208 c 3
 218 174 225 171 253 182 c 2
 285 195 l 2
 327 212 333 209 333 163 c 3
 333 89 332 47 332 -27 c 27
 332 -163 336 -239 336 -375 c 3
 336 -391 335 -394 312 -394 c 3
 294 -394 291 -391 291 -376 c 3
 291 -316 292 -273 292 -206 c 3
 292 -170 283 -171 257 -182 c 2
 223 -196 l 2
 182 -212 177 -210 177 -164 c 3
 177 -103 178 28 178 28 c 11
 178 164 174 240 174 376 c 3
 174 393 177 395 197 395 c 3
245 -105 m 2
 271 -94 l 2
 295 -84 299 -79 299 -41 c 2
 299 74 l 2
 299 104 297 118 264 104 c 2
 244 96 l 2
 215 84 211 82 211 42 c 2
 211 -78 l 2
 211 -113 217 -116 245 -105 c 2
520 51 m 0
 520 80 509 104 477 104 c 0
 453 104 433 92 424 71 c 0
 413 44 412 2 412 -45 c 3
 412 -81 418 -93 428 -93 c 3
 453 -93 520 -27 520 51 c 0
509 153 m 0
 552 153 585 117 585 75 c 0
 585 13 560 -27 514 -66 c 0
 477 -98 457 -119 429 -146 c 0
 409 -165 385 -182 383 -133 c 2
 382 -104 l 2
 376 226 367 360 367 452 c 3
 367 472 373 473 387 473 c 2
 412 473 l 2
 426 473 431 470 431 452 c 3
 431 402 426 270 426 165 c 0
 426 117 439 124 470 141 c 0
 482 148 494 153 509 153 c 0
EndSplineSet
EndChar

StartChar: F
Encoding: 70 70 99
Width: 744
VWidth: 0
Flags: HW
LayerCount: 3
Fore
SplineSet
706 0 m 0
 706 190 606 284 606 303 c 0
 606 310 606 313 614 313 c 0
 635 313 744 160 744 0 c 0
 744 -160 635 -313 614 -313 c 0
 606 -313 606 -310 606 -303 c 0
 606 -284 706 -190 706 0 c 0
38 0 m 0
 38 -190 138 -284 138 -303 c 0
 138 -310 138 -313 130 -313 c 0
 109 -313 0 -160 0 0 c 0
 0 160 109 313 130 313 c 0
 138 313 138 310 138 303 c 0
 138 284 38 190 38 0 c 0
408 33 m 2
 408 89 374 44 374 86 c 2
 374 124 l 2
 374 163 408 135 408 182 c 3
 408 237 405 273 405 328 c 3
 405 343 408 345 424 345 c 3
 440 345 443 342 443 328 c 3
 443 278 442 246 442 196 c 3
 442 165 450 164 466 167 c 2
 490 172 l 2
 508 176 516 182 516 215 c 3
 516 266 515 298 515 349 c 3
 515 362 517 367 533 367 c 3
 552 367 553 363 553 348 c 3
 553 297 550 265 550 214 c 3
 550 168 584 206 584 166 c 2
 584 136 l 2
 584 92 550 123 550 76 c 2
 550 -33 l 2
 550 -89 584 -44 584 -86 c 2
 584 -124 l 2
 584 -163 550 -135 550 -182 c 3
 550 -237 553 -273 553 -328 c 3
 553 -343 550 -345 534 -345 c 3
 517 -345 515 -342 515 -328 c 3
 515 -278 516 -246 516 -196 c 3
 516 -165 508 -164 492 -167 c 2
 468 -172 l 2
 449 -176 442 -182 442 -215 c 3
 442 -266 443 -298 443 -349 c 3
 443 -362 442 -367 425 -367 c 3
 406 -367 405 -363 405 -348 c 3
 405 -297 408 -265 408 -214 c 3
 408 -168 374 -206 374 -166 c 2
 374 -136 l 2
 374 -92 408 -123 408 -76 c 2
 408 33 l 2
517 59 m 2
 517 81 512 90 488 84 c 2
 463 78 l 2
 446 74 441 65 441 48 c 2
 441 -59 l 2
 441 -81 446 -90 470 -84 c 2
 495 -78 l 2
 512 -74 517 -65 517 -48 c 2
 517 59 l 2
197 395 m 3
 217 395 219 394 219 372 c 3
 219 305 218 272 218 208 c 3
 218 174 225 171 253 182 c 2
 285 195 l 2
 327 212 333 209 333 163 c 3
 333 89 332 47 332 -27 c 27
 332 -163 336 -239 336 -375 c 3
 336 -391 335 -394 312 -394 c 3
 294 -394 291 -391 291 -376 c 3
 291 -316 292 -273 292 -206 c 3
 292 -170 283 -171 257 -182 c 2
 223 -196 l 2
 182 -212 177 -210 177 -164 c 3
 177 -103 178 28 178 28 c 11
 178 164 174 240 174 376 c 3
 174 393 177 395 197 395 c 3
245 -105 m 2
 271 -94 l 2
 295 -84 299 -79 299 -41 c 2
 299 74 l 2
 299 104 297 118 264 104 c 2
 244 96 l 2
 215 84 211 82 211 42 c 2
 211 -78 l 2
 211 -113 217 -116 245 -105 c 2
EndSplineSet
EndChar

StartChar: I
Encoding: 73 73 100
Width: 371
VWidth: -9
Flags: W
HStem: -241 30<31.625 121.976 249.006 339.585> 104 49<162.114 224.442> 521 31<31.2707 121.994 249.006 339.545>
VStem: 0 31<-210.738 520.736> 78 64<229.474 473> 93 30<-92.9197 74.1237> 231 65<-10.5891 98.5352> 340 31<-209.736 521.738>
LayerCount: 3
Fore
SplineSet
371 526 m 0xf3
 371 -217 l 0
 371 -231 365 -241 350 -241 c 0
 273 -241 l 0
 254 -241 249 -236 249 -226 c 0
 249 -210 257 -210 282 -210 c 0
 316 -210 l 0
 336 -210 340 -208 340 -187 c 0
 340 493 l 0
 340 517 338 522 318 522 c 0
 273 522 l 0
 254 522 249 524 249 536 c 0
 249 550 257 552 282 552 c 0
 347 552 l 0
 361 552 371 546 371 526 c 0xf3
0 -215 m 0
 0 528 l 0
 0 542 6 552 21 552 c 0
 98 552 l 0
 117 552 122 547 122 537 c 0
 122 521 114 521 89 521 c 0
 55 521 l 0
 35 521 31 519 31 498 c 0
 31 -182 l 0
 31 -206 33 -211 53 -211 c 0
 98 -211 l 0
 117 -211 122 -213 122 -225 c 0
 122 -239 114 -241 89 -241 c 0
 24 -241 l 0
 10 -241 0 -235 0 -215 c 0
231 51 m 0
 231 80 220 104 188 104 c 0
 164 104 144 92 135 71 c 0
 124 44 123 2 123 -45 c 3xf7
 123 -81 129 -93 139 -93 c 3
 164 -93 231 -27 231 51 c 0
220 153 m 0
 263 153 296 117 296 75 c 0
 296 13 271 -27 225 -66 c 0
 188 -98 168 -119 140 -146 c 0
 120 -165 96 -182 94 -133 c 2
 93 -104 l 2xf7
 87 226 78 360 78 452 c 3xfb
 78 472 84 473 98 473 c 2
 123 473 l 2xf7
 137 473 142 470 142 452 c 3xfb
 142 402 137 270 137 165 c 0
 137 117 150 124 181 141 c 0
 193 148 205 153 220 153 c 0
EndSplineSet
EndChar

StartChar: J
Encoding: 74 74 101
Width: 370
VWidth: 0
Flags: HW
VStem: 114 34<-366.996 -191.21 -85.0122 61.1039 166.607 344.991> 222 34<-344.991 -166.607 -61.6853 85.2936 189.525 366.996>
LayerCount: 3
Fore
SplineSet
114 33 m 2
 114 90.5 80 30.5 80 86 c 2
 80 124 l 2
 80 163 114 135 114 182 c 3
 114 237 111 273 111 328 c 3
 111 343 114 345 130 345 c 3
 146 345 149 342 149 328 c 3
 149 278 148 246 148 196 c 3
 148 165 156 164 172 167 c 2
 196 172 l 2
 214 176 222 182 222 215 c 3
 222 266 221 298 221 349 c 3
 221 362 223 367 239 367 c 3
 258 367 259 363 259 348 c 3
 259 297 256 265 256 214 c 3
 256 163.249 290 216.75 290 166 c 2
 290 136 l 2
 290 92 256 123 256 76 c 2
 256 -33 l 2
 256 -92 290 -31.333 290 -86 c 2
 290 -124 l 2
 290 -163 256 -135 256 -182 c 3
 256 -237 259 -273 259 -328 c 3
 259 -343 256 -345 240 -345 c 3
 223 -345 221 -342 221 -328 c 3
 221 -278 222 -246 222 -196 c 3
 222 -165 214 -164 198 -167 c 2
 174 -172 l 2
 155 -176 148 -182 148 -215 c 3
 148 -266 149 -298 149 -349 c 3
 149 -362 148 -367 131 -367 c 3
 112 -367 111 -363 111 -348 c 3
 111 -297 114 -265 114 -214 c 3
 114 -165.999 80 -221.667 80 -166 c 2
 80 -136 l 2
 80 -89 114 -120 114 -76 c 2
 114 33 l 2
370 416 m 0
 370 -418 l 0
 370 -432 364 -442 349 -442 c 0
 272 -442 l 0
 253 -442 248 -437 248 -427 c 0
 248 -411 256 -411 281 -411 c 0
 315 -411 l 0
 335 -411 339 -409 339 -388 c 0
 339 383 l 0
 339 407 337 412 317 412 c 0
 272 412 l 0
 253 412 248 414 248 426 c 0
 248 440 256 442 281 442 c 0
 346 442 l 0
 360 442 370 436 370 416 c 0
0 -416 m 0
 0 418 l 0
 0 432 6 442 21 442 c 0
 98 442 l 0
 117 442 122 437 122 427 c 0
 122 411 114 411 89 411 c 0
 55 411 l 0
 35 411 31 409 31 388 c 0
 31 -383 l 0
 31 -407 33 -412 53 -412 c 0
 98 -412 l 0
 117 -412 122 -414 122 -426 c 0
 122 -440 114 -442 89 -442 c 0
 24 -442 l 0
 10 -442 0 -436 0 -416 c 0
223 59 m 2
 223 81 218 90 194 84 c 2
 169 78 l 2
 152 74 147 65 147 48 c 2
 147 -59 l 2
 147 -81 152 -90 176 -84 c 2
 201 -78 l 2
 218 -74 223 -65 223 -48 c 2
 223 59 l 2
EndSplineSet
EndChar

StartChar: K
Encoding: 75 75 102
Width: 596
VWidth: -9
Flags: HW
LayerCount: 3
Fore
SplineSet
596 526 m 0
 596 -217 l 0
 596 -231 590 -241 575 -241 c 0
 498 -241 l 0
 479 -241 474 -236 474 -226 c 0
 474 -210 482 -210 507 -210 c 0
 541 -210 l 0
 561 -210 565 -208 565 -187 c 0
 565 493 l 0
 565 517 563 522 543 522 c 0
 498 522 l 0
 479 522 474 524 474 536 c 0
 474 550 482 552 507 552 c 0
 572 552 l 0
 586 552 596 546 596 526 c 0
0 -215 m 0
 0 528 l 0
 0 542 6 552 21 552 c 0
 98 552 l 0
 117 552 122 547 122 537 c 0
 122 521 114 521 89 521 c 0
 55 521 l 0
 35 521 31 519 31 498 c 0
 31 -182 l 0
 31 -206 33 -211 53 -211 c 0
 98 -211 l 0
 117 -211 122 -213 122 -225 c 0
 122 -239 114 -241 89 -241 c 0
 24 -241 l 0
 10 -241 0 -235 0 -215 c 0
456 51 m 0
 456 80 445 104 413 104 c 0
 389 104 369 92 360 71 c 0
 349 44 348 2 348 -45 c 3
 348 -81 354 -93 364 -93 c 3
 389 -93 456 -27 456 51 c 0
445 153 m 0
 488 153 521 117 521 75 c 0
 521 13 496 -27 450 -66 c 0
 413 -98 393 -119 365 -146 c 0
 345 -165 321 -182 319 -133 c 2
 318 -104 l 2
 312 226 303 360 303 452 c 3
 303 472 309 473 323 473 c 2
 348 473 l 2
 362 473 367 470 367 452 c 3
 367 402 362 270 362 165 c 0
 362 117 375 124 406 141 c 0
 418 148 430 153 445 153 c 0
231 51 m 0
 231 80 220 104 188 104 c 0
 164 104 144 92 135 71 c 0
 124 44 123 2 123 -45 c 3
 123 -81 129 -93 139 -93 c 3
 164 -93 231 -27 231 51 c 0
220 153 m 0
 263 153 296 117 296 75 c 0
 296 13 271 -27 225 -66 c 0
 188 -98 168 -119 140 -146 c 0
 120 -165 96 -182 94 -133 c 2
 93 -104 l 2
 87 226 78 360 78 452 c 3
 78 472 84 473 98 473 c 2
 123 473 l 2
 137 473 142 470 142 452 c 3
 142 402 137 270 137 165 c 0
 137 117 150 124 181 141 c 0
 193 148 205 153 220 153 c 0
EndSplineSet
EndChar

StartChar: L
Encoding: 76 76 103
Width: 406
VWidth: 0
Flags: HW
LayerCount: 3
Fore
SplineSet
406 179 m 0
 406 -181 l 0
 406 -195 400 -205 385 -205 c 0
 328 -205 l 0
 309 -205 304 -200 304 -190 c 0
 304 -174 312 -174 337 -174 c 0
 351 -174 l 0
 371.001 -174 375 -172 375 -151 c 0
 375 146 l 0
 375 170 373 175 353 175 c 0
 328 175 l 0
 309 175 304 177 304 189 c 0
 304 203 312 205 337 205 c 0
 382 205 l 0
 395.999 205 406 199 406 179 c 0
0 -179 m 0
 0 181 l 0
 0 195 6 205 21 205 c 0
 78 205 l 0
 97 205 102 200 102 190 c 0
 102 174 94 174 69 174 c 0
 55 174 l 0
 34.999 174 31 172 31 151 c 0
 31 -146 l 0
 31 -170 33 -175 53 -175 c 0
 78 -175 l 0
 97 -175 102 -177 102 -189 c 0
 102 -203 94 -205 69 -205 c 0
 24 -205 l 0
 10.001 -205 0 -199 0 -179 c 0
203 -28 m 3
 226 -28 243 -60 247 -103 c 0
 248 -116 250 -123 264 -123 c 3
 270 -123 278 -120 287 -120 c 27
 300 -120 306 -126 320 -126 c 11
 325 -126 329 -122 329 -117 c 19
 329 -103 323 -97 323 -84 c 27
 323 -75 326 -67 326 -61 c 3
 326 -47 319 -45 306 -44 c 0
 263 -40 231 -23 231 0 c 3
 231 23 263 40 306 44 c 0
 319 45 326 47 326 61 c 3
 326 67 323 75 323 84 c 27
 323 97 329 103 329 117 c 11
 329 122 325 126 320 126 c 19
 306 126 300 120 287 120 c 27
 278 120 270 123 264 123 c 3
 250 123 248 116 247 103 c 0
 243 60 226 28 203 28 c 3
 180 28 163 60 159 103 c 0
 158 116 156 123 142 123 c 3
 136 123 128 120 119 120 c 27
 106 120 100 126 86 126 c 11
 81 126 77 122 77 117 c 19
 77 103 83 97 83 84 c 27
 83 75 80 67 80 61 c 3
 80 47 87 45 100 44 c 0
 143 40 175 23 175 0 c 3
 175 -23 143 -40 100 -44 c 0
 87 -45 80 -47 80 -61 c 3
 80 -67 83 -75 83 -84 c 27
 83 -97 77 -103 77 -117 c 11
 77 -122 81 -126 86 -126 c 19
 100 -126 106 -120 119 -120 c 27
 128 -120 136 -123 142 -123 c 3
 156 -123 158 -116 159 -103 c 0
 163 -60 180 -28 203 -28 c 3
EndSplineSet
EndChar

StartChar: N
Encoding: 78 78 104
Width: 579
VWidth: 0
Flags: HW
HStem: -436 30<31.625 121.976 457.006 547.585> 441 31<31.2707 121.994 457.006 547.545>
VStem: 0 31<-405.738 440.736> 89 45<177.655 394.994> 92 34<-109.34 88.5925> 206 45<-393.991 -177.045> 214 34<-88.6519 108.557> 323 34<-366.996 -187.947 -85.2936 64.4386 166.607 344.991> 431 34<-344.991 -166.607 -64.4386 85.2936 187.947 366.996> 548 31<-404.736 441.738>
LayerCount: 3
Fore
SplineSet
579 446 m 0xe1c0
 579 -412 l 0
 579 -426 573 -436 558 -436 c 0
 481 -436 l 0
 462 -436 457 -431 457 -421 c 0
 457 -405 465 -405 490 -405 c 0
 524 -405 l 0
 544 -405 548 -403 548 -382 c 0
 548 413 l 0
 548 437 546 442 526 442 c 0
 481 442 l 0
 462 442 457 444 457 456 c 0
 457 470 465 472 490 472 c 0
 555 472 l 0
 569 472 579 466 579 446 c 0xe1c0
0 -410 m 0
 0 448 l 0
 0 462 6 472 21 472 c 0
 98 472 l 0
 117 472 122 467 122 457 c 0
 122 441 114 441 89 441 c 0
 55 441 l 0
 35 441 31 439 31 418 c 0
 31 -377 l 0
 31 -401 33 -406 53 -406 c 0
 98 -406 l 0
 117 -406 122 -408 122 -420 c 0
 122 -434 114 -436 89 -436 c 0xf1c0
 24 -436 l 0
 10 -436 0 -430 0 -410 c 0
323 33 m 2
 323 89 289 44 289 86 c 2
 289 124 l 2
 289 163 323 135 323 182 c 3
 323 237 320 273 320 328 c 3
 320 343 323 345 339 345 c 3
 355 345 358 342 358 328 c 3
 358 278 357 246 357 196 c 3
 357 165 365 164 381 167 c 2
 405 172 l 2
 423 176 431 182 431 215 c 3
 431 266 430 298 430 349 c 3
 430 362 432 367 448 367 c 3
 467 367 468 363 468 348 c 3
 468 297 465 265 465 214 c 3
 465 168 499 206 499 166 c 2
 499 136 l 2
 499 92 465 123 465 76 c 2
 465 -33 l 2
 465 -89 499 -44 499 -86 c 2
 499 -124 l 2
 499 -163 465 -135 465 -182 c 3
 465 -237 468 -273 468 -328 c 3
 468 -343 465 -345 449 -345 c 3
 432 -345 430 -342 430 -328 c 3
 430 -278 431 -246 431 -196 c 3
 431 -165 423 -164 407 -167 c 2
 383 -172 l 2
 364 -176 357 -182 357 -215 c 3
 357 -266 358 -298 358 -349 c 3
 358 -362 357 -367 340 -367 c 3
 321 -367 320 -363 320 -348 c 3
 320 -297 323 -265 323 -214 c 3
 323 -168 289 -206 289 -166 c 2
 289 -136 l 2
 289 -92 323 -123 323 -76 c 2
 323 33 l 2
432 59 m 2
 432 81 427 90 403 84 c 2
 378 78 l 2
 361 74 356 65 356 48 c 2
 356 -59 l 2
 356 -81 361 -90 385 -84 c 2
 410 -78 l 2
 427 -74 432 -65 432 -48 c 2
 432 59 l 2
112 395 m 3
 132 395 134 394 134 372 c 3
 134 305 133 272 133 208 c 3
 133 174 140 171 168 182 c 2
 200 195 l 2
 242 212 248 209 248 163 c 3xf3c0
 248 89 247 47 247 -27 c 27
 247 -163 251 -239 251 -375 c 3
 251 -391 250 -394 227 -394 c 3
 209 -394 206 -391 206 -376 c 3
 206 -316 207 -273 207 -206 c 3
 207 -170 198 -171 172 -182 c 2
 138 -196 l 2
 97 -212 92 -210 92 -164 c 3xedc0
 92 -103 93 28 93 28 c 11
 93 164 89 240 89 376 c 3
 89 393 92 395 112 395 c 3
160 -105 m 2
 186 -94 l 2
 210 -84 214 -79 214 -41 c 2
 214 74 l 2
 214 104 212 118 179 104 c 2
 159 96 l 2
 130 84 126 82 126 42 c 2
 126 -78 l 2xebc0
 126 -113 132 -116 160 -105 c 2
EndSplineSet
EndChar

StartChar: Q
Encoding: 81 81 105
Width: 170
VWidth: -9
Flags: W
HStem: 69 31<48.8725 103.808> 313 20G<18 33> 313 20G<18 33>
VStem: 4 43<111.193 332.997> 9 31<-54.4707 61.8587 94.0008 311.977> 110 60<-27.664 67.1283>
LayerCount: 3
Fore
SplineSet
78 69 m 3x8c
 48 69 40 47 40 2 c 2
 40 -45 l 2
 40 -66 55 -61 69 -49 c 0
 96 -27 110 5 110 29 c 3
 110 52 100 69 78 69 c 3x8c
26 333 m 3xd4
 44 333 51 330 51 315 c 3xd4
 51 251 42 155 42 109 c 3
 42 95 49 94 54 94 c 3
 62 94 73 100 100 100 c 3
 141 100 170 74 170 33 c 3
 170 -3 153 -32 115 -56 c 0
 50 -97 32 -120 19 -120 c 3
 11 -120 8 -115 8 -101 c 3
 8 -67 9 -34 9 9 c 27xcc
 9 128 0 234 0 314 c 3
 0 329 6 333 26 333 c 3xd4
EndSplineSet
EndChar

StartChar: R
Encoding: 82 82 106
Width: 195
VWidth: 0
Flags: W
HStem: -187 83<1.65186 41.8347> -149 67<95.4941 160.5> 82 66<87.1867 166.015> 322 20G<51 71>
VStem: 36 50<-369.883 -187.491 148.672 341.889> 44 32<-81.8171 41.8271> 167 50<-341.912 -149.594 186.303 369.922> 177 32<-42.7483 81.5072>
LayerCount: 3
Fore
SplineSet
48 238 m 0
 64 238 67 234 67 222 c 0
 67 191 64 152 64 118 c 3
 64 108 68 104 75 104 c 0
 85 104 103 110 116 114 c 0
 124 117 131 122 131 137 c 3
 131 173 128 213 128 240 c 3
 128 259 137 260 146 260 c 3
 161 260 165 257 165 242 c 3
 165 223 162 180 162 145 c 3
 162 135 164 130 179 132 c 0
 193 134 195 123 195 110 c 2
 195 99 l 2
 195 79 193 77 178 73 c 0
 168 70 162 63 162 47 c 2
 162 -14 l 2
 162 -26 167 -30 178 -28 c 0
 191 -26 195 -30 195 -48 c 2
 195 -60 l 2
 195 -74 194 -81 178 -87 c 0
 166 -92 162 -94 162 -114 c 3
 162 -152 166 -193 166 -225 c 3
 166 -236 157 -238 147 -238 c 3
 133 -238 127 -234 127 -224 c 3
 127 -195 131 -155 131 -123 c 3
 131 -110 128 -105 120 -105 c 0
 114 -105 83 -113 76 -117 c 0
 68 -122 64 -128 64 -139 c 0
 64 -177 68 -203 68 -239 c 0
 68 -252 66 -260 49 -260 c 0
 32 -260 29 -253 29 -240 c 0
 29 -222 33 -196 33 -151 c 0
 33 -138 27 -133 16 -134 c 0
 5 -135 0 -134 0 -119 c 2
 0 -105 l 2
 0 -92 0 -83 15 -76 c 0
 27 -71 33 -68 33 -44 c 2
 33 14 l 2
 33 25 26 28 17 26 c 0
 0 22 0 35 0 47 c 2
 0 59 l 2
 0 71 2 80 15 85 c 0
 27 90 33 92 33 110 c 0
 33 151 30 189 30 223 c 0
 30 235 36 238 48 238 c 0
64 22 m 2
 64 -34 l 2
 64 -53 70 -57 81 -55 c 0
 93 -53 113 -47 119 -44 c 0
 128 -40 131 -28 131 -17 c 2
 131 33 l 2
 131 52 126 57 114 55 c 0
 104 53 86 48 76 44 c 0
 66 40 64 34 64 22 c 2
EndSplineSet
EndChar

StartChar: e
Encoding: 101 101 107
Width: 573
VWidth: 0
Flags: W
HStem: 76 34<361.847 425.023>
VStem: 0 34<-57.8099 107.81> 146 31<-65.1783 54.5918 116.154 281.998> 252 37<-281.996 -116.912 -56.4343 65.2719> 312 49<101.394 331> 318 29<-46.997 54.1958> 430 48<-9.57345 74.6198> 539 34<-57.8099 107.81>
LayerCount: 3
Fore
SplineSet
539 25 m 0xf3
 539 140 465 190 465 206 c 0
 465 211 466 213 473 213 c 0
 491 213 573 133 573 25 c 0
 573 -83 491 -163 473 -163 c 0
 466 -163 465 -161 465 -156 c 0
 465 -140 539 -90 539 25 c 0xf3
34 25 m 0
 34 -90 108 -140 108 -156 c 0
 108 -161 107 -163 100 -163 c 0
 82 -163 0 -83 0 25 c 0
 0 133 82 213 100 213 c 0
 107 213 108 211 108 206 c 0
 108 190 34 140 34 25 c 0
430 37 m 0
 430 57 420 76 399 76 c 0
 381 76 367 68 359 55 c 0
 348 38 347 11 347 -20 c 3xf7
 347 -43 352 -47 359 -47 c 3
 377 -47 430 -4 430 37 c 0
422 110 m 0
 455 110 478 86 478 50 c 0
 478 7 451 -20 419 -45 c 0
 392 -66 371 -83 351 -102 c 0
 337 -115 320 -116 319 -93 c 2
 318 -73 l 2xf7
 314 158 312 249 312 313 c 3
 312 327 318 331 328 331 c 2
 346 331 l 2
 356 331 361 326 361 313 c 3xfb
 361 278 357 194 357 120 c 0
 357 90 368 96 387 103 c 0
 404 109 411 110 422 110 c 0
162 282 m 0
 176 282 180 279 180 264 c 3
 180 228 177 175 177 139 c 3
 177 114 185 112 206 118 c 2
 255 132 l 2
 281 139 287 135 287 110 c 3
 287 56 286 26 286 -28 c 11
 286 -121 289 -210 289 -266 c 3
 289 -278 287 -282 271 -282 c 3
 256 -282 252 -277 252 -267 c 3
 252 -228 255 -176 255 -138 c 3
 255 -112 245 -113 226 -118 c 2
 173 -132 l 2
 149 -137 145 -132 145 -107 c 3
 145 -70 146 -24 146 30 c 27
 146 122 143 230 143 265 c 3
 143 279 146 282 162 282 c 0
177 21 m 2
 177 -49 l 2
 177 -66 187 -67 200 -65 c 2
 232 -57 l 2
 251 -51 255 -44 255 -27 c 2
 255 46 l 2
 255 68 246 68 229 65 c 2
 199 57 l 2
 178 51 177 42 177 21 c 2
EndSplineSet
EndChar

StartChar: f
Encoding: 102 102 108
Width: 634
VWidth: 0
Flags: W
VStem: 0 34<-82.8099 82.8099> 143 31<-65.1783 54.5918 116.154 281.998> 249 37<-281.996 -116.912 -56.4343 65.2719> 347 31<-259.998 -132.245 -54.1313 25.4922 106.656 237.997> 445 31<-237.997 -106.656 -25.7793 54.1144 133.18 259.998> 600 34<-82.8099 82.8099>
LayerCount: 3
Fore
SplineSet
600 0 m 0
 600 115 526 165 526 181 c 0
 526 186 527 188 534 188 c 0
 552 188 634 108 634 0 c 0
 634 -108 552 -188 534 -188 c 0
 527 -188 526 -186 526 -181 c 0
 526 -165 600 -115 600 0 c 0
34 0 m 0
 34 -115 108 -165 108 -181 c 0
 108 -186 107 -188 100 -188 c 0
 82 -188 0 -108 0 0 c 0
 0 108 82 188 100 188 c 0
 107 188 108 186 108 181 c 0
 108 165 34 115 34 0 c 0
347 8 m 2
 347 43 314 11 314 39 c 2
 314 67 l 2
 314 92 347 78 347 114 c 3
 347 155 344 189 344 223 c 3
 344 235 346 238 362 238 c 3
 379 238 379 234 379 222 c 3
 379 191 378 159 378 125 c 3
 378 109 383 102 397 106 c 2
 425 113 l 2
 434 115 445 120 445 140 c 3
 445 176 444 213 444 240 c 3
 444 259 447 260 460 260 c 3
 478 260 479 257 479 242 c 3
 479 223 476 180 476 145 c 3
 476 116 509 152 509 114 c 2
 509 92 l 2
 509 66 476 81 476 47 c 2
 476 -9 l 2
 476 -43 509 -11 509 -39 c 2
 509 -67 l 2
 509 -92 476 -78 476 -114 c 3
 476 -155 479 -189 479 -223 c 3
 479 -235 477 -238 461 -238 c 3
 444 -238 444 -234 444 -222 c 3
 444 -191 445 -159 445 -125 c 3
 445 -109 440 -102 426 -106 c 2
 398 -113 l 2
 389 -115 378 -121 378 -140 c 3
 378 -176 379 -213 379 -240 c 3
 379 -259 376 -260 363 -260 c 3
 345 -260 344 -257 344 -242 c 3
 344 -223 347 -180 347 -145 c 3
 347 -115 314 -150 314 -116 c 2
 314 -92 l 2
 314 -67 347 -81 347 -47 c 2
 347 8 l 2
445 34 m 2
 445 50 440 58 426 54 c 2
 398 46 l 2
 388 43 378 38 378 19 c 2
 378 -34 l 2
 378 -51 384 -58 397 -54 c 2
 425 -46 l 2
 436 -43 445 -39 445 -19 c 2
 445 34 l 2
159 282 m 0
 173 282 177 279 177 264 c 3
 177 228 174 175 174 139 c 3
 174 114 182 112 203 118 c 2
 252 132 l 2
 278 139 284 135 284 110 c 3
 284 56 283 26 283 -28 c 11
 283 -121 286 -210 286 -266 c 3
 286 -278 284 -282 268 -282 c 3
 253 -282 249 -277 249 -267 c 3
 249 -228 252 -176 252 -138 c 3
 252 -112 242 -113 223 -118 c 2
 170 -132 l 2
 146 -137 142 -132 142 -107 c 3
 142 -70 143 -24 143 30 c 27
 143 122 140 230 140 265 c 3
 140 279 143 282 159 282 c 0
174 21 m 2
 174 -49 l 2
 174 -66 184 -67 197 -65 c 2
 229 -57 l 2
 248 -51 252 -44 252 -27 c 2
 252 46 l 2
 252 68 243 68 226 65 c 2
 196 57 l 2
 175 51 174 42 174 21 c 2
EndSplineSet
EndChar

StartChar: h
Encoding: 104 104 109
Width: 306
VWidth: 0
Flags: HW
LayerCount: 3
Fore
SplineSet
306 329 m 4
 306 -331 l 4
 306 -345 300 -355 285 -355 c 4
 208 -355 l 4
 189 -355 184 -350 184 -340 c 4
 184 -324 192 -324 217 -324 c 4
 251 -324 l 4
 271 -324 275 -322 275 -301 c 4
 275 296 l 4
 275 320 273 325 253 325 c 4
 208 325 l 4
 189 325 184 327 184 339 c 4
 184 353 192 355 217 355 c 4
 282 355 l 4
 296 355 306 349 306 329 c 4
0 -329 m 4
 0 331 l 4
 0 345 6 355 21 355 c 4
 98 355 l 4
 117 355 122 350 122 340 c 4
 122 324 114 324 89 324 c 4
 55 324 l 4
 35 324 31 322 31 301 c 4
 31 -296 l 4
 31 -320 33 -325 53 -325 c 4
 98 -325 l 4
 117 -325 122 -327 122 -339 c 4
 122 -353 114 -355 89 -355 c 4
 24 -355 l 4
 10 -355 0 -349 0 -329 c 4
99 282 m 0
 113 282 117 279 117 264 c 3
 117 228 114 175 114 139 c 3
 114 114 122 112 143 118 c 2
 192 132 l 2
 218 139 224 135 224 110 c 3
 224 56 223 26 223 -28 c 11
 223 -121 226 -210 226 -266 c 3
 226 -278 224 -282 208 -282 c 3
 193 -282 189 -277 189 -267 c 3
 189 -228 192 -176 192 -138 c 3
 192 -112 182 -113 163 -118 c 2
 110 -132 l 2
 86 -137 82 -132 82 -107 c 3
 82 -70 83 -24 83 30 c 27
 83 122 80 230 80 265 c 3
 80 279 83 282 99 282 c 0
114 21 m 2
 114 -49 l 2
 114 -66 124 -67 137 -65 c 2
 169 -57 l 2
 188 -51 192 -44 192 -27 c 2
 192 46 l 2
 192 68 183 68 166 65 c 2
 136 57 l 2
 115 51 114 42 114 21 c 2
EndSplineSet
EndChar

StartChar: i
Encoding: 105 105 110
Width: 324
VWidth: -9
Flags: HW
LayerCount: 3
Fore
SplineSet
324 393 m 4
 324 -165 l 4
 324 -179 318 -189 303 -189 c 4
 226 -189 l 4
 207 -189 202 -184 202 -174 c 4
 202 -158 210 -158 235 -158 c 4
 269 -158 l 4
 289 -158 293 -156 293 -135 c 4
 293 360 l 4
 293 384 291 389 271 389 c 4
 226 389 l 4
 207 389 202 391 202 403 c 4
 202 417 210 419 235 419 c 4
 300 419 l 4
 314 419 324 413 324 393 c 4
0 -163 m 0
 0 395 l 0
 0 409 6 419 21 419 c 0
 98 419 l 0
 117 419 122 414 122 404 c 0
 122 388 114 388 89 388 c 0
 55 388 l 0
 35 388 31 386 31 365 c 0
 31 -130 l 0
 31 -154 33 -159 53 -159 c 0
 98 -159 l 0
 117 -159 122 -161 122 -173 c 0
 122 -187 114 -189 89 -189 c 0
 24 -189 l 0
 10 -189 0 -183 0 -163 c 0
206 37 m 0xd8
 206 57 196 76 175 76 c 0
 157 76 143 68 135 55 c 0
 124 38 123 11 123 -20 c 3
 123 -43 128 -47 135 -47 c 3
 153 -47 206 -4 206 37 c 0xd8
198 110 m 0
 231 110 254 86 254 50 c 0
 254 7 227 -20 195 -45 c 0
 168 -66 147 -83 127 -102 c 0
 113 -115 96 -116 95 -93 c 2
 94 -73 l 2xd8
 90 158 88 249 88 313 c 3
 88 327 94 331 104 331 c 2
 122 331 l 2
 132 331 137 326 137 313 c 3xe8
 137 278 133 194 133 120 c 0
 133 90 144 96 163 103 c 0
 180 109 187 110 198 110 c 0
EndSplineSet
EndChar

StartChar: j
Encoding: 106 106 111
Width: 343
VWidth: 0
Flags: HW
LayerCount: 3
Fore
SplineSet
343 306 m 0
 343 -307 l 0
 343 -321 337 -331 322 -331 c 0
 245 -331 l 0
 226 -331 221 -326 221 -316 c 0
 221 -300 229 -300 254 -300 c 0
 288 -300 l 0
 308 -300 312 -298 312 -277 c 0
 312 273 l 0
 312 297 310 302 290 302 c 0
 245 302 l 0
 226 302 221 304 221 316 c 0
 221 330 229 332 254 332 c 0
 319 332 l 0
 333 332 343 326 343 306 c 0
0 -305 m 0
 0 308 l 0
 0 322 6 332 21 332 c 0
 98 332 l 0
 117 332 122 327 122 317 c 0
 122 301 114 301 89 301 c 0
 55 301 l 0
 35 301 31 299 31 278 c 0
 31 -272 l 0
 31 -296 33 -301 53 -301 c 0
 98 -301 l 0
 117 -301 122 -303 122 -315 c 0
 122 -329 114 -331 89 -331 c 0
 24 -331 l 0
 10 -331 0 -325 0 -305 c 0
97 8 m 2
 97 43 64 11 64 39 c 2
 64 67 l 2
 64 92 97 78 97 114 c 3
 97 155 94 189 94 223 c 3
 94 235 96 238 112 238 c 3
 129 238 129 234 129 222 c 3
 129 191 128 159 128 125 c 3
 128 109 133 102 147 106 c 2
 175 113 l 2
 184 115 195 120 195 140 c 3
 195 176 194 213 194 240 c 3
 194 259 197 260 210 260 c 3
 228 260 229 257 229 242 c 3
 229 223 226 180 226 145 c 3
 226 116 259 152 259 114 c 2
 259 92 l 2
 259 66 226 81 226 47 c 2
 226 -9 l 2
 226 -43 259 -11 259 -39 c 2
 259 -67 l 2
 259 -92 226 -78 226 -114 c 3
 226 -155 229 -189 229 -223 c 3
 229 -235 227 -238 211 -238 c 3
 194 -238 194 -234 194 -222 c 3
 194 -191 195 -159 195 -125 c 3
 195 -109 190 -102 176 -106 c 2
 148 -113 l 2
 139 -115 128 -121 128 -140 c 3
 128 -176 129 -213 129 -240 c 3
 129 -259 126 -260 113 -260 c 3
 95 -260 94 -257 94 -242 c 3
 94 -223 97 -180 97 -145 c 3
 97 -115 64 -150 64 -116 c 2
 64 -92 l 2
 64 -67 97 -81 97 -47 c 2
 97 8 l 2
195 34 m 2
 195 50 190 58 176 54 c 2
 148 46 l 2
 138 43 128 38 128 19 c 2
 128 -34 l 2
 128 -51 134 -58 147 -54 c 2
 175 -46 l 2
 186 -43 195 -39 195 -19 c 2
 195 34 l 2
EndSplineSet
EndChar

StartChar: Eth
Encoding: 208 208 114
Width: 210
VWidth: 0
Flags: W
VStem: 88 33<-355.995 -56.6612 56.0195 355.994>
LayerCount: 3
Fore
SplineSet
88 137 m 2
 88 237 85 293 85 333 c 0
 85 351 85 356 105 356 c 0
 126 356 123 348 123 329 c 0
 123 266 121 241 121 141 c 2
 121 89 l 2
 121 62 131 50 155 56 c 2
 183 62 l 2
 206 68 210 59 210 44 c 2
 210 9 l 2
 210 -12 208 -20 185 -25 c 2
 156 -32 l 2
 127 -39 121 -52 121 -79 c 2
 121 -142 l 2
 121 -242 123 -266 123 -330 c 0
 123 -349 126 -356 105 -356 c 0
 85 -356 85 -352 85 -333 c 0
 85 -294 88 -237 88 -137 c 2
 88 -86 l 2
 88 -62 76 -51 53 -56 c 2
 23 -64 l 2
 1 -69 0 -62 0 -44 c 2
 0 -4 l 2
 0 14 3 20 21 24 c 2
 49 31 l 2
 76 37 88 51 88 91 c 2
 88 137 l 2
EndSplineSet
EndChar

StartChar: Ntilde
Encoding: 209 209 115
Width: 211
VWidth: 0
Flags: W
VStem: 87 38<-355.985 -183.707 -71.165 71.165 183.707 355.994>
LayerCount: 3
Fore
SplineSet
89 42 m 2
 89 66 78 76 53 70 c 2
 23 63 l 2
 1 58 0 65 0 83 c 2
 0 123 l 2
 0 141 3 147 21 151 c 2
 45 157 l 2
 77 164 89 170 88 221 c 0
 87 271 86 306 86 333 c 0
 86 351 86 356 106 356 c 0
 127 356 124 348 124 329 c 0
 124 287 123 262 123 222 c 0
 122 192 136 178 160 184 c 2
 183 189 l 2
 206 195 210 186 210 171 c 2
 210 136 l 2
 210 115 208 107 185 102 c 2
 165 97 l 2
 129 89 122 79 122 47 c 2
 122 -42 l 2
 122 -66 133 -76 157 -70 c 2
 188 -63 l 2
 210 -58 211 -65 211 -83 c 2
 211 -123 l 2
 211 -141 208 -147 190 -151 c 2
 166 -157 l 2
 134 -164 122 -170 123 -221 c 0
 124 -271 125 -306 125 -333 c 0
 125 -351 125 -356 105 -356 c 0
 84 -356 87 -348 87 -329 c 0
 87 -287 88 -262 88 -222 c 0
 89 -192 75 -178 51 -184 c 2
 28 -189 l 2
 5 -195 1 -186 1 -171 c 2
 1 -136 l 2
 1 -115 3 -107 26 -102 c 2
 47 -97 l 2
 82 -89 89 -79 89 -47 c 2
 89 42 l 2
EndSplineSet
EndChar

StartChar: Ecircumflex
Encoding: 202 202 116
Width: 210
VWidth: 0
Flags: HW
LayerCount: 3
Fore
SplineSet
183 62 m 2
 206 68 210 59 210 44 c 2
 210 9 l 2
 210 -12 208 -20 185 -25 c 2
 23 -64 l 2
 1 -69 0 -62 0 -44 c 2
 0 -4 l 2
 0 14 3 20 21 24 c 2
 183 62 l 2
EndSplineSet
EndChar

StartChar: Ograve
Encoding: 210 210 117
Width: 210
VWidth: 0
Flags: W
VStem: 87 38<-355.985 -202.561 -112.478 -44.2202 44.1028 113.16 202.561 355.976>
LayerCount: 3
Fore
SplineSet
0 -15 m 2
 0 3 3 9 21 13 c 2
 49 20 l 2
 75 26 88 35 88 70 c 2
 88 81 l 2
 88 110 81 118 54 111 c 2
 23 104 l 2
 1 99 0 106 0 124 c 2
 0 142 l 2
 0 160 3 166 21 170 c 2
 48 176 l 2
 84 185 88 198 87 228 c 0
 86 272 85 308 85 333 c 0
 85 351 85 356 105 356 c 0
 126 356 123 348 123 329 c 0
 123 297 122 269 122 241 c 0
 121 208 136 197 162 203 c 2
 183 208 l 2
 206 214 210 205 210 190 c 2
 210 177 l 2
 210 156 208 148 185 143 c 2
 162 137 l 2
 130 130 121 119 121 93 c 2
 121 78 l 2
 121 51 131 39 155 45 c 2
 183 51 l 2
 206 57 210 48 210 33 c 2
 210 15 l 2
 210 -3 207 -9 189 -13 c 2
 161 -20 l 2
 137 -25 122 -34 122 -64 c 2
 122 -90 l 2
 122 -106 129 -118 156 -111 c 2
 187 -104 l 2
 209 -99 210 -106 210 -124 c 2
 210 -142 l 2
 210 -160 207 -166 189 -170 c 2
 162 -176 l 2
 126 -185 122 -198 123 -228 c 0
 124 -272 125 -308 125 -333 c 0
 125 -351 125 -356 105 -356 c 0
 84 -356 87 -348 87 -329 c 0
 87 -297 88 -269 88 -241 c 0
 89 -208 74 -197 48 -203 c 2
 27 -208 l 2
 4 -214 0 -205 0 -190 c 2
 0 -177 l 2
 0 -156 2 -148 25 -143 c 2
 48 -137 l 2
 80 -130 89 -119 89 -93 c 2
 89 -78 l 2
 89 -51 79 -39 55 -45 c 2
 27 -51 l 2
 4 -57 0 -48 0 -33 c 2
 0 -15 l 2
EndSplineSet
EndChar

StartChar: Edieresis
Encoding: 203 203 118
Width: 210
VWidth: 0
Flags: HW
LayerCount: 3
Fore
SplineSet
183 51 m 2
 206 57 210 48 210 33 c 2
 210 20 l 2
 210 -1 208 -9 185 -14 c 2
 23 -53 l 2
 1 -58 0 -51 0 -33 c 2
 0 -15 l 2
 0 3 3 9 21 13 c 2
 183 51 l 2
EndSplineSet
EndChar

StartChar: Ugrave
Encoding: 217 217 119
Width: 244
VWidth: 0
Flags: HW
VStem: 176 34<193.279 366.996 -59.5616 85.0122 -344.991 -166.607> 68 34<166.607 344.991 -85.2936 60.5792 -400.881 -190.353>
LayerCount: 3
Fore
SplineSet
101 -59 m 2
 101 -81 106 -90 130 -84 c 2
 155 -78 l 2
 172 -74 177 -65 177 -48 c 2
 177 59 l 2
 177 81 172 90 148 84 c 2
 123 78 l 2
 106 74 101 65 101 48 c 2
 101 -59 l 2
210 -33 m 2
 210 -90 244 -30 244 -86 c 2
 244 -124 l 2
 244 -163 210 -135 210 -182 c 0
 210 -237 213 -273 213 -328 c 0
 213 -343 210 -345 194 -345 c 0
 178 -345 175 -342 175 -328 c 0
 175 -278 176 -246 176 -196 c 0
 176 -165 168 -164 152 -167 c 2
 128 -172 l 2
 110 -176 102 -182 102 -215 c 0
 102 -259 103 -311 103 -376 c 0
 103 -413 121 -403 139 -393 c 0
 147 -388 155 -384 160 -384 c 0
 162 -384 166 -386 166 -391 c 0
 166 -401 156 -410 122 -469 c 0
 94 -518 92 -538 82 -538 c 0
 68 -538 72 -519 42 -468 c 0
 10 -415 0 -403 0 -391 c 0
 0 -385 6 -384 8 -384 c 0
 13 -384 19 -386 25 -390 c 0
 46 -402 65 -416 65 -371 c 0
 66 -295 68 -259 68 -214 c 0
 68 -163 34 -217 34 -166 c 2
 34 -136 l 2
 34 -92 68 -123 68 -76 c 2
 68 33 l 2
 68 92 34 31 34 86 c 2
 34 124 l 2
 34 163 68 135 68 182 c 0
 68 237 65 273 65 328 c 0
 65 343 68 345 84 345 c 0
 101 345 103 342 103 328 c 0
 103 278 102 246 102 196 c 0
 102 165 110 164 126 167 c 2
 150 172 l 2
 169 176 176 182 176 215 c 0
 176 266 175 298 175 349 c 0
 175 362 176 367 193 367 c 0
 212 367 213 363 213 348 c 0
 213 297 210 265 210 214 c 0
 210 166 244 222 244 166 c 2
 244 136 l 2
 244 89 210 120 210 76 c 2
 210 -33 l 2
EndSplineSet
EndChar

StartChar: Oslash
Encoding: 216 216 120
Width: 244
VWidth: 0
Flags: W
VStem: 34 34<-366.996 -193.279 -85.0122 59.5616 166.607 344.991> 142 34<-344.991 -166.607 -60.5792 85.2936 190.353 400.881>
LayerCount: 3
Fore
SplineSet
143 59 m 2
 143 81 138 90 114 84 c 2
 89 78 l 2
 72 74 67 65 67 48 c 2
 67 -59 l 2
 67 -81 72 -90 96 -84 c 2
 121 -78 l 2
 138 -74 143 -65 143 -48 c 2
 143 59 l 2
34 33 m 2
 34 90 0 30 0 86 c 2
 0 124 l 2
 0 163 34 135 34 182 c 0
 34 237 31 273 31 328 c 0
 31 343 34 345 50 345 c 0
 66 345 69 342 69 328 c 0
 69 278 68 246 68 196 c 0
 68 165 76 164 92 167 c 2
 116 172 l 2
 134 176 142 182 142 215 c 0
 142 259 141 311 141 376 c 0
 141 413 123 403 105 393 c 0
 97 388 89 384 84 384 c 0
 82 384 78 386 78 391 c 0
 78 401 88 410 122 469 c 0
 150 518 152 538 162 538 c 0
 176 538 172 519 202 468 c 0
 234 415 244 403 244 391 c 0
 244 385 238 384 236 384 c 0
 231 384 225 386 219 390 c 0
 198 402 179 416 179 371 c 0
 178 295 176 259 176 214 c 0
 176 163 210 217 210 166 c 2
 210 136 l 2
 210 92 176 123 176 76 c 2
 176 -33 l 2
 176 -92 210 -31 210 -86 c 2
 210 -124 l 2
 210 -163 176 -135 176 -182 c 0
 176 -237 179 -273 179 -328 c 0
 179 -343 176 -345 160 -345 c 0
 143 -345 141 -342 141 -328 c 0
 141 -278 142 -246 142 -196 c 0
 142 -165 134 -164 118 -167 c 2
 94 -172 l 2
 75 -176 68 -182 68 -215 c 0
 68 -266 69 -298 69 -349 c 0
 69 -362 68 -367 51 -367 c 0
 32 -367 31 -363 31 -348 c 0
 31 -297 34 -265 34 -214 c 0
 34 -166 0 -222 0 -166 c 2
 0 -136 l 2
 0 -89 34 -120 34 -76 c 2
 34 33 l 2
EndSplineSet
EndChar

StartChar: Igrave
Encoding: 204 204 121
Width: 321
VWidth: 0
Flags: HW
LayerCount: 3
Fore
SplineSet
295 75 m 2
 317 81 321 72 321 57 c 2
 321 22 l 2
 321 1 319 -7 297 -12 c 2
 23 -77 l 2
 1.04688 -82.208 0 -75 0 -57 c 2
 0 -17 l 2
 0 1 3.04492 6.80566 21 11 c 2
 295 75 l 2
EndSplineSet
EndChar

StartChar: Oacute
Encoding: 211 211 122
Width: 210
VWidth: 0
Flags: W
VStem: 34 33<-366.995 -67.8704 40.5426 344.994> 143 33<-344.995 -41.0204 65.2126 366.994>
LayerCount: 3
Fore
SplineSet
34 126 m 2
 34 226 31 282 31 322 c 0
 31 340 31 345 51 345 c 0
 72 345 69 337 69 318 c 0
 69 255 67 230 67 130 c 2
 67 74 l 2
 67 45 69 35 97 42 c 2
 112 45 l 2
 137 51 143 57 143 90 c 2
 143 152 l 2
 143 252 141 277 141 340 c 0
 141 359 138 367 159 367 c 0
 179 367 179 362 179 344 c 0
 179 304 176 248 176 148 c 2
 176 91 l 2
 176 38 210 90 210 44 c 2
 210 -4 l 2
 210 -46 176 -4 176 -69 c 2
 176 -126 l 2
 176 -226 179 -283 179 -322 c 0
 179 -341 179 -345 159 -345 c 0
 138 -345 141 -338 141 -319 c 0
 141 -255 143 -231 143 -131 c 2
 143 -80 l 2
 143 -42 135 -37 113 -42 c 2
 98 -46 l 2
 72 -52 67 -63 67 -86 c 2
 67 -153 l 2
 67 -253 69 -277 69 -341 c 0
 69 -360 72 -367 51 -367 c 0
 31 -367 31 -363 31 -344 c 0
 31 -305 34 -248 34 -148 c 2
 34 -99 l 2
 34 -36 0 -96 0 -44 c 2
 0 2 l 2
 0 44 34 8 34 63 c 2
 34 126 l 2
EndSplineSet
EndChar

StartChar: Ocircumflex
Encoding: 212 212 123
Width: 210
VWidth: 0
Flags: W
VStem: 0 210<-172.29 -143.053 -79 -76 -18.6935 18.6935 76 79 143.053 172.29> 34 33<-366.994 -212.611 -124.754 -54.2827 29.7163 103.258 185.637 344.994> 143 33<-344.994 -185.637 -103.258 -29.7162 54.2827 124.754 212.611 366.994>
LayerCount: 3
Fore
SplineSet
210 9 m 2x80
 210 -33 176 3 176 -52 c 2
 176 -74 l 2x20
 176 -135 210 -76 210 -124 c 2
 210 -142 l 2x80
 210 -184 176 -153 176 -204 c 0
 176 -248 179 -295 179 -322 c 0
 179 -340 179 -345 159 -345 c 0
 138 -345 141 -337 141 -318 c 0
 141 -282 142 -259 142 -227 c 0
 142 -190 138 -181 114 -187 c 2
 98 -191 l 2
 69 -198 67 -204 67 -236 c 0x60
 67 -277 69 -300 69 -340 c 0
 69 -359 72 -367 51 -367 c 0
 31 -367 31 -362 31 -344 c 0
 31 -318 33 -286 33 -240 c 0
 33 -186 0 -235 0 -196 c 2
 0 -165 l 2x80
 0 -127 34 -167 34 -109 c 2
 34 -80 l 2x40
 34 -27 0 -79 0 -33 c 2
 0 -9 l 2x80
 0 33 34 -3 34 52 c 2
 34 74 l 2x40
 34 135 0 76 0 124 c 2
 0 142 l 2x80
 0 184 34 153 34 204 c 0
 34 248 31 295 31 322 c 0
 31 340 31 345 51 345 c 0
 72 345 69 337 69 318 c 0
 69 282 68 259 68 227 c 0
 68 190 72 181 96 187 c 2
 112 191 l 2
 141 198 143 204 143 236 c 0x60
 143 277 141 300 141 340 c 0
 141 359 138 367 159 367 c 0
 179 367 179 362 179 344 c 0
 179 318 177 286 177 240 c 0
 177 186 210 235 210 196 c 2
 210 165 l 2x80
 210 127 176 167 176 109 c 2
 176 80 l 2x20
 176 27 210 79 210 33 c 2
 210 9 l 2x80
98 -125 m 2
 114 -121 l 2
 136 -115 143 -106 143 -86 c 2
 143 -63 l 2
 143 -34 140 -26 113 -31 c 2
 98 -34 l 2
 73 -40 67 -46 67 -79 c 2
 67 -100 l 2x60
 67 -122 76 -131 98 -125 c 2
112 125 m 2
 96 121 l 2
 74 115 67 106 67 86 c 2
 67 63 l 2
 67 34 70 26 97 31 c 2
 112 34 l 2
 137 40 143 46 143 79 c 2
 143 100 l 2
 143 122 134 131 112 125 c 2
EndSplineSet
EndChar

StartChar: Otilde
Encoding: 213 213 124
Width: 321
VWidth: 0
Flags: W
VStem: 34 33<-377.995 -79.1205 28.5989 333.994> 144 33<-355.995 -54.9067 56.5728 355.994> 254 33<-333.995 -29.9395 76.668 377.994>
LayerCount: 3
Fore
SplineSet
144 137 m 2
 144 237 141 293 141 333 c 0
 141 351 141 356 161 356 c 0
 182 356 179 348 179 329 c 0
 179 266 177 241 177 141 c 2
 177 95 l 2
 177 61 189 50 213 56 c 2
 221 58 l 2
 247 64 254 74 254 110 c 2
 254 159 l 2
 254 259 251 315 251 355 c 0
 251 373 251 378 271 378 c 0
 292 378 289 370 289 351 c 0
 289 288 287 263 287 163 c 2
 287 98 l 2
 287 54 321 98 321 57 c 2
 321 22 l 2
 321 -31 287 5 287 -45 c 2
 287 -120 l 2
 287 -220 289 -244 289 -308 c 0
 289 -327 292 -334 271 -334 c 0
 251 -334 251 -330 251 -311 c 0
 251 -272 254 -215 254 -115 c 2
 254 -60 l 2
 254 -37 248 -24 222 -30 c 2
 210 -33 l 2
 182 -39 177 -53 177 -77 c 2
 177 -142 l 2
 177 -242 179 -266 179 -330 c 0
 179 -349 182 -356 161 -356 c 0
 141 -356 141 -352 141 -333 c 0
 141 -294 144 -237 144 -137 c 2
 144 -86 l 2
 144 -61 135 -50 112 -56 c 2
 100 -59 l 2
 73 -65 67 -72 67 -102 c 2
 67 -164 l 2
 67 -264 69 -288 69 -352 c 0
 69 -371 72 -378 51 -378 c 0
 31 -378 31 -374 31 -355 c 0
 31 -316 34 -259 34 -159 c 2
 34 -105 l 2
 34 -54.5 0 -102 0 -57 c 2
 0 -17 l 2
 0 25 34 -14 34 50 c 2
 34 115 l 2
 34 215 31 271 31 311 c 0
 31 329 31 334 51 334 c 0
 72 334 69 326 69 307 c 0
 69 244 67 219 67 119 c 2
 67 70 l 2
 67 39 71 23 97 29 c 2
 112 32 l 2
 133 37 144 48 144 86 c 2
 144 137 l 2
EndSplineSet
EndChar

StartChar: Odieresis
Encoding: 214 214 125
Width: 319
VWidth: 0
Flags: W
VStem: 34 34<-377.996 -204.136 -96.0122 48.9234 155.607 333.991> 141 37<-355.996 -177.731 -74.1325 74.1325 177.731 355.996> 251 34<-333.991 -155.607 -48.9234 96.0122 204.136 377.996>
LayerCount: 3
Fore
SplineSet
160 -356 m 3
 142 -356 141 -353 141 -339 c 3
 141 -289 142 -257 142 -207 c 3
 142 -176 134 -175 118 -178 c 2
 94 -183 l 2
 75 -187 68 -193 68 -226 c 3
 68 -277 69 -309 69 -360 c 3
 69 -373 68 -378 51 -378 c 3
 32 -378 31 -374 31 -359 c 3
 31 -308 34 -276 34 -225 c 3
 34 -176.999 0 -232.667 0 -177 c 2
 0 -147 l 2
 0 -100 34 -131 34 -87 c 2
 34 22 l 2
 34 79.5 0 19.5 0 75 c 2
 0 113 l 2
 0 152 34 124 34 171 c 3
 34 226 31 262 31 317 c 3
 31 332 34 334 50 334 c 3
 66 334 69 331 69 317 c 3
 69 267 68 235 68 185 c 3
 68 154 76 153 92 156 c 2
 116 161 l 2
 134 165 142 171 142 204 c 3
 142 255 141 287 141 338 c 3
 141 351 143 356 160 356 c 3
 177 356 178 353 178 339 c 3
 178 289 177 257 177 207 c 3
 177 176 185 175 201 178 c 2
 225 183 l 2
 244 187 251 193 251 226 c 3
 251 277 250 309 250 360 c 3
 250 373 251 378 268 378 c 3
 287 378 288 374 288 359 c 3
 288 308 285 276 285 225 c 3
 285 176.999 319 232.667 319 177 c 2
 319 147 l 2
 319 100 285 131 285 87 c 2
 285 -22 l 2
 285 -79.5 319 -19.5 319 -75 c 2
 319 -113 l 2
 319 -152 285 -124 285 -171 c 3
 285 -226 288 -262 288 -317 c 3
 288 -332 285 -334 269 -334 c 3
 253 -334 250 -331 250 -317 c 3
 250 -267 251 -235 251 -185 c 3
 251 -154 243 -153 227 -156 c 2
 203 -161 l 2
 185 -165 177 -171 177 -204 c 3
 177 -255 178 -287 178 -338 c 3
 178 -351 176 -356 160 -356 c 3
176 -48 m 2
 176 -70 181 -79 205 -73 c 2
 230 -67 l 2
 247 -63 252 -54 252 -37 c 2
 252 70 l 2
 252 92 247 101 223 95 c 2
 198 89 l 2
 181 85 176 76 176 59 c 2
 176 -48 l 2
143 48 m 2
 143 70 138 79 114 73 c 2
 89 67 l 2
 72 63 67 54 67 37 c 2
 67 -70 l 2
 67 -92 72 -101 96 -95 c 2
 121 -89 l 2
 138 -85 143 -76 143 -59 c 2
 143 48 l 2
EndSplineSet
EndChar

StartChar: multiply
Encoding: 215 215 126
Width: 319
VWidth: 0
Flags: W
VStem: 0 210<-172.29 -143.053 -79 -76 -18.6935 18.6935 76 79 143.053 172.29> 34 33<-366.994 -212.611 -124.754 -54.2827 29.7163 103.258 185.637 344.994> 143 33<-344.994 -185.637 -103.258 -29.7162 54.2827 124.754 212.611 366.994>
LayerCount: 3
Fore
SplineSet
159 -356 m 0x60
 138 -356 141 -348 141 -329 c 0
 141 -293 142 -270 142 -238 c 0
 142 -201 138 -192 114 -198 c 2
 98 -202 l 2
 69 -209 67 -215 67 -247 c 0x60
 67 -288 69 -311 69 -351 c 0
 69 -370 72 -378 51 -378 c 0
 31 -378 31 -373 31 -355 c 0
 31 -329 33 -297 33 -251 c 0
 33 -197 0 -246 0 -207 c 2
 0 -176 l 2x80
 0 -138 34 -178 34 -120 c 2
 34 -91 l 2x40
 34 -38 0 -90 0 -44 c 2
 0 -20 l 2x80
 0 22 34 -14 34 41 c 2
 34 63 l 2x40
 34 124 0 65 0 113 c 2
 0 131 l 2x80
 0 173 34 142 34 193 c 0
 34 237 31 284 31 311 c 0
 31 329 31 334 51 334 c 0
 72 334 69 326 69 307 c 0
 69 271 68 248 68 216 c 0
 68 179 72 170 96 176 c 2
 112 180 l 2
 141 187 143 193 143 225 c 0
 143 266 141 289 141 329 c 0
 141 348 138 356 159 356 c 0
 180 356 178 348 178 329 c 0
 178 293 177 270 177 238 c 0
 177 201 181 192 205 198 c 2
 221 202 l 2
 250 209 252 215 252 247 c 0
 252 288 250 311 250 351 c 0
 250 370 247 378 268 378 c 0
 288 378 288 373 288 355 c 0
 288 329 286 297 286 251 c 0
 286 197 319 246 319 207 c 2
 319 176 l 2
 319 138 285 178 285 120 c 2
 285 91 l 2
 285 38 319 90 319 44 c 2
 319 20 l 2
 319 -22 285 14 285 -41 c 2
 285 -63 l 2
 285 -124 319 -65 319 -113 c 2
 319 -131 l 2
 319 -173 285 -142 285 -193 c 0
 285 -237 288 -284 288 -311 c 0
 288 -329 288 -334 268 -334 c 0
 247 -334 250 -326 250 -307 c 0
 250 -271 251 -248 251 -216 c 0
 251 -179 247 -170 223 -176 c 2
 207 -180 l 2
 178 -187 176 -193 176 -225 c 0
 176 -266 178 -289 178 -329 c 0
 178 -348 180 -356 159 -356 c 0x60
221 136 m 2
 205 132 l 2
 183 126 176 117 176 97 c 2
 176 74 l 2
 176 45 179 37 206 42 c 2
 221 45 l 2
 246 51 252 57 252 90 c 2
 252 111 l 2
 252 133 243 142 221 136 c 2
207 -114 m 2
 223 -110 l 2
 245 -104 252 -95 252 -75 c 2
 252 -52 l 2
 252 -23 249 -15 222 -20 c 2
 207 -23 l 2
 182 -29 176 -35 176 -68 c 2
 176 -89 l 2
 176 -111 185 -120 207 -114 c 2
98 -136 m 2
 114 -132 l 2
 136 -126 143 -117 143 -97 c 2
 143 -74 l 2
 143 -45 140 -37 113 -42 c 2
 98 -45 l 2
 73 -51 67 -57 67 -90 c 2
 67 -111 l 2
 67 -133 76 -142 98 -136 c 2
112 114 m 2
 96 110 l 2
 74 104 67 95 67 75 c 2
 67 52 l 2
 67 23 70 15 97 20 c 2
 112 23 l 2
 137 29 143 35 143 68 c 2
 143 89 l 2
 143 111 134 120 112 114 c 2
EndSplineSet
EndChar

StartChar: uni001B
Encoding: 27 27 127
Width: 1000
VWidth: 0
Flags: HW
LayerCount: 3
Fore
SplineSet
222 402 m 5
 253 402 l 5
 253 -387 l 5
 222 -387 l 5
 222 402 l 5
48 142 m 5
 297 208 l 5
 297 131 l 5
 48 65 l 5
 48 142 l 5
92 376 m 5
 123 376 l 5
 123 -410 l 5
 92 -410 l 5
 92 376 l 5
EndSplineSet
EndChar

StartChar: dollar
Encoding: 36 36 128
Width: 252
VWidth: 0
Flags: HMW
LayerCount: 3
Fore
SplineSet
126 -28 m 3
 149 -28 166 -57 166 -103 c 0
 166 -116 168 -122 187 -123 c 0
 205 -123 225 -126 243 -126 c 3
 248.169 -126 252 -121.503 252 -117 c 3
 252 -99 250 -79 250 -61 c 0
 249 -42 243 -40 230 -40 c 0
 184 -40 154 -23 154 0 c 3
 154 23 183 40 229 40 c 0
 242 40 248 42 249 61 c 0
 249 79 252 99 252 117 c 3
 252 122.169 247.503 126 243 126 c 3
 225 126 205 124 187 124 c 0
 168 123 166 117 166 104 c 0
 166 58 149 28 126 28 c 3
 103 28 86 57 86 103 c 0
 86 116 84 122 65 123 c 0
 47 123 27 126 9 126 c 3
 3.83105 126 0 121.503 0 117 c 3
 0 99 2 79 2 61 c 0
 3 42 9 40 22 40 c 0
 68 40 98 23 98 0 c 3
 98 -23 69 -40 23 -40 c 0
 10 -40 4 -42 3 -61 c 0
 3 -79 0 -99 0 -117 c 3
 0 -122.169 4.49707 -126 9 -126 c 3
 27 -126 47 -124 65 -124 c 0
 84 -123 86 -117 86 -104 c 0
 86 -58 103 -28 126 -28 c 3
EndSplineSet
EndChar

StartChar: plus
Encoding: 43 43 129
Width: 487
Flags: W
HStem: 93 9<65 80> 101 9<307 322>
VStem: 0 52<235.572 470.973> 15 31<-138.452 52.9679 102.007 291.25> 168 77<-24.2335 86.0367> 242 52<243.572 478.973> 257 31<-130.452 60.9679 110.007 299.25> 410 77<-16.2335 94.0367>
LayerCount: 3
Fore
SplineSet
367 101 m 0x43
 307 101 288 50 288 -31 c 2
 288 -79 l 2
 288 -145 302 -144 346 -103 c 0
 388 -63 410 -24 410 39 c 0
 410 70 398 101 367 101 c 0x43
294 457 m 0x45
 294 385 289 256 289 131 c 0
 289 120 292 110 300 110 c 0
 322 110 364 157 410 157 c 0
 460 157 487 121 487 78 c 0
 487 10 461 -43 407 -89 c 0
 292 -192 l 0
 283 -197 278 -204 268 -204 c 0
 258 -204 257 -192 257 -182 c 0x43
 257 -69 256 -48 253 107 c 0
 249 221 242 388 242 460 c 0
 242 477 244 479 268 479 c 0
 290 479 294 478 294 457 c 0x45
125 93 m 0x99
 65 93 46 42 46 -39 c 2
 46 -87 l 2
 46 -153 60 -152 104 -111 c 0
 146 -71 168 -32 168 31 c 0
 168 62 156 93 125 93 c 0x99
52 449 m 0xa1
 52 377 47 248 47 123 c 0
 47 112 50 102 58 102 c 0
 80 102 122 149 168 149 c 0
 218 149 245 113 245 70 c 0
 245 2 219 -51 165 -97 c 0
 50 -200 l 0
 41 -205 36 -212 26 -212 c 0
 16 -212 15 -200 15 -190 c 0x99
 15 -77 14 -56 11 99 c 0
 7 213 0 380 0 452 c 0
 0 469 2 471 26 471 c 0
 48 471 52 470 52 449 c 0xa1
EndSplineSet
EndChar

StartChar: uni0001
Encoding: 1 1 130
Width: 245
Flags: W
HStem: 97 9<65 80>
VStem: 0 52<239.572 474.973> 15 31<-134.452 56.9679 106.007 295.25> 168 77<-20.2335 90.0367>
LayerCount: 3
Fore
SplineSet
125 97 m 0xb0
 65 97 46 46 46 -35 c 2
 46 -83 l 2
 46 -149 60 -148 104 -107 c 0
 146 -67 168 -28 168 35 c 0
 168 66 156 97 125 97 c 0xb0
52 453 m 0xd0
 52 381 47 252 47 127 c 0
 47 116 50 106 58 106 c 0
 80 106 122 153 168 153 c 0
 218 153 245 117 245 74 c 0
 245 6 219 -47 165 -93 c 0
 50 -196 l 0
 41 -201 36 -208 26 -208 c 0
 16 -208 15 -196 15 -186 c 0xb0
 15 -73 14 -52 11 103 c 0
 7 217 0 384 0 456 c 0
 0 473 2 475 26 475 c 0
 48 475 52 474 52 453 c 0xd0
EndSplineSet
EndChar

StartChar: uni0002
Encoding: 2 2 131
Width: 212
VWidth: 0
Flags: W
HStem: -213 96<13 80.7812> 116 97<131.727 200>
VStem: 4 30<-116.965 73.7477 168.245 400.748> 171 41<-419.994 -223.197> 178 30<-403.295 -167.517 -73.3999 115.905>
LayerCount: 3
Fore
SplineSet
21 420 m 3xf0
 38 420 41 417 41 402 c 3
 41 376 37 304 37 209 c 3
 37 182 41 166 58 166 c 0
 64 166 72 168 82 172 c 2
 175 208 l 2
 183 211 190 213 195 213 c 0
 205 213 210 207 210 190 c 3
 210 149 208 60 208 -23 c 3xe8
 208 -147 212 -369 212 -399 c 3
 212 -418 210 -420 190 -420 c 3
 175 -420 171 -414 171 -405 c 3
 171 -369 175 -309 175 -219 c 3
 175 -183 173 -166 156 -166 c 0
 148 -166 137 -170 121 -176 c 2
 37 -208 l 2
 30 -211 24 -213 19 -213 c 0
 7 -213 2 -204 2 -184 c 3
 2 -100 4 -88 4 32 c 3
 4 197 0 375 0 406 c 3
 0 419 5 420 14 420 c 0
 16 420 18 420 21 420 c 3xf0
34 28 m 2
 34 -83 l 2
 34 -105 36 -117 50 -117 c 0
 56 -117 63 -115 73 -111 c 2
 139 -86 l 2
 171 -73 178 -64 178 -28 c 2
 178 88 l 2
 178 108 173 116 161 116 c 0
 154 116 146 114 135 110 c 2
 72 85 l 2
 40 73 34 67 34 28 c 2
EndSplineSet
EndChar

StartChar: uni0003
Encoding: 3 3 132
Width: 249
VWidth: 0
Flags: W
HStem: -201.903 76.3369<0.111572 43.8051> -147.169 76.7354<205.437 248.996> 70.4336 76.7354<0.00405132 43.5632> 125.566 76.3369<205.195 248.888>
VStem: 44 31<-401.991 -202.107 -105.304 70.8953 167.699 375.996> 174 31<-375.996 -167.699 -70.8952 105.304 202.107 401.991>
LayerCount: 3
Fore
SplineSet
75 -87 m 2x0c
 75 -98.5 78.3086 -110.243 99.5 -104.627 c 2
 150.5 -91.1084 l 2
 170.995 -85.6758 174 -74 174 -60 c 2
 174 87 l 2
 174 98.5 170.691 110.243 149.5 104.627 c 2
 98.5 91.1084 l 2
 78.0049 85.6758 75 74 75 60 c 2
 75 -87 l 2x0c
44 54 m 2
 44 68.5 40.5527 75.749 20.5 70.4336 c 0
 5.51074 66.4609 0 75.5 0 85 c 2
 0 125 l 2
 0 136.5 4.38184 143.161 19.5 147.169 c 0xac
 38.4443 152.19 44 160.539 44 175 c 0
 44 248.142 40 336.333 40 362.5 c 0
 40 371.75 44 376 59.5 376 c 0
 76.333 376 79 370.978 79 361.5 c 0
 79 336.333 75 247.002 75 191.5 c 0
 75 170.352 85.3076 164.611 97.5 167.844 c 2
 142.5 179.771 l 2
 159.899 184.383 174 186.935 174 217.5 c 0
 174 284.598 170 360.667 170 389.5 c 0
 170 398.864 174.21 402 190.5 402 c 0
 207.03 402 209 396.289 209 387 c 0
 209 358.333 205 288 205 218 c 0
 205 202.333 212.365 198.289 226 201.903 c 0
 243.04 206.42 249 199.667 249 189.5 c 2
 249 151 l 2
 249 137.333 245.629 130.106 228.5 125.566 c 0
 210.135 120.698 205 116.333 205 98.5 c 2
 205 -54 l 2
 205 -68.5 208.447 -75.748 228.5 -70.4336 c 0
 243.489 -66.4609 249 -75.5 249 -85 c 2
 249 -125 l 2
 249 -136.5 244.618 -143.161 229.5 -147.169 c 0x5c
 210.556 -152.191 205 -160.539 205 -175 c 0
 205 -248.142 209 -336.333 209 -362.5 c 0
 209 -371.75 205 -376 189.5 -376 c 0
 172.667 -376 170 -370.978 170 -361.5 c 0
 170 -336.333 174 -247.002 174 -191.5 c 0
 174 -170.352 163.692 -164.612 151.5 -167.844 c 2
 106.5 -179.771 l 2
 89.1016 -184.383 75 -186.935 75 -217.5 c 0
 75 -284.598 79 -360.667 79 -389.5 c 0
 79 -398.864 74.79 -402 58.5 -402 c 0
 41.9697 -402 40 -396.289 40 -387 c 0
 40 -358.333 44 -288 44 -218 c 0
 44 -202.333 36.6348 -198.289 23 -201.903 c 0
 5.95996 -206.42 0 -199.667 0 -189.5 c 2
 0 -151 l 2
 0 -137.333 3.37109 -130.106 20.5 -125.566 c 0x8c
 38.8652 -120.698 44 -116.333 44 -98.5 c 2
 44 54 l 2
EndSplineSet
EndChar

StartChar: uni0004
Encoding: 4 4 133
Width: 487
Flags: W
HStem: 93 9<65 80> 101 9<307 322>
VStem: 0 52<235.572 470.973> 15 31<-138.452 52.9679 102.007 291.25> 168 77<-24.2335 86.0367> 242 52<243.572 478.973> 257 31<-130.452 60.9679 110.007 299.25> 410 77<-16.2335 94.0367>
LayerCount: 3
Fore
SplineSet
367 101 m 0x43
 307 101 288 50 288 -31 c 2
 288 -79 l 2
 288 -145 302 -144 346 -103 c 0
 388 -63 410 -24 410 39 c 0
 410 70 398 101 367 101 c 0x43
294 457 m 0x45
 294 385 289 256 289 131 c 0
 289 120 292 110 300 110 c 0
 322 110 364 157 410 157 c 0
 460 157 487 121 487 78 c 0
 487 10 461 -43 407 -89 c 0
 292 -192 l 0
 283 -197 278 -204 268 -204 c 0
 258 -204 257 -192 257 -182 c 0x43
 257 -69 256 -48 253 107 c 0
 249 221 242 388 242 460 c 0
 242 477 244 479 268 479 c 0
 290 479 294 478 294 457 c 0x45
125 93 m 0x99
 65 93 46 42 46 -39 c 2
 46 -87 l 2
 46 -153 60 -152 104 -111 c 0
 146 -71 168 -32 168 31 c 0
 168 62 156 93 125 93 c 0x99
52 449 m 0xa1
 52 377 47 248 47 123 c 0
 47 112 50 102 58 102 c 0
 80 102 122 149 168 149 c 0
 218 149 245 113 245 70 c 0
 245 2 219 -51 165 -97 c 0
 50 -200 l 0
 41 -205 36 -212 26 -212 c 0
 16 -212 15 -200 15 -190 c 0x99
 15 -77 14 -56 11 99 c 0
 7 213 0 380 0 452 c 0
 0 469 2 471 26 471 c 0
 48 471 52 470 52 449 c 0xa1
EndSplineSet
EndChar

StartChar: Idotaccent
Encoding: 304 304 134
Width: 212
VWidth: 0
Flags: W
HStem: -213 96<13 80.7812> 116 97<131.727 200>
VStem: 4 30<-116.965 73.7477 168.245 400.748> 171 41<-419.994 -223.197> 178 30<-403.295 -167.517 -73.3999 115.905>
LayerCount: 3
Fore
SplineSet
21 420 m 3xf0
 38 420 41 417 41 402 c 3
 41 376 37 304 37 209 c 3
 37 182 41 166 58 166 c 0
 64 166 72 168 82 172 c 2
 175 208 l 2
 183 211 190 213 195 213 c 0
 205 213 210 207 210 190 c 3
 210 149 208 60 208 -23 c 3xe8
 208 -147 212 -369 212 -399 c 3
 212 -418 210 -420 190 -420 c 3
 175 -420 171 -414 171 -405 c 3
 171 -369 175 -309 175 -219 c 3
 175 -183 173 -166 156 -166 c 0
 148 -166 137 -170 121 -176 c 2
 37 -208 l 2
 30 -211 24 -213 19 -213 c 0
 7 -213 2 -204 2 -184 c 3
 2 -100 4 -88 4 32 c 3
 4 197 0 375 0 406 c 3
 0 419 5 420 14 420 c 0
 16 420 18 420 21 420 c 3xf0
34 28 m 2
 34 -83 l 2
 34 -105 36 -117 50 -117 c 0
 56 -117 63 -115 73 -111 c 2
 139 -86 l 2
 171 -73 178 -64 178 -28 c 2
 178 88 l 2
 178 108 173 116 161 116 c 0
 154 116 146 114 135 110 c 2
 72 85 l 2
 40 73 34 67 34 28 c 2
EndSplineSet
EndChar

StartChar: dotlessi
Encoding: 305 305 135
Width: 245
Flags: W
HStem: 115 9<58 125>
VStem: 0 52<257.572 492.973> 15 31<-119.517 83.2398 124.007 313.25> 168 77<-2.23348 108.037>
LayerCount: 3
Fore
SplineSet
125 115 m 0xb0
 97 115 75 102 62 84 c 0
 50 68 46 38 46 -2 c 2
 46 -65 l 2
 46 -131 49 -142 104 -89 c 0
 146 -49 168 -10 168 53 c 0
 168 84 156 115 125 115 c 0xb0
52 471 m 0xd0
 52 399 47 270 47 145 c 0
 47 134 50 124 58 124 c 0
 80 124 122 171 168 171 c 0
 218 171 245 135 245 92 c 0
 245 24 219 -29 165 -75 c 0
 50 -178 l 0
 41 -183 36 -190 26 -190 c 0
 16 -190 15 -178 15 -168 c 0xb0
 15 -55 14 -34 11 121 c 0
 7 235 0 402 0 474 c 0
 0 491 2 493 26 493 c 0
 48 493 52 492 52 471 c 0xd0
EndSplineSet
EndChar

StartChar: IJ
Encoding: 306 306 136
Width: 249
VWidth: 0
Flags: W
HStem: -201.903 76.3369<0.111572 43.8051> -147.169 76.7354<205.437 248.996> 70.4336 76.7354<0.00405132 43.5632> 125.566 76.3369<205.195 248.888>
VStem: 44 31<-401.991 -202.107 -105.304 70.8953 167.699 375.996> 174 31<-375.996 -167.699 -70.8952 105.304 202.107 401.991>
LayerCount: 3
Fore
SplineSet
75 -87 m 2x0c
 75 -98.5 78.3086 -110.243 99.5 -104.627 c 2
 150.5 -91.1084 l 2
 170.995 -85.6758 174 -74 174 -60 c 2
 174 87 l 2
 174 98.5 170.691 110.243 149.5 104.627 c 2
 98.5 91.1084 l 2
 78.0049 85.6758 75 74 75 60 c 2
 75 -87 l 2x0c
44 54 m 2
 44 68.5 40.5527 75.749 20.5 70.4336 c 0
 5.51074 66.4609 0 75.5 0 85 c 2
 0 125 l 2
 0 136.5 4.38184 143.161 19.5 147.169 c 0xac
 38.4443 152.19 44 160.539 44 175 c 0
 44 248.142 40 336.333 40 362.5 c 0
 40 371.75 44 376 59.5 376 c 0
 76.333 376 79 370.978 79 361.5 c 0
 79 336.333 75 247.002 75 191.5 c 0
 75 170.352 85.3076 164.611 97.5 167.844 c 2
 142.5 179.771 l 2
 159.899 184.383 174 186.935 174 217.5 c 0
 174 284.598 170 360.667 170 389.5 c 0
 170 398.864 174.21 402 190.5 402 c 0
 207.03 402 209 396.289 209 387 c 0
 209 358.333 205 288 205 218 c 0
 205 202.333 212.365 198.289 226 201.903 c 0
 243.04 206.42 249 199.667 249 189.5 c 2
 249 151 l 2
 249 137.333 245.629 130.106 228.5 125.566 c 0
 210.135 120.698 205 116.333 205 98.5 c 2
 205 -54 l 2
 205 -68.5 208.447 -75.748 228.5 -70.4336 c 0
 243.489 -66.4609 249 -75.5 249 -85 c 2
 249 -125 l 2
 249 -136.5 244.618 -143.161 229.5 -147.169 c 0x5c
 210.556 -152.191 205 -160.539 205 -175 c 0
 205 -248.142 209 -336.333 209 -362.5 c 0
 209 -371.75 205 -376 189.5 -376 c 0
 172.667 -376 170 -370.978 170 -361.5 c 0
 170 -336.333 174 -247.002 174 -191.5 c 0
 174 -170.352 163.692 -164.612 151.5 -167.844 c 2
 106.5 -179.771 l 2
 89.1016 -184.383 75 -186.935 75 -217.5 c 0
 75 -284.598 79 -360.667 79 -389.5 c 0
 79 -398.864 74.79 -402 58.5 -402 c 0
 41.9697 -402 40 -396.289 40 -387 c 0
 40 -358.333 44 -288 44 -218 c 0
 44 -202.333 36.6348 -198.289 23 -201.903 c 0
 5.95996 -206.42 0 -199.667 0 -189.5 c 2
 0 -151 l 2
 0 -137.333 3.37109 -130.106 20.5 -125.566 c 0x8c
 38.8652 -120.698 44 -116.333 44 -98.5 c 2
 44 54 l 2
EndSplineSet
EndChar

StartChar: ij
Encoding: 307 307 137
Width: 488
Flags: HW
HStem: -208 21G<21 31> 97 9<58 125>
VStem: 0 52<239.572 474.973> 15 31<-137.517 65.2398 106.007 295.25> 168 77<-20.2335 90.0367>
LayerCount: 3
Fore
SplineSet
368 115 m 0xd8
 340 115 318 102 305 84 c 0
 293 68 289 38 289 -2 c 2
 289 -65 l 2
 289 -131 292 -142 347 -89 c 0
 389 -49 411 -10 411 53 c 0
 411 84 399 115 368 115 c 0xd8
295 471 m 0xe8
 295 399 290 270 290 145 c 0
 290 134 293 124 301 124 c 0
 323 124 365 171 411 171 c 0
 461 171 488 135 488 92 c 0
 488 24 462 -29 408 -75 c 0
 293 -178 l 0
 284 -183 279 -190 269 -190 c 0
 259 -190 258 -178 258 -168 c 0xd8
 258 -55 257 -34 254 121 c 0
 250 235 243 402 243 474 c 0
 243 491 245 493 269 493 c 0
 291 493 295 492 295 471 c 0xe8
125 115 m 0xd8
 97 115 75 102 62 84 c 0
 50 68 46 38 46 -2 c 2
 46 -65 l 2
 46 -131 49 -142 104 -89 c 0
 146 -49 168 -10 168 53 c 0
 168 84 156 115 125 115 c 0xd8
52 471 m 0xe8
 52 399 47 270 47 145 c 0
 47 134 50 124 58 124 c 0
 80 124 122 171 168 171 c 0
 218 171 245 135 245 92 c 0
 245 24 219 -29 165 -75 c 0
 50 -178 l 0
 41 -183 36 -190 26 -190 c 0
 16 -190 15 -178 15 -168 c 0xd8
 15 -55 14 -34 11 121 c 0
 7 235 0 402 0 474 c 0
 0 491 2 493 26 493 c 0
 48 493 52 492 52 471 c 0xe8
EndSplineSet
EndChar

StartChar: Jcircumflex
Encoding: 308 308 138
Width: 272
VWidth: 0
Flags: W
HStem: -136 93<8.94119 92.2656 180.118 263.642> -28 56<108.164 163.836> 43 93<8.35831 91.8818 179.734 263.059>
VStem: 0 93<-127.642 -43.6952 43.7344 127.059> 108 56<-27.8361 27.4565> 179 93<-127.059 -43.7344 43.6952 127.642>
CounterMasks: 1 fc
LayerCount: 3
Fore
SplineSet
136 -28 m 0
 113 -27 93 -61 93 -107 c 0
 93 -120 92 -125 79 -127 c 0
 70 -128 60 -129 47 -131 c 0
 29 -134 22 -135 9 -136 c 0
 2 -136 -0 -134 0 -127 c 0
 1 -114 3 -107 5 -89 c 0
 7 -76 9 -66 10 -57 c 0
 11 -44 16 -43 30 -43 c 0
 76 -43 108 -23 108 0 c 0
 108 24 75 43 29 43 c 0
 16 43 11 44 9 57 c 0
 8 66 7 76 5 89 c 0
 2 107 1 114 0 127 c 0
 -0 134 2 136 9 136 c 0
 22 135 29 133 47 131 c 0
 60 129 70 127 79 126 c 0
 92 125 93 120 93 106 c 0
 93 60 113 28 136 28 c 0
 159 27 179 61 179 107 c 0
 179 120 180 125 193 127 c 0
 202 128 212 129 225 131 c 0
 243 134 250 135 263 136 c 0
 270 136 272 134 272 127 c 0
 271 114 269 107 267 89 c 0
 265 76 263 66 262 57 c 0
 261 44 256 43 242 43 c 0
 196 43 164 24 164 0 c 3
 164 -23 197 -43 243 -43 c 0
 256 -43 261 -44 263 -57 c 0
 264 -66 265 -76 267 -89 c 0
 270 -107 271 -114 272 -127 c 0
 272 -134 270 -136 263 -136 c 0
 250 -135 243 -133 225 -131 c 0
 212 -129 202 -127 193 -126 c 0
 180 -125 179 -120 179 -106 c 0
 179 -60 159 -28 136 -28 c 0
EndSplineSet
EndChar

StartChar: Lacute
Encoding: 313 313 139
Width: 194
VWidth: 750
Flags: W
HStem: 72 12<48 99>
VStem: 0 45<133.205 355.988> 11 27<-92.2773 48.4316 84.0051 269.049> 129 65<-22.6024 70.6247>
LayerCount: 3
Fore
SplineSet
99 72 m 0xb0
 78 72 60 63 50 49 c 0
 41 37 38 17 38 -13 c 2
 38 -58 l 2
 38 -94 37 -116 78 -76 c 0
 110 -46 129 -21 129 26 c 0
 129 49 122 72 99 72 c 0xb0
45 339 m 0xd0
 45 285 39 193 39 99 c 0
 39 91 42 84 48 84 c 0
 64 84 90 115 133 115 c 0
 171 115 194 88 194 56 c 0
 194 5 171 -36 131 -70 c 0
 38 -147 l 0
 31 -151 28 -156 20 -156 c 0
 12 -156 11 -148 11 -140 c 0xb0
 11 -55 10 -39 8 77 c 0
 5 163 0 287 0 341 c 0
 0 352 4 356 22 356 c 0
 38 356 45 352 45 339 c 0xd0
EndSplineSet
EndChar

StartChar: lacute
Encoding: 314 314 140
Width: 215
VWidth: 0
Flags: W
HStem: -152 57<2.99993e-007 40.9956> 51 58<0 40.9239> 95 58<174.007 215>
VStem: 41 27<-302.996 -153.211 -77.869 50.8631 126.999 280.997> 146 28<-280.997 -127.484 -50.6055 76.8906 153.608 302.985>
LayerCount: 3
Fore
SplineSet
68 -63 m 2x98
 68 -75 76 -81 93 -77 c 2
 124 -69 l 2
 139 -66 146 -60 146 -44 c 2
 146 63 l 2
 146 78 139 81 125 77 c 2
 93 70 l 2
 74 65 68 61 68 44 c 2
 68 -63 l 2x98
41 34 m 2
 41 51 35 55 20 51 c 0
 9 48 0 50 0 66 c 2
 0 90 l 2
 0 102 12 106 23 109 c 0xd8
 37 113 41 119 41 134 c 0
 41 189 38 251 38 271 c 0
 38 278 43 281 55 281 c 0
 68 281 71 277 71 270 c 0
 71 251 68 185 68 143 c 0
 68 126 76 124 90 127 c 2
 122 135 l 2
 138 139 146 138 146 164 c 0
 146 214 144 271 144 293 c 0
 144 300 149 303 161 303 c 0
 173 303 177 298 177 291 c 0
 177 269 174 222 174 170 c 0
 174 154 183 150 193 153 c 0
 206 156 215 154 215 140 c 2
 215 117 l 2
 215 103 205 98 192 95 c 0xb8
 178 91 174 88 174 75 c 2
 174 -36 l 2
 174 -47 179 -55 194 -51 c 0
 205 -48 215 -49 215 -64 c 2
 215 -90 l 2
 215 -99 206 -106 195 -108 c 0
 178 -112 174 -124 174 -135 c 0
 174 -190 177 -251 177 -271 c 0
 177 -278 172 -281 160 -281 c 0
 147 -281 144 -277 144 -270 c 0
 144 -251 146 -185 146 -143 c 0
 146 -127 137 -124 122 -128 c 2
 88 -136 l 2
 75 -139 68 -145 68 -164 c 0
 68 -214 71 -271 71 -293 c 0
 71 -300 66 -303 54 -303 c 0
 42 -303 38 -298 38 -291 c 0
 38 -269 41 -220 41 -168 c 0
 41 -153 35 -149 25 -152 c 0
 10 -156 0 -154 0 -142 c 2
 0 -117 l 2
 0 -101 10 -98 23 -95 c 0
 37 -91 41 -88 41 -75 c 2
 41 34 l 2
EndSplineSet
EndChar

StartChar: Lcommaaccent
Encoding: 315 315 141
Width: 399
VWidth: 750
Flags: W
HStem: 72 12<48 99 253 304>
VStem: 0 45<133.205 355.988> 11 27<-92.2773 48.4316 84.0051 269.049> 129 65<-22.6024 70.6247> 205 45<133.205 355.988> 216 27<-92.2773 48.4316 84.0051 269.049> 334 65<-22.6024 70.6247>
LayerCount: 3
Fore
SplineSet
304 72 m 0x96
 283 72 265 63 255 49 c 0
 246 37 243 17 243 -13 c 2
 243 -58 l 2
 243 -94 242 -116 283 -76 c 0
 315 -46 334 -21 334 26 c 0
 334 49 327 72 304 72 c 0x96
250 339 m 0x9a
 250 285 244 193 244 99 c 0
 244 91 247 84 253 84 c 0
 269 84 295 115 338 115 c 0
 376 115 399 88 399 56 c 0
 399 5 376 -36 336 -70 c 0
 243 -147 l 0
 236 -151 233 -156 225 -156 c 0
 217 -156 216 -148 216 -140 c 0x96
 216 -55 215 -39 213 77 c 0
 210 163 205 287 205 341 c 0
 205 352 209 356 227 356 c 0
 243 356 250 352 250 339 c 0x9a
99 72 m 0
 78 72 60 63 50 49 c 0
 41 37 38 17 38 -13 c 2
 38 -58 l 2xb2
 38 -94 37 -116 78 -76 c 0
 110 -46 129 -21 129 26 c 0
 129 49 122 72 99 72 c 0
45 339 m 0xd2
 45 285 39 193 39 99 c 0
 39 91 42 84 48 84 c 0
 64 84 90 115 133 115 c 0
 171 115 194 88 194 56 c 0
 194 5 171 -36 131 -70 c 0
 38 -147 l 0
 31 -151 28 -156 20 -156 c 0
 12 -156 11 -148 11 -140 c 0xb2
 11 -55 10 -39 8 77 c 0
 5 163 0 287 0 341 c 0
 0 352 4 356 22 356 c 0
 38 356 45 352 45 339 c 0xd2
EndSplineSet
EndChar

StartChar: kcommaaccent
Encoding: 311 311 142
Width: 252
VWidth: 0
Flags: W
HStem: -126 86<3.1342 85.4401 166.898 249.872> -28 56<98.0513 153.949> 40 86<2.12785 85.1016 166.56 248.866>
VStem: 0 86<-123.872 -40.8984 40.5599 122.866> 98 56<-27.9487 27.9487> 166 86<-122.866 -40.5599 40.8984 123.872>
LayerCount: 3
Fore
SplineSet
126 -28 m 3
 149 -28 166 -57 166 -103 c 0
 166 -116 168 -122 187 -123 c 0
 205 -123 225 -126 243 -126 c 3
 248.169 -126 252 -121.503 252 -117 c 3
 252 -99 250 -79 250 -61 c 0
 249 -42 243 -40 230 -40 c 0
 184 -40 154 -23 154 0 c 3
 154 23 183 40 229 40 c 0
 242 40 248 42 249 61 c 0
 249 79 252 99 252 117 c 3
 252 122.169 247.503 126 243 126 c 3
 225 126 205 124 187 124 c 0
 168 123 166 117 166 104 c 0
 166 58 149 28 126 28 c 3
 103 28 86 57 86 103 c 0
 86 116 84 122 65 123 c 0
 47 123 27 126 9 126 c 3
 3.83105 126 0 121.503 0 117 c 3
 0 99 2 79 2 61 c 0
 3 42 9 40 22 40 c 0
 68 40 98 23 98 0 c 3
 98 -23 69 -40 23 -40 c 0
 10 -40 4 -42 3 -61 c 0
 3 -79 0 -99 0 -117 c 3
 0 -122.169 4.49707 -126 9 -126 c 3
 27 -126 47 -124 65 -124 c 0
 84 -123 86 -117 86 -104 c 0
 86 -58 103 -28 126 -28 c 3
EndSplineSet
EndChar

StartChar: ncaron
Encoding: 328 328 143
Width: 562
VWidth: 0
Flags: W
HStem: -213 96<187 254.781> 116 97<305.727 374>
VStem: 0 38<-117.225 117.225> 178 30<-116.965 73.7477 168.245 400.748> 345 41<-419.994 -223.197> 352 30<-403.295 -167.517 -73.3999 115.905> 524 38<-117.225 117.225>
LayerCount: 3
Fore
SplineSet
195 420 m 3xfa
 212 420 215 417 215 402 c 3
 215 376 211 304 211 209 c 3
 211 182 215 166 232 166 c 0
 238 166 246 168 256 172 c 2
 349 208 l 2
 357 211 364 213 369 213 c 0
 379 213 384 207 384 190 c 3
 384 149 382 60 382 -23 c 3xf6
 382 -147 386 -369 386 -399 c 3
 386 -418 384 -420 364 -420 c 3
 349 -420 345 -414 345 -405 c 3
 345 -369 349 -309 349 -219 c 3
 349 -183 347 -166 330 -166 c 0
 322 -166 311 -170 295 -176 c 2
 211 -208 l 2
 204 -211 198 -213 193 -213 c 0
 181 -213 176 -204 176 -184 c 3
 176 -100 178 -88 178 32 c 3
 178 197 174 375 174 406 c 3
 174 419 179 420 188 420 c 0
 190 420 192 420 195 420 c 3xfa
208 28 m 2
 208 -83 l 2
 208 -105 210 -117 224 -117 c 0
 230 -117 237 -115 247 -111 c 2
 313 -86 l 2
 345 -73 352 -64 352 -28 c 2
 352 88 l 2
 352 108 347 116 335 116 c 0
 328 116 320 114 309 110 c 2
 246 85 l 2
 214 73 208 67 208 28 c 2
524 0 m 0
 524 190 424 284 424 303 c 0
 424 310 424 313 432 313 c 0
 453 313 562 160 562 0 c 0
 562 -160 453 -313 432 -313 c 0
 424 -313 424 -310 424 -303 c 0
 424 -284 524 -190 524 0 c 0
38 0 m 0
 38 -190 138 -284 138 -303 c 0
 138 -310 138 -313 130 -313 c 0
 109 -313 0 -160 0 0 c 0
 0 160 109 313 130 313 c 0
 138 313 138 310 138 303 c 0
 138 284 38 190 38 0 c 0
EndSplineSet
EndChar

StartChar: napostrophe
Encoding: 329 329 144
Width: 524
VWidth: -9
Flags: HW
HStem: 97 9<231 298>
VStem: 0 38<-17.225 217.225> 173 52<239.572 474.973> 188 31<-137.517 65.2398 106.007 295.25> 341 77<-20.2335 90.0367> 486 38<-17.225 217.225>
LayerCount: 3
Fore
SplineSet
298 115 m 4xdc
 270 115 248 102 235 84 c 4
 223 68 219 38 219 -2 c 6
 219 -65 l 6
 219 -131 222 -142 277 -89 c 4
 319 -49 341 -10 341 53 c 4
 341 84 329 115 298 115 c 4xdc
225 471 m 4xec
 225 399 220 270 220 145 c 4
 220 134 223 124 231 124 c 4
 253 124 295 171 341 171 c 4
 391 171 418 135 418 92 c 4
 418 24 392 -29 338 -75 c 4
 223 -178 l 4
 214 -183 209 -190 199 -190 c 4
 189 -190 188 -178 188 -168 c 4xdc
 188 -55 187 -34 184 121 c 4
 180 235 173 402 173 474 c 4
 173 491 175 493 199 493 c 4
 221 493 225 492 225 471 c 4xec
486 118 m 4
 486 308 386 402 386 421 c 4
 386 428 386 431 394 431 c 4
 415 431 524 278 524 118 c 4
 524 -42 415 -195 394 -195 c 4
 386 -195 386 -192 386 -185 c 4
 386 -166 486 -72 486 118 c 4
38 118 m 4
 38 -72 138 -166 138 -185 c 4
 138 -192 138 -195 130 -195 c 4
 109 -195 0 -42 0 118 c 4
 0 278 109 431 130 431 c 4
 138 431 138 428 138 421 c 4
 138 402 38 308 38 118 c 4
EndSplineSet
EndChar

StartChar: Eng
Encoding: 330 330 145
Width: 547
VWidth: 0
Flags: HW
HStem: -201.903 76.3369<150.612 194.305> -147.169 76.7354<355.937 399.496> 70.4336 76.7354<150.504 194.063> 125.566 76.3369<355.695 399.388>
VStem: 0 38<-117.225 117.225> 194.5 31<-401.991 -202.107 -105.304 70.8953 167.699 375.996> 324.5 31<-375.996 -167.699 -70.8952 105.304 202.107 401.991> 509 38<-106.225 128.225>
LayerCount: 3
Fore
SplineSet
225.5 -87 m 2x0f
 225.5 -98.5 228.809 -110.243 250 -104.627 c 2
 301 -91.1084 l 2
 321.495 -85.6758 324.5 -74 324.5 -60 c 2
 324.5 87 l 2
 324.5 98.5 321.191 110.243 300 104.627 c 2
 249 91.1084 l 2
 228.505 85.6758 225.5 74 225.5 60 c 2
 225.5 -87 l 2x0f
194.5 54 m 2
 194.5 68.5 191.053 75.749 171 70.4336 c 0
 156.011 66.4609 150.5 75.5 150.5 85 c 2
 150.5 125 l 2
 150.5 136.5 154.882 143.161 170 147.169 c 0xaf
 188.944 152.19 194.5 160.539 194.5 175 c 0
 194.5 248.142 190.5 336.333 190.5 362.5 c 0
 190.5 371.75 194.5 376 210 376 c 0
 226.833 376 229.5 370.978 229.5 361.5 c 0
 229.5 336.333 225.5 247.002 225.5 191.5 c 0
 225.5 170.352 235.808 164.611 248 167.844 c 2
 293 179.771 l 2
 310.399 184.383 324.5 186.935 324.5 217.5 c 0
 324.5 284.598 320.5 360.667 320.5 389.5 c 0
 320.5 398.864 324.71 402 341 402 c 0
 357.53 402 359.5 396.289 359.5 387 c 0
 359.5 358.333 355.5 288 355.5 218 c 0
 355.5 202.333 362.865 198.289 376.5 201.903 c 0
 393.54 206.42 399.5 199.667 399.5 189.5 c 2
 399.5 151 l 2
 399.5 137.333 396.129 130.106 379 125.566 c 0
 360.635 120.698 355.5 116.333 355.5 98.5 c 2
 355.5 -54 l 2
 355.5 -68.5 358.947 -75.748 379 -70.4336 c 0
 393.989 -66.4609 399.5 -75.5 399.5 -85 c 2
 399.5 -125 l 2
 399.5 -136.5 395.118 -143.161 380 -147.169 c 0x5f
 361.056 -152.191 355.5 -160.539 355.5 -175 c 0
 355.5 -248.142 359.5 -336.333 359.5 -362.5 c 0
 359.5 -371.75 355.5 -376 340 -376 c 0
 323.167 -376 320.5 -370.978 320.5 -361.5 c 0
 320.5 -336.333 324.5 -247.002 324.5 -191.5 c 0
 324.5 -170.352 314.192 -164.612 302 -167.844 c 2
 257 -179.771 l 2
 239.602 -184.383 225.5 -186.935 225.5 -217.5 c 0
 225.5 -284.598 229.5 -360.667 229.5 -389.5 c 0
 229.5 -398.864 225.29 -402 209 -402 c 0
 192.47 -402 190.5 -396.289 190.5 -387 c 0
 190.5 -358.333 194.5 -288 194.5 -218 c 0
 194.5 -202.333 187.135 -198.289 173.5 -201.903 c 0
 156.46 -206.42 150.5 -199.667 150.5 -189.5 c 2
 150.5 -151 l 2
 150.5 -137.333 153.871 -130.106 171 -125.566 c 0x8f
 189.365 -120.698 194.5 -116.333 194.5 -98.5 c 2
 194.5 54 l 2
509 11 m 0
 509 201 409 295 409 314 c 0
 409 321 409 324 417 324 c 0
 438 324 547 171 547 11 c 0
 547 -149 438 -302 417 -302 c 0
 409 -302 409 -299 409 -292 c 0
 409 -273 509 -179 509 11 c 0
38 0 m 0
 38 -190 138 -284 138 -303 c 0
 138 -310 138 -313 130 -313 c 0
 109 -313 0 -160 0 0 c 0
 0 160 109 313 130 313 c 0
 138 313 138 310 138 303 c 0
 138 284 38 190 38 0 c 0
EndSplineSet
EndChar

StartChar: eng
Encoding: 331 331 146
Width: 767
VWidth: -9
Flags: HW
HStem: 97 9<231 298>
VStem: 0 38<-17.225 217.225> 173 52<239.572 474.973> 188 31<-137.517 65.2398 106.007 295.25> 341 77<-20.2335 90.0367> 486 38<-17.225 217.225>
LayerCount: 3
Fore
SplineSet
541 115 m 0xdc
 513 115 491 102 478 84 c 0
 466 68 462 38 462 -2 c 2
 462 -65 l 2
 462 -131 465 -142 520 -89 c 0
 562 -49 584 -10 584 53 c 0
 584 84 572 115 541 115 c 0xdc
468 471 m 0xec
 468 399 463 270 463 145 c 0
 463 134 466 124 474 124 c 0
 496 124 538 171 584 171 c 0
 634 171 661 135 661 92 c 0
 661 24 635 -29 581 -75 c 0
 466 -178 l 0
 457 -183 452 -190 442 -190 c 0
 432 -190 431 -178 431 -168 c 0xdc
 431 -55 430 -34 427 121 c 0
 423 235 416 402 416 474 c 0
 416 491 418 493 442 493 c 0
 464 493 468 492 468 471 c 0xec
729 118 m 0
 729 308 629 402 629 421 c 0
 629 428 629 431 637 431 c 0
 658 431 767 278 767 118 c 0
 767 -42 658 -195 637 -195 c 0
 629 -195 629 -192 629 -185 c 0
 629 -166 729 -72 729 118 c 0
298 115 m 0xdc
 270 115 248 102 235 84 c 0
 223 68 219 38 219 -2 c 2
 219 -65 l 2
 219 -131 222 -142 277 -89 c 0
 319 -49 341 -10 341 53 c 0
 341 84 329 115 298 115 c 0xdc
225 471 m 0xec
 225 399 220 270 220 145 c 0
 220 134 223 124 231 124 c 0
 253 124 295 171 341 171 c 0
 391 171 418 135 418 92 c 0
 418 24 392 -29 338 -75 c 0
 223 -178 l 0
 214 -183 209 -190 199 -190 c 0
 189 -190 188 -178 188 -168 c 0xdc
 188 -55 187 -34 184 121 c 0
 180 235 173 402 173 474 c 0
 173 491 175 493 199 493 c 0
 221 493 225 492 225 471 c 0xec
38 118 m 0
 38 -72 138 -166 138 -185 c 0
 138 -192 138 -195 130 -195 c 0
 109 -195 0 -42 0 118 c 0
 0 278 109 431 130 431 c 0
 138 431 138 428 138 421 c 0
 138 402 38 308 38 118 c 0
EndSplineSet
EndChar

StartChar: Omacron
Encoding: 332 332 147
Width: 492
VWidth: 0
Flags: HW
HStem: -136 93<8.94119 92.2656 180.118 263.642> -28 56<108.164 163.836> 43 93<8.35831 91.8818 179.734 263.059>
VStem: 0 93<-127.642 -43.6952 43.7344 127.059> 108 56<-27.8361 27.4565> 179 93<-127.059 -43.7344 43.6952 127.642>
LayerCount: 3
Fore
SplineSet
247 -28 m 0
 224 -27 204 -61 204 -107 c 0
 204 -120 203 -125 190 -127 c 0
 181 -128 171 -129 158 -131 c 0
 140 -134 133 -135 120 -136 c 0
 113 -136 111 -134 111 -127 c 0
 112 -114 114 -107 116 -89 c 0
 118 -76 120 -66 121 -57 c 0
 122 -44 127 -43 141 -43 c 0
 187 -43 219 -23 219 0 c 0
 219 24 186 43 140 43 c 0
 127 43 122 44 120 57 c 0
 119 66 118 76 116 89 c 0
 113 107 112 114 111 127 c 0
 111 134 113 136 120 136 c 0
 133 135 140 133 158 131 c 0
 171 129 181 127 190 126 c 0
 203 125 204 120 204 106 c 0
 204 60 224 28 247 28 c 0
 270 27 290 61 290 107 c 0
 290 120 291 125 304 127 c 0
 313 128 323 129 336 131 c 0
 354 134 361 135 374 136 c 0
 381 136 383 134 383 127 c 0
 382 114 380 107 378 89 c 0
 376 76 374 66 373 57 c 0
 372 44 367 43 353 43 c 0
 307 43 275 24 275 0 c 3
 275 -23 308 -43 354 -43 c 0
 367 -43 372 -44 374 -57 c 0
 375 -66 376 -76 378 -89 c 0
 381 -107 382 -114 383 -127 c 0
 383 -134 381 -136 374 -136 c 0
 361 -135 354 -133 336 -131 c 0
 323 -129 313 -127 304 -126 c 0
 291 -125 290 -120 290 -106 c 0
 290 -60 270 -28 247 -28 c 0
458 0 m 0
 458 115 384 165 384 181 c 0
 384 186 385 188 392 188 c 0
 410 188 492 108 492 0 c 0
 492 -108 410 -188 392 -188 c 0
 385 -188 384 -186 384 -181 c 0
 384 -165 458 -115 458 0 c 0
34 0 m 0
 34 -115 108 -165 108 -181 c 0
 108 -186 107 -188 100 -188 c 0
 82 -188 0 -108 0 0 c 0
 0 108 82 188 100 188 c 0
 107 188 108 186 108 181 c 0
 108 165 34 115 34 0 c 0
EndSplineSet
EndChar

StartChar: omacron
Encoding: 333 333 148
Width: 786
VWidth: 0
Flags: HW
HStem: -213 96<187 254.781> 116 97<305.727 374>
VStem: 0 38<-117.225 117.225> 178 30<-116.965 73.7477 168.245 400.748> 345 41<-419.994 -223.197> 352 30<-403.295 -167.517 -73.3999 115.905> 524 38<-117.225 117.225>
LayerCount: 3
Fore
SplineSet
748 18 m 0
 748 208 648 302 648 321 c 0
 648 328 648 331 656 331 c 0
 677 331 786 178 786 18 c 0
 786 -142 677 -295 656 -295 c 0
 648 -295 648 -292 648 -285 c 0
 648 -266 748 -172 748 18 c 0
551 115 m 0xdc
 523 115 501 102 488 84 c 0
 476 68 472 38 472 -2 c 2
 472 -65 l 2
 472 -131 475 -142 530 -89 c 0
 572 -49 594 -10 594 53 c 0
 594 84 582 115 551 115 c 0xdc
478 471 m 0xec
 478 399 473 270 473 145 c 0
 473 134 476 124 484 124 c 0
 506 124 548 171 594 171 c 0
 644 171 671 135 671 92 c 0
 671 24 645 -29 591 -75 c 0
 476 -178 l 0
 467 -183 462 -190 452 -190 c 0
 442 -190 441 -178 441 -168 c 0xdc
 441 -55 440 -34 437 121 c 0
 433 235 426 402 426 474 c 0
 426 491 428 493 452 493 c 0
 474 493 478 492 478 471 c 0xec
195 420 m 3xfa
 212 420 215 417 215 402 c 3
 215 376 211 304 211 209 c 3
 211 182 215 166 232 166 c 0
 238 166 246 168 256 172 c 2
 349 208 l 2
 357 211 364 213 369 213 c 0
 379 213 384 207 384 190 c 3
 384 149 382 60 382 -23 c 3xf6
 382 -147 386 -369 386 -399 c 3
 386 -418 384 -420 364 -420 c 3
 349 -420 345 -414 345 -405 c 3
 345 -369 349 -309 349 -219 c 3
 349 -183 347 -166 330 -166 c 0
 322 -166 311 -170 295 -176 c 2
 211 -208 l 2
 204 -211 198 -213 193 -213 c 0
 181 -213 176 -204 176 -184 c 3
 176 -100 178 -88 178 32 c 3
 178 197 174 375 174 406 c 3
 174 419 179 420 188 420 c 0
 190 420 192 420 195 420 c 3xfa
208 28 m 2
 208 -83 l 2
 208 -105 210 -117 224 -117 c 0
 230 -117 237 -115 247 -111 c 2
 313 -86 l 2
 345 -73 352 -64 352 -28 c 2
 352 88 l 2
 352 108 347 116 335 116 c 0
 328 116 320 114 309 110 c 2
 246 85 l 2
 214 73 208 67 208 28 c 2
38 18 m 0
 38 -172 138 -266 138 -285 c 0
 138 -292 138 -295 130 -295 c 0
 109 -295 0 -142 0 18 c 0
 0 178 109 331 130 331 c 0
 138 331 138 328 138 321 c 0
 138 302 38 208 38 18 c 0
EndSplineSet
EndChar

StartChar: Obreve
Encoding: 334 334 149
Width: 846
VWidth: 0
Flags: HW
HStem: -201.903 76.3369<0.111572 43.8051> -147.169 76.7354<205.437 248.996> 70.4336 76.7354<0.00405132 43.5632> 125.566 76.3369<205.195 248.888>
VStem: 44 31<-401.991 -202.107 -105.304 70.8953 167.699 375.996> 174 31<-375.996 -167.699 -70.8952 105.304 202.107 401.991>
LayerCount: 3
Fore
SplineSet
510 -87 m 2x0c
 510 -98.5 513.309 -110.243 534.5 -104.627 c 2
 585.5 -91.1084 l 2
 605.995 -85.6758 609 -74 609 -60 c 2
 609 87 l 2
 609 98.5 605.691 110.243 584.5 104.627 c 2
 533.5 91.1084 l 2
 513.005 85.6758 510 74 510 60 c 2
 510 -87 l 2x0c
479 54 m 2
 479 68.5 475.553 75.749 455.5 70.4336 c 0
 440.511 66.4609 435 75.5 435 85 c 2
 435 125 l 2
 435 136.5 439.382 143.161 454.5 147.169 c 0xac
 473.444 152.19 479 160.539 479 175 c 0
 479 248.142 475 336.333 475 362.5 c 0
 475 371.75 479 376 494.5 376 c 0
 511.333 376 514 370.978 514 361.5 c 0
 514 336.333 510 247.002 510 191.5 c 0
 510 170.352 520.308 164.611 532.5 167.844 c 2
 577.5 179.771 l 2
 594.899 184.383 609 186.935 609 217.5 c 0
 609 284.598 605 360.667 605 389.5 c 0
 605 398.864 609.21 402 625.5 402 c 0
 642.03 402 644 396.289 644 387 c 0
 644 358.333 640 288 640 218 c 0
 640 202.333 647.365 198.289 661 201.903 c 0
 678.04 206.42 684 199.667 684 189.5 c 2
 684 151 l 2
 684 137.333 680.629 130.106 663.5 125.566 c 0
 645.135 120.698 640 116.333 640 98.5 c 2
 640 -54 l 2
 640 -68.5 643.447 -75.748 663.5 -70.4336 c 0
 678.489 -66.4609 684 -75.5 684 -85 c 2
 684 -125 l 2
 684 -136.5 679.618 -143.161 664.5 -147.169 c 0x5c
 645.556 -152.191 640 -160.539 640 -175 c 0
 640 -248.142 644 -336.333 644 -362.5 c 0
 644 -371.75 640 -376 624.5 -376 c 0
 607.667 -376 605 -370.978 605 -361.5 c 0
 605 -336.333 609 -247.002 609 -191.5 c 0
 609 -170.352 598.692 -164.612 586.5 -167.844 c 2
 541.5 -179.771 l 2
 524.102 -184.383 510 -186.935 510 -217.5 c 0
 510 -284.598 514 -360.667 514 -389.5 c 0
 514 -398.864 509.79 -402 493.5 -402 c 0
 476.97 -402 475 -396.289 475 -387 c 0
 475 -358.333 479 -288 479 -218 c 0
 479 -202.333 471.635 -198.289 458 -201.903 c 0
 440.96 -206.42 435 -199.667 435 -189.5 c 2
 435 -151 l 2
 435 -137.333 438.371 -130.106 455.5 -125.566 c 0x8c
 473.865 -120.698 479 -116.333 479 -98.5 c 2
 479 54 l 2
199 420 m 3xf0
 216 420 219 417 219 402 c 3
 219 376 215 304 215 209 c 3
 215 182 219 166 236 166 c 0
 242 166 250 168 260 172 c 2
 353 208 l 2
 361 211 368 213 373 213 c 0
 383 213 388 207 388 190 c 3
 388 149 386 60 386 -23 c 3xe8
 386 -147 390 -369 390 -399 c 3
 390 -418 388 -420 368 -420 c 3
 353 -420 349 -414 349 -405 c 3
 349 -369 353 -309 353 -219 c 3
 353 -183 351 -166 334 -166 c 0
 326 -166 315 -170 299 -176 c 2
 215 -208 l 2
 208 -211 202 -213 197 -213 c 0
 185 -213 180 -204 180 -184 c 3
 180 -100 182 -88 182 32 c 3
 182 197 178 375 178 406 c 3
 178 419 183 420 192 420 c 0
 194 420 196 420 199 420 c 3xf0
212 28 m 2
 212 -83 l 2
 212 -105 214 -117 228 -117 c 0
 234 -117 241 -115 251 -111 c 2
 317 -86 l 2
 349 -73 356 -64 356 -28 c 2
 356 88 l 2
 356 108 351 116 339 116 c 0
 332 116 324 114 313 110 c 2
 250 85 l 2
 218 73 212 67 212 28 c 2
808 0 m 0
 808 190 708 284 708 303 c 0
 708 310 708 313 716 313 c 0
 737 313 846 160 846 0 c 0
 846 -160 737 -313 716 -313 c 0
 708 -313 708 -310 708 -303 c 0
 708 -284 808 -190 808 0 c 0
38 0 m 0
 38 -190 138 -284 138 -303 c 0
 138 -310 138 -313 130 -313 c 0
 109 -313 0 -160 0 0 c 0
 0 160 109 313 130 313 c 0
 138 313 138 310 138 303 c 0
 138 284 38 190 38 0 c 0
EndSplineSet
EndChar

StartChar: jcircumflex
Encoding: 309 309 150
Width: 497
VWidth: 0
Flags: HW
HStem: -208 21G<21 31> 97 9<58 125>
VStem: 0 52<239.572 474.973> 15 31<-137.517 65.2398 106.007 295.25> 168 77<-20.2335 90.0367>
LayerCount: 3
Fore
SplineSet
377 115 m 0xd8
 349 115 327 102 314 84 c 0
 302 68 298 38 298 -2 c 2
 298 -65 l 2
 298 -131 301 -142 356 -89 c 0
 398 -49 420 -10 420 53 c 0
 420 84 408 115 377 115 c 0xd8
304 471 m 0xe8
 304 399 299 270 299 145 c 0
 299 134 302 124 310 124 c 0
 332 124 374 171 420 171 c 0
 470 171 497 135 497 92 c 0
 497 24 471 -29 417 -75 c 0
 302 -178 l 0
 293 -183 288 -190 278 -190 c 0
 268 -190 267 -178 267 -168 c 0xd8
 267 -55 266 -34 263 121 c 0
 259 235 252 402 252 474 c 0
 252 491 254 493 278 493 c 0
 300 493 304 492 304 471 c 0xe8
21 420 m 3xf0
 38 420 41 417 41 402 c 3
 41 376 37 304 37 209 c 3
 37 182 41 166 58 166 c 0
 64 166 72 168 82 172 c 2
 175 208 l 2
 183 211 190 213 195 213 c 0
 205 213 210 207 210 190 c 3
 210 149 208 60 208 -23 c 3xe8
 208 -147 212 -369 212 -399 c 3
 212 -418 210 -420 190 -420 c 3
 175 -420 171 -414 171 -405 c 3
 171 -369 175 -309 175 -219 c 3
 175 -183 173 -166 156 -166 c 0
 148 -166 137 -170 121 -176 c 2
 37 -208 l 2
 30 -211 24 -213 19 -213 c 0
 7 -213 2 -204 2 -184 c 3
 2 -100 4 -88 4 32 c 3
 4 197 0 375 0 406 c 3
 0 419 5 420 14 420 c 0
 16 420 18 420 21 420 c 3xf0
34 28 m 2
 34 -83 l 2
 34 -105 36 -117 50 -117 c 0
 56 -117 63 -115 73 -111 c 2
 139 -86 l 2
 171 -73 178 -64 178 -28 c 2
 178 88 l 2
 178 108 173 116 161 116 c 0
 154 116 146 114 135 110 c 2
 72 85 l 2
 40 73 34 67 34 28 c 2
EndSplineSet
EndChar

StartChar: Kcommaaccent
Encoding: 310 310 151
Width: 506
VWidth: 0
Flags: HW
HStem: -201.903 76.3369<0.111572 43.8051> -147.169 76.7354<205.437 248.996> 70.4336 76.7354<0.00405132 43.5632> 125.566 76.3369<205.195 248.888>
VStem: 44 31<-401.991 -202.107 -105.304 70.8953 167.699 375.996> 174 31<-375.996 -167.699 -70.8952 105.304 202.107 401.991>
LayerCount: 3
Fore
SplineSet
332 -87 m 2x0c
 332 -98.5 335.309 -110.243 356.5 -104.627 c 2
 407.5 -91.1084 l 2
 427.995 -85.6758 431 -74 431 -60 c 2
 431 87 l 2
 431 98.5 427.691 110.243 406.5 104.627 c 2
 355.5 91.1084 l 2
 335.005 85.6758 332 74 332 60 c 2
 332 -87 l 2x0c
301 54 m 2
 301 68.5 297.553 75.749 277.5 70.4336 c 0
 262.511 66.4609 257 75.5 257 85 c 2
 257 125 l 2
 257 136.5 261.382 143.161 276.5 147.169 c 0xac
 295.444 152.19 301 160.539 301 175 c 0
 301 248.142 297 336.333 297 362.5 c 0
 297 371.75 301 376 316.5 376 c 0
 333.333 376 336 370.978 336 361.5 c 0
 336 336.333 332 247.002 332 191.5 c 0
 332 170.352 342.308 164.611 354.5 167.844 c 2
 399.5 179.771 l 2
 416.899 184.383 431 186.935 431 217.5 c 0
 431 284.598 427 360.667 427 389.5 c 0
 427 398.864 431.21 402 447.5 402 c 0
 464.03 402 466 396.289 466 387 c 0
 466 358.333 462 288 462 218 c 0
 462 202.333 469.365 198.289 483 201.903 c 0
 500.04 206.42 506 199.667 506 189.5 c 2
 506 151 l 2
 506 137.333 502.629 130.106 485.5 125.566 c 0
 467.135 120.698 462 116.333 462 98.5 c 2
 462 -54 l 2
 462 -68.5 465.447 -75.748 485.5 -70.4336 c 0
 500.489 -66.4609 506 -75.5 506 -85 c 2
 506 -125 l 2
 506 -136.5 501.618 -143.161 486.5 -147.169 c 0x5c
 467.556 -152.191 462 -160.539 462 -175 c 0
 462 -248.142 466 -336.333 466 -362.5 c 0
 466 -371.75 462 -376 446.5 -376 c 0
 429.667 -376 427 -370.978 427 -361.5 c 0
 427 -336.333 431 -247.002 431 -191.5 c 0
 431 -170.352 420.692 -164.612 408.5 -167.844 c 2
 363.5 -179.771 l 2
 346.102 -184.383 332 -186.935 332 -217.5 c 0
 332 -284.598 336 -360.667 336 -389.5 c 0
 336 -398.864 331.79 -402 315.5 -402 c 0
 298.97 -402 297 -396.289 297 -387 c 0
 297 -358.333 301 -288 301 -218 c 0
 301 -202.333 293.635 -198.289 280 -201.903 c 0
 262.96 -206.42 257 -199.667 257 -189.5 c 2
 257 -151 l 2
 257 -137.333 260.371 -130.106 277.5 -125.566 c 0x8c
 295.865 -120.698 301 -116.333 301 -98.5 c 2
 301 54 l 2
21 420 m 3xf0
 38 420 41 417 41 402 c 3
 41 376 37 304 37 209 c 3
 37 182 41 166 58 166 c 0
 64 166 72 168 82 172 c 2
 175 208 l 2
 183 211 190 213 195 213 c 0
 205 213 210 207 210 190 c 3
 210 149 208 60 208 -23 c 3xe8
 208 -147 212 -369 212 -399 c 3
 212 -418 210 -420 190 -420 c 3
 175 -420 171 -414 171 -405 c 3
 171 -369 175 -309 175 -219 c 3
 175 -183 173 -166 156 -166 c 0
 148 -166 137 -170 121 -176 c 2
 37 -208 l 2
 30 -211 24 -213 19 -213 c 0
 7 -213 2 -204 2 -184 c 3
 2 -100 4 -88 4 32 c 3
 4 197 0 375 0 406 c 3
 0 419 5 420 14 420 c 0
 16 420 18 420 21 420 c 3xf0
34 28 m 2
 34 -83 l 2
 34 -105 36 -117 50 -117 c 0
 56 -117 63 -115 73 -111 c 2
 139 -86 l 2
 171 -73 178 -64 178 -28 c 2
 178 88 l 2
 178 108 173 116 161 116 c 0
 154 116 146 114 135 110 c 2
 72 85 l 2
 40 73 34 67 34 28 c 2
EndSplineSet
EndChar

StartChar: Lcaron
Encoding: 317 317 152
Width: 399
VWidth: 0
Flags: HW
HStem: 72 12<48 99>
VStem: 0 45<133.205 355.988> 11 27<-92.2773 48.4316 84.0051 269.049> 129 65<-22.6024 70.6247>
LayerCount: 3
Fore
SplineSet
304 72 m 0xb0
 283 72 265 63 255 49 c 0
 246 37 243 17 243 -13 c 2
 243 -58 l 2
 243 -94 242 -116 283 -76 c 0
 315 -46 334 -21 334 26 c 0
 334 49 327 72 304 72 c 0xb0
250 339 m 0xd0
 250 285 244 193 244 99 c 0
 244 91 247 84 253 84 c 0
 269 84 295 115 338 115 c 0
 376 115 399 88 399 56 c 0
 399 5 376 -36 336 -70 c 0
 243 -147 l 0
 236 -151 233 -156 225 -156 c 0
 217 -156 216 -148 216 -140 c 0xb0
 216 -55 215 -39 213 77 c 0
 210 163 205 287 205 341 c 0
 205 352 209 356 227 356 c 0
 243 356 250 352 250 339 c 0xd0
18 314 m 3
 31 314 35 312 35 301 c 3
 35 281 32 227 32 156 c 3
 32 133 36 124 47 124 c 0
 51 124 56 126 62 128 c 2
 139 157 l 2
 145 159 150 161 154 161 c 0
 162 161 166 156 166 143 c 3
 166 112 164 46 164 -16 c 3
 164 -109 167 -276 167 -298 c 3
 167 -312 163 -314 148 -314 c 3
 135 -314 132 -310 132 -303 c 3
 132 -276 135 -231 135 -163 c 3
 135 -135 133 -126 122 -126 c 0
 116 -126 109 -128 99 -131 c 2
 28 -157 l 2
 23 -159 18 -161 14 -161 c 0
 5 -161 2 -154 2 -139 c 3
 2 -76 3 -67 3 23 c 3
 3 147 0 280 0 303 c 3
 0 312 7 314 18 314 c 3
30 20 m 2
 30 -63 l 2
 30 -81 36 -86 44 -86 c 0
 51 -86 58 -83 65 -80 c 2
 112 -63 l 1
 136 -53 138 -44 138 -21 c 2
 138 66 l 2
 138 81 133 87 124 87 c 0
 120 87 115 85 109 83 c 2
 54 63 l 2
 33 55 30 49 30 20 c 2
EndSplineSet
EndChar

StartChar: ohungarumlaut
Encoding: 337 337 153
Width: 424
VWidth: -9
Flags: HW
HStem: 72 12<48 99>
VStem: 0 45<133.205 355.988> 11 27<-92.2773 48.4316 84.0051 269.049> 129 65<-22.6024 70.6247>
LayerCount: 3
Fore
SplineSet
238 72 m 0xb0
 217 72 199 63 189 49 c 0
 180 37 177 17 177 -13 c 2
 177 -58 l 2
 177 -94 176 -116 217 -76 c 0
 249 -46 268 -21 268 26 c 0
 268 49 261 72 238 72 c 0xb0
184 339 m 0xd0
 184 285 178 193 178 99 c 0
 178 91 181 84 187 84 c 0
 203 84 229 115 272 115 c 0
 310 115 333 88 333 56 c 0
 333 5 310 -36 270 -70 c 0
 177 -147 l 0
 170 -151 167 -156 159 -156 c 0
 151 -156 150 -148 150 -140 c 0xb0
 150 -55 149 -39 147 77 c 0
 144 163 139 287 139 341 c 0
 139 352 143 356 161 356 c 0
 177 356 184 352 184 339 c 0xd0
390 50 m 0
 390 165 316 215 316 231 c 0
 316 236 317 238 324 238 c 0
 342 238 424 158 424 50 c 0
 424 -58 342 -138 324 -138 c 0
 317 -138 316 -136 316 -131 c 0
 316 -115 390 -65 390 50 c 0
34 50 m 0
 34 -65 108 -115 108 -131 c 0
 108 -136 107 -138 100 -138 c 0
 82 -138 0 -58 0 50 c 0
 0 158 82 238 100 238 c 0
 107 238 108 236 108 231 c 0
 108 215 34 165 34 50 c 0
EndSplineSet
EndChar

StartChar: oe
Encoding: 339 339 154
Width: 629
VWidth: -9
Flags: HW
HStem: 72 12<48 99 253 304>
VStem: 0 45<133.205 355.988> 11 27<-92.2773 48.4316 84.0051 269.049> 129 65<-22.6024 70.6247> 205 45<133.205 355.988> 216 27<-92.2773 48.4316 84.0051 269.049> 334 65<-22.6024 70.6247>
LayerCount: 3
Fore
SplineSet
443 72 m 0x96
 422 72 404 63 394 49 c 0
 385 37 382 17 382 -13 c 2
 382 -58 l 2
 382 -94 381 -116 422 -76 c 0
 454 -46 473 -21 473 26 c 0
 473 49 466 72 443 72 c 0x96
389 339 m 0x9a
 389 285 383 193 383 99 c 0
 383 91 386 84 392 84 c 0
 408 84 434 115 477 115 c 0
 515 115 538 88 538 56 c 0
 538 5 515 -36 475 -70 c 0
 382 -147 l 0
 375 -151 372 -156 364 -156 c 0
 356 -156 355 -148 355 -140 c 0x96
 355 -55 354 -39 352 77 c 0
 349 163 344 287 344 341 c 0
 344 352 348 356 366 356 c 0
 382 356 389 352 389 339 c 0x9a
238 72 m 0
 217 72 199 63 189 49 c 0
 180 37 177 17 177 -13 c 2
 177 -58 l 2xb2
 177 -94 176 -116 217 -76 c 0
 249 -46 268 -21 268 26 c 0
 268 49 261 72 238 72 c 0
184 339 m 0xd2
 184 285 178 193 178 99 c 0
 178 91 181 84 187 84 c 0
 203 84 229 115 272 115 c 0
 310 115 333 88 333 56 c 0
 333 5 310 -36 270 -70 c 0
 177 -147 l 0
 170 -151 167 -156 159 -156 c 0
 151 -156 150 -148 150 -140 c 0xb2
 150 -55 149 -39 147 77 c 0
 144 163 139 287 139 341 c 0
 139 352 143 356 161 356 c 0
 177 356 184 352 184 339 c 0xd2
595 50 m 0
 595 165 521 215 521 231 c 0
 521 236 522 238 529 238 c 0
 547 238 629 158 629 50 c 0
 629 -58 547 -138 529 -138 c 0
 522 -138 521 -136 521 -131 c 0
 521 -115 595 -65 595 50 c 0
34 50 m 0
 34 -65 108 -115 108 -131 c 0
 108 -136 107 -138 100 -138 c 0
 82 -138 0 -58 0 50 c 0
 0 158 82 238 100 238 c 0
 107 238 108 236 108 231 c 0
 108 215 34 165 34 50 c 0
EndSplineSet
EndChar

StartChar: racute
Encoding: 341 341 155
Width: 646
VWidth: 0
Flags: HW
HStem: 72 12<48 99>
VStem: 0 45<133.205 355.988> 11 27<-92.2773 48.4316 84.0051 269.049> 129 65<-22.6024 70.6247>
LayerCount: 3
Fore
SplineSet
454 72 m 0xb0
 433 72 415 63 405 49 c 0
 396 37 393 17 393 -13 c 2
 393 -58 l 2
 393 -94 392 -116 433 -76 c 0
 465 -46 484 -21 484 26 c 0
 484 49 477 72 454 72 c 0xb0
400 339 m 0xd0
 400 285 394 193 394 99 c 0
 394 91 397 84 403 84 c 0
 419 84 445 115 488 115 c 0
 526 115 549 88 549 56 c 0
 549 5 526 -36 486 -70 c 0
 393 -147 l 0
 386 -151 383 -156 375 -156 c 0
 367 -156 366 -148 366 -140 c 0xb0
 366 -55 365 -39 363 77 c 0
 360 163 355 287 355 341 c 0
 355 352 359 356 377 356 c 0
 393 356 400 352 400 339 c 0xd0
168 314 m 3
 181 314 185 312 185 301 c 3
 185 281 182 227 182 156 c 3
 182 133 186 124 197 124 c 0
 201 124 206 126 212 128 c 2
 289 157 l 2
 295 159 300 161 304 161 c 0
 312 161 316 156 316 143 c 3
 316 112 314 46 314 -16 c 3
 314 -109 317 -276 317 -298 c 3
 317 -312 313 -314 298 -314 c 3
 285 -314 282 -310 282 -303 c 3
 282 -276 285 -231 285 -163 c 3
 285 -135 283 -126 272 -126 c 0
 266 -126 259 -128 249 -131 c 2
 178 -157 l 2
 173 -159 168 -161 164 -161 c 0
 155 -161 152 -154 152 -139 c 3
 152 -76 153 -67 153 23 c 3
 153 147 150 280 150 303 c 3
 150 312 157 314 168 314 c 3
180 20 m 2
 180 -63 l 2
 180 -81 186 -86 194 -86 c 0
 201 -86 208 -83 215 -80 c 2
 262 -63 l 1
 286 -53 288 -44 288 -21 c 2
 288 66 l 2
 288 81 283 87 274 87 c 0
 270 87 265 85 259 83 c 2
 204 63 l 2
 183 55 180 49 180 20 c 2
612 25 m 0
 612 140 538 190 538 206 c 0
 538 211 539 213 546 213 c 0
 564 213 646 133 646 25 c 0
 646 -83 564 -163 546 -163 c 0
 539 -163 538 -161 538 -156 c 0
 538 -140 612 -90 612 25 c 0
34 25 m 0
 34 -90 108 -140 108 -156 c 0
 108 -161 107 -163 100 -163 c 0
 82 -163 0 -83 0 25 c 0
 0 133 82 213 100 213 c 0
 107 213 108 211 108 206 c 0
 108 190 34 140 34 25 c 0
EndSplineSet
EndChar

StartChar: Rcommaaccent
Encoding: 342 342 156
Width: 694
VWidth: 0
Flags: HW
HStem: -152 57<2.99993e-007 40.9956> 51 58<0 40.9239> 95 58<174.007 215>
VStem: 41 27<-302.996 -153.211 -77.869 50.8631 126.999 280.997> 146 28<-280.997 -127.484 -50.6055 76.8906 153.608 302.985>
LayerCount: 3
Fore
SplineSet
414 -63 m 2x98
 414 -75 422 -81 439 -77 c 2
 470 -69 l 2
 485 -66 492 -60 492 -44 c 2
 492 63 l 2
 492 78 485 81 471 77 c 2
 439 70 l 2
 420 65 414 61 414 44 c 2
 414 -63 l 2x98
387 34 m 2
 387 51 381 55 366 51 c 0
 355 48 346 50 346 66 c 2
 346 90 l 2
 346 102 358 106 369 109 c 0xd8
 383 113 387 119 387 134 c 0
 387 189 384 251 384 271 c 0
 384 278 389 281 401 281 c 0
 414 281 417 277 417 270 c 0
 417 251 414 185 414 143 c 0
 414 126 422 124 436 127 c 2
 468 135 l 2
 484 139 492 138 492 164 c 0
 492 214 490 271 490 293 c 0
 490 300 495 303 507 303 c 0
 519 303 523 298 523 291 c 0
 523 269 520 222 520 170 c 0
 520 154 529 150 539 153 c 0
 552 156 561 154 561 140 c 2
 561 117 l 2
 561 103 551 98 538 95 c 0xb8
 524 91 520 88 520 75 c 2
 520 -36 l 2
 520 -47 525 -55 540 -51 c 0
 551 -48 561 -49 561 -64 c 2
 561 -90 l 2
 561 -99 552 -106 541 -108 c 0
 524 -112 520 -124 520 -135 c 0
 520 -190 523 -251 523 -271 c 0
 523 -278 518 -281 506 -281 c 0
 493 -281 490 -277 490 -270 c 0
 490 -251 492 -185 492 -143 c 0
 492 -127 483 -124 468 -128 c 2
 434 -136 l 2
 421 -139 414 -145 414 -164 c 0
 414 -214 417 -271 417 -293 c 0
 417 -300 412 -303 400 -303 c 0
 388 -303 384 -298 384 -291 c 0
 384 -269 387 -220 387 -168 c 0
 387 -153 381 -149 371 -152 c 0
 356 -156 346 -154 346 -142 c 2
 346 -117 l 2
 346 -101 356 -98 369 -95 c 0
 383 -91 387 -88 387 -75 c 2
 387 34 l 2
159 314 m 3
 172 314 176 312 176 301 c 3
 176 281 173 227 173 156 c 3
 173 133 177 124 188 124 c 0
 192 124 197 126 203 128 c 2
 280 157 l 2
 286 159 291 161 295 161 c 0
 303 161 307 156 307 143 c 3
 307 112 305 46 305 -16 c 3
 305 -109 308 -276 308 -298 c 3
 308 -312 304 -314 289 -314 c 3
 276 -314 273 -310 273 -303 c 3
 273 -276 276 -231 276 -163 c 3
 276 -135 274 -126 263 -126 c 0
 257 -126 250 -128 240 -131 c 2
 169 -157 l 2
 164 -159 159 -161 155 -161 c 0
 146 -161 143 -154 143 -139 c 3
 143 -76 144 -67 144 23 c 3
 144 147 141 280 141 303 c 3
 141 312 148 314 159 314 c 3
171 20 m 2
 171 -63 l 2
 171 -81 177 -86 185 -86 c 0
 192 -86 199 -83 206 -80 c 2
 253 -63 l 1
 277 -53 279 -44 279 -21 c 2
 279 66 l 2
 279 81 274 87 265 87 c 0
 261 87 256 85 250 83 c 2
 195 63 l 2
 174 55 171 49 171 20 c 2
660 0 m 0
 660 115 586 165 586 181 c 0
 586 186 587 188 594 188 c 0
 612 188 694 108 694 0 c 0
 694 -108 612 -188 594 -188 c 0
 587 -188 586 -186 586 -181 c 0
 586 -165 660 -115 660 0 c 0
34 0 m 0
 34 -115 108 -165 108 -181 c 0
 108 -186 107 -188 100 -188 c 0
 82 -188 0 -108 0 0 c 0
 0 108 82 188 100 188 c 0
 107 188 108 186 108 181 c 0
 108 165 34 115 34 0 c 0
EndSplineSet
EndChar

StartChar: Ibreve
Encoding: 300 300 157
Width: 1000
VWidth: 0
Flags: W
HStem: -23 46<-21.5682 21.5682>
VStem: -23 46<-21.5682 21.5682>
LayerCount: 3
Fore
SplineSet
0 23 m 3
 -19.7461 23 -29.8975 66.0068 -31.667 90.333 c 0
 -33 108.667 -33 116 -53.333 119 c 0
 -76.9336 122.482 -86.2021 124.747 -108 131.667 c 0
 -129 138.333 -138.333 129 -131.667 108 c 0
 -124.747 86.2021 -122.482 76.9336 -119 53.333 c 0
 -116 33 -108.667 33 -90.333 31.667 c 0
 -66.0068 29.8975 -23 19.7461 -23 0 c 3
 -23 -19.7461 -66.0068 -29.8975 -90.333 -31.667 c 0
 -108.667 -33 -116 -33 -119 -53.333 c 0
 -122.482 -76.9336 -124.747 -86.2021 -131.667 -108 c 0
 -138.333 -129 -129 -138.333 -108 -131.667 c 0
 -86.2021 -124.747 -76.9336 -122.482 -53.333 -119 c 0
 -33 -116 -33 -108.667 -31.667 -90.333 c 0
 -29.8975 -66.0068 -19.7461 -23 0 -23 c 3
 19.7461 -23 29.8975 -66.0068 31.667 -90.333 c 0
 33 -108.667 33 -116 53.333 -119 c 0
 76.9336 -122.482 86.2021 -124.747 108 -131.667 c 0
 129 -138.333 138.333 -129 131.667 -108 c 0
 124.747 -86.2021 122.482 -76.9336 119 -53.333 c 0
 116 -33 108.667 -33 90.333 -31.667 c 0
 66.0068 -29.8975 23 -19.7461 23 0 c 0
 23 19.7461 66.0068 29.8975 90.333 31.667 c 0
 108.667 33 116 33 119 53.333 c 0
 122.482 76.9336 124.747 86.2021 131.667 108 c 0
 138.333 129 129 138.333 108 131.667 c 0
 86.2021 124.747 76.9336 122.482 53.333 119 c 0
 33 116 33 108.667 31.667 90.333 c 0
 29.8975 66.0068 19.7461 23 0 23 c 3
EndSplineSet
EndChar

StartChar: ibreve
Encoding: 301 301 158
Width: 299
VWidth: 0
Flags: W
HStem: -25 50<126.274 171.726>
VStem: 124 50<-22.7261 22.7261>
LayerCount: 3
Fore
SplineSet
124 0 m 3
 124 22 76 33 50 35 c 0
 29 36 21 36 18 58 c 0
 15 84 12 96 4 119 c 0
 2 128 -0 134 -0 139 c 0
 -0 146 3 149 10 149 c 0
 15 149 22 148 30 145 c 0
 53 137 65 134 91 131 c 0
 113 128 113 120 114 99 c 0
 116 73 127 25 149 25 c 0
 171 25 182 73 184 99 c 0
 185 120 185 128 207 131 c 0
 233 134 245 137 268 145 c 0
 277 148 284 149 289 149 c 0
 296 149 299 146 299 139 c 0
 299 134 297 128 294 119 c 0
 286 96 283 84 280 58 c 0
 277 36 269 36 248 35 c 0
 222 33 174 22 174 0 c 3
 174 -22 222 -33 248 -35 c 0
 269 -36 277 -36 280 -58 c 0
 283 -84 286 -96 294 -119 c 0
 297 -128 299 -134 299 -139 c 0
 299 -146 296 -149 289 -149 c 0
 284 -149 277 -148 268 -145 c 0
 245 -137 233 -134 207 -131 c 0
 185 -128 185 -120 184 -99 c 0
 182 -73 171 -25 149 -25 c 3
 127 -25 116 -73 114 -99 c 0
 113 -120 113 -128 91 -131 c 0
 65 -134 53 -137 30 -145 c 0
 22 -148 15 -149 10 -149 c 0
 3 -149 -0 -146 -0 -139 c 0
 -0 -134 2 -128 4 -119 c 0
 12 -96 15 -84 18 -58 c 0
 21 -36 29 -36 50 -35 c 0
 76 -33 124 -22 124 0 c 3
EndSplineSet
EndChar

StartChar: Utilde
Encoding: 360 360 159
Width: 197
VWidth: 0
Flags: W
VStem: 0 40<-94.6547 70.2647 157.457 377.998> 157 40<-378.998 -158.457 -71.2647 93.6545>
LayerCount: 3
Fore
SplineSet
4 -1 m 3
 4 178.025 0 333 0 364 c 3
 0 377 3 378 20 378 c 3
 38 378 40 376 40 360 c 3
 40 334 37 292 37 197 c 3
 37 152.334 45.9804 151.754 83 163 c 2
 162 187 l 2
 181.469 192.914 195 197.139 195 172 c 3
 195 131 193 83 193 -1 c 3
 193 -179.025 197 -334 197 -365 c 3
 197 -378 194 -379 177 -379 c 3
 159 -379 157 -377 157 -361 c 3
 157 -335 160 -293 160 -198 c 3
 160 -153.334 151.02 -152.754 114 -164 c 2
 35 -188 l 2
 15.5312 -193.914 2 -198.14 2 -173 c 3
 2 -132 4 -84 4 -1 c 3
163 67 m 2
 163 104.104 149.055 97.6548 120 89 c 2
 73 75 l 2
 40.2324 64.0771 34 61 34 16 c 2
 34 -68 l 2
 34 -105.104 47.9443 -98.6553 77 -90 c 2
 124 -76 l 2
 156.768 -65.0771 163 -62 163 -17 c 2
 163 67 l 2
EndSplineSet
EndChar

StartChar: utilde
Encoding: 361 361 160
Width: 230
Flags: W
HStem: -165 68<7.5 45.6169>
VStem: 0 57<172.256 484.984> 0 50<146.008 461.912> 0 30<-96.9934 86.9617>
LayerCount: 3
Fore
SplineSet
40 79 m 0x90
 33 65 30 41 30 15 c 2
 30 -67 l 2
 30 -88 35 -97 44 -97 c 0
 53 -97 66 -89 81 -76 c 0
 127 -38 157 -7 145 65 c 0
 134 129 62 124 40 79 c 0x90
57 465 m 3xc0
 57 400 50 279 50 167 c 0xa0
 50 157 52 146 63 146 c 0
 83 146 108 162 140 162 c 0
 190 162 230 134 230 66 c 0
 230 -15 134 -71 63 -129 c 2
 31 -155 l 2
 24 -161 16 -165 11 -165 c 0
 4 -165 0 -160 0 -146 c 2x90
 0 468 l 2
 0 485 -0 485 29 485 c 0
 57 485 57 485 57 465 c 3xc0
EndSplineSet
EndChar

StartChar: Umacron
Encoding: 362 362 161
Width: 249
VWidth: 0
Flags: W
HStem: -192 86<0.227108 45.9868> -132 85<203.535 249> 46 85<2.39999e-007 45.4649> 105 86<203.013 248.773>
VStem: 46 34<-367.992 -191.254 -84.5103 46.0015 153.652 340.999> 169 34<-341.997 -154.652 -47.0015 83.5103 190.481 366.992>
LayerCount: 3
Fore
SplineSet
171 65 m 2x0c
 171 77 167 89 146 83 c 2
 102 69 l 2
 82 63 78 52 78 38 c 2
 78 -66 l 2
 78 -78 82 -90 103 -84 c 2
 147 -70 l 2
 167 -64 171 -53 171 -39 c 2
 171 65 l 2x0c
47 30 m 2
 47 48 41 51 24 46 c 0
 9 42 0 40 0 62 c 2
 0 109 l 2
 0 121 8 126 23 131 c 0xac
 44 139 46 148 46 160 c 0
 46 233 43 302 43 328 c 0
 43 340 46 341 62 341 c 0
 79 341 82 341 82 326 c 0
 82 301 80 232 80 176 c 0
 80 155 90 150 103 154 c 2
 140 165 l 2
 156 170 169 171 169 202 c 0
 169 269 167 325 167 354 c 0
 167 366 170 367 188 367 c 0
 204 367 206 366 206 352 c 0
 206 310 203 239 203 207 c 0
 203 194 205 185 227 191 c 0
 243 196 249 190 249 172 c 2
 249 132 l 2
 249 115 243 113 222 105 c 0
 204 98 202 89 202 76 c 2
 202 -31 l 2
 202 -49 208 -52 225 -47 c 0
 243 -42 249 -47 249 -64 c 2
 249 -111 l 2
 249 -123 241 -127 226 -132 c 0x5c
 205 -140 203 -149 203 -161 c 0
 203 -234 206 -303 206 -329 c 0
 206 -340 203 -342 187 -342 c 0
 170 -342 167 -341 167 -327 c 0
 167 -302 169 -233 169 -177 c 0
 169 -156 159 -151 146 -155 c 2
 109 -166 l 2
 92 -171 80 -172 80 -203 c 0
 80 -270 82 -326 82 -355 c 0
 82 -367 79 -368 61 -368 c 0
 44 -368 43 -366 43 -353 c 0
 43 -324 46 -278 46 -208 c 0
 46 -195 42 -186 22 -192 c 0
 6 -197 0 -192 0 -174 c 2
 0 -133 l 2
 0 -116 6 -114 27 -106 c 0x8c
 45 -99 47 -90 47 -77 c 2
 47 30 l 2
EndSplineSet
EndChar

StartChar: umacron
Encoding: 363 363 162
Width: 442
Flags: W
HStem: -165 68<7.5 45.6169 219.5 257.617>
VStem: 0 57<172.256 484.984> 0 50<146.008 461.912> 0 30<-96.9934 86.9617> 212 57<172.256 484.984> 212 50<152.792 461.912> 212 30<-96.9934 -27.5759>
LayerCount: 3
Fore
SplineSet
252 79 m 0x82
 245 65 242 41 242 15 c 2
 242 -67 l 2
 242 -88 247 -97 256 -97 c 0
 265 -97 278 -89 293 -76 c 0
 339 -38 369 -7 357 65 c 0
 346 129 274 124 252 79 c 0x82
40 79 m 0
 33 65 30 41 30 15 c 2
 30 -67 l 2x90
 30 -88 35 -97 44 -97 c 0
 53 -97 66 -89 81 -76 c 0
 127 -38 157 -7 145 65 c 0
 134 129 62 124 40 79 c 0
57 465 m 0xc0
 57 400 50 279 50 167 c 0
 50 157 52 146 63 146 c 0
 83 146 108 162 140 162 c 0
 152 162 163 160 173 157 c 0
 198 149 212 150 212 174 c 2
 212 468 l 2
 212 485 212 485 241 485 c 0
 269 485 269 485 269 465 c 0xa8
 269 400 262 279 262 167 c 0x84
 262 157 264 146 275 146 c 0
 295 146 320 162 352 162 c 0
 402 162 442 134 442 66 c 0
 442 -15 346 -71 275 -129 c 2
 243 -155 l 2
 236 -161 228 -165 223 -165 c 0
 216 -165 212 -160 212 -146 c 2
 212 -50 l 2
 212 -29 200 -14 175 -39 c 0
 142 -71 99 -100 63 -129 c 2
 31 -155 l 2
 24 -161 16 -165 11 -165 c 0
 4 -165 0 -160 0 -146 c 2x92
 0 468 l 2
 0 485 -0 485 29 485 c 0
 57 485 57 485 57 465 c 0xc0
EndSplineSet
EndChar

